<svg width="246" height="148" viewBox="0 0 246 148" fill="none" xmlns="http://www.w3.org/2000/svg">
<g opacity="0.5" clip-path="url(#clip0)">
<path d="M211.25 35.53C204.876 34.5487 198.359 35.1147 192.25 37.18C191.277 30.4518 188.616 24.0794 184.517 18.6564C180.417 13.2334 175.011 8.93626 168.803 6.16523C162.596 3.39421 155.787 2.23946 149.013 2.80856C142.239 3.37766 135.719 5.65209 130.06 9.41998C126.925 6.26071 123.13 3.83379 118.947 2.313C114.763 0.792208 110.296 0.215181 105.864 0.623236C101.431 1.03129 97.1442 2.41433 93.3091 4.67332C89.4739 6.93231 86.1858 10.0114 83.68 13.69C82.76 13.49 81.84 13.31 80.9 13.17C69.6871 11.4497 58.2304 13.8429 48.6439 19.908C39.0573 25.9731 31.9879 35.3008 28.74 46.17C21.3733 46.5807 14.4195 49.7043 9.21943 54.9384C4.01933 60.1724 0.941149 67.1464 0.578404 74.5156C0.215658 81.8848 2.59403 89.1274 7.25495 94.8469C11.9159 100.566 18.5293 104.358 25.82 105.49C27.0613 105.683 28.314 105.794 29.57 105.82C29.47 106.34 29.37 106.87 29.29 107.4C28.2461 114.209 29.5884 121.169 33.0892 127.101C36.5901 133.033 42.0342 137.573 48.4992 139.95C54.9641 142.328 62.0522 142.397 68.5622 140.146C75.0723 137.895 80.604 133.463 84.22 127.6C87.1938 132.566 91.2029 136.833 95.9743 140.11C100.746 143.386 106.167 145.596 111.87 146.589C117.572 147.582 123.422 147.334 129.02 145.862C134.618 144.39 139.833 141.729 144.31 138.06C154.171 141.404 164.945 140.795 174.367 136.363C183.79 131.93 191.128 124.019 194.84 114.29C200.126 115.681 205.639 115.982 211.045 115.174C216.451 114.366 221.635 112.467 226.284 109.591C230.932 106.716 234.946 102.924 238.082 98.4478C241.218 93.9713 243.41 88.9034 244.525 83.5526C245.64 78.2018 245.654 72.68 244.567 67.3235C243.48 61.9671 241.314 56.8879 238.201 52.3953C235.088 47.9027 231.093 44.0906 226.46 41.1912C221.826 38.2917 216.651 36.3656 211.25 35.53Z" fill="white" stroke="#93898B" stroke-width="4" stroke-miterlimit="10"/>
</g>
<defs>
<clipPath id="clip0">
<rect width="245.92" height="147.69" fill="white"/>
</clipPath>
</defs>
</svg>
