<svg width="329" height="217" viewBox="0 0 329 217" fill="none" xmlns="http://www.w3.org/2000/svg">
<path d="M313.225 208.033C300.165 196.563 279.365 198.433 312.955 170.963C346.545 143.493 319.095 104.843 288.425 109.103C257.755 113.363 246.035 103.773 255.635 78.7028C265.235 53.6328 275.095 -1.53718 189.505 0.0328152C103.915 1.60282 129.505 63.2328 129.505 63.2328C114.305 56.0328 87.9153 77.3628 103.915 101.363C119.915 125.363 104.445 141.893 80.4453 140.563C56.4453 139.233 15.1153 131.493 2.85527 165.093C-9.40473 198.693 21.7853 216.553 21.7853 216.553H316.995C317.285 213.683 316.315 210.753 313.225 208.033Z" fill="#F56D8E"/>
<path d="M263.445 145.893C259.645 155.393 250.285 163.383 232.305 164.703C194.305 167.503 185.245 146.963 192.305 117.103C199.365 87.2429 195.245 65.9029 195.245 65.9029C195.245 65.9029 182.045 69.1029 182.975 53.6429C183.048 52.0764 183.341 50.5279 183.845 49.0429C187.315 39.2129 199.845 43.0429 204.035 44.4429C208.835 46.0429 219.235 40.9729 230.035 45.9129C240.835 50.8529 240.705 65.1229 238.995 76.8629C237.285 88.6029 249.785 101.923 259.785 115.653C264.995 122.883 267.675 135.323 263.445 145.893Z" fill="#0C1A3C"/>
<g style="mix-blend-mode:multiply" opacity="0.4">
<path d="M263.445 145.893C259.645 155.393 250.285 163.383 232.305 164.703C194.305 167.503 185.245 146.963 192.305 117.103C199.365 87.2427 195.245 65.9027 195.245 65.9027C195.245 65.9027 182.045 69.1027 182.975 53.6427C183.048 52.0762 183.341 50.5277 183.845 49.0427C186.005 55.0427 196.225 57.6827 196.225 57.6827C196.225 57.6827 215.795 74.3627 224.225 76.3327C226.705 76.9941 229.315 76.9941 231.795 76.3327C232.13 76.2358 232.484 76.2244 232.825 76.2994C233.166 76.3743 233.482 76.5334 233.746 76.7621C234.009 76.9907 234.211 77.2817 234.333 77.6084C234.456 77.9352 234.494 78.2873 234.445 78.6327C233.895 82.7527 234.445 89.2727 240.075 97.2627C249.915 111.263 256.075 114.143 262.245 130.883C263.981 135.689 264.396 140.872 263.445 145.893Z" fill="#FFAB2F"/>
</g>
<path d="M189.375 110.523V142.033C189.375 142.033 158.975 160.523 150.265 158.033C145.265 156.593 142.825 152.033 142.675 146.763C142.592 142.599 143.684 138.495 145.825 134.923C150.975 126.203 170.825 97.6728 170.825 97.6728C176.755 97.1028 180.955 100.593 183.405 103.573C184.43 104.8 185.309 106.143 186.025 107.573L180.335 115.403L189.375 110.523Z" fill="white"/>
<g style="mix-blend-mode:multiply" opacity="0.3">
<path d="M180.305 115.373L185.995 107.543C185.279 106.113 184.4 104.77 183.375 103.543L181.925 104.413L179.385 108.353C179.031 108.903 178.49 109.307 177.862 109.491C177.234 109.674 176.56 109.625 175.965 109.353C173.349 108.166 171.146 106.227 169.635 103.783C169.727 106.516 170.501 109.184 171.885 111.543C172.665 112.857 173.053 114.368 173.001 115.895C172.95 117.423 172.462 118.904 171.595 120.163C165.895 128.653 159.265 138.163 155.675 141.913C152.085 145.663 146.795 146.733 142.675 146.733C142.825 152.013 145.245 156.563 150.265 158.003C158.975 160.493 189.375 142.003 189.375 142.003V110.523L180.305 115.373Z" fill="#326C92"/>
</g>
<g style="mix-blend-mode:multiply" opacity="0.3">
<path d="M165.995 141.853C173.974 142.605 181.986 140.794 188.865 136.683L189.365 133.983V110.523L180.295 115.373L179.625 117.373C179.625 117.373 171.445 135.453 165.995 141.853Z" fill="#326C92"/>
</g>
<path d="M185.995 107.543C184.42 107.629 182.842 107.432 181.335 106.963C178.02 105.837 175.117 103.748 172.995 100.963C172.158 99.9417 171.424 98.8396 170.805 97.6728C172.164 97.5428 173.534 97.6306 174.865 97.9328C178.262 98.8171 181.267 100.809 183.405 103.593C184.414 104.808 185.283 106.133 185.995 107.543Z" fill="#0C1A3C"/>
<path d="M196.225 85.0329C196.225 85.0329 195.145 92.5729 194.725 93.1229C194.305 93.6729 190.205 96.1229 190.145 96.4129C189.689 97.6099 189.063 98.7348 188.285 99.7529C187.175 101.173 183.715 103.143 183.715 103.143L183.405 103.633L181.335 107.003C179.727 106.497 178.214 105.73 176.855 104.733C175.409 103.666 174.111 102.412 172.995 101.003L174.855 98.0029L175.435 97.0629V88.1629L176.995 85.2429C179.496 83.1301 182.195 81.2648 185.055 79.6729C187.185 78.6129 188.975 78.2929 189.275 79.9329C190.075 84.3129 192.175 87.5929 192.275 87.2229C192.375 86.8529 194.005 81.3429 195.175 81.4929C196.345 81.6429 196.225 85.0329 196.225 85.0329Z" fill="#93405C"/>
<path d="M196.225 85.0329C196.225 85.0329 195.145 92.5729 194.725 93.1229C194.305 93.6729 190.205 96.1229 190.145 96.4129C189.689 97.6099 189.063 98.7348 188.285 99.7529C187.175 101.173 183.715 103.143 183.715 103.143L183.405 103.633L181.335 107.003C179.727 106.497 178.214 105.73 176.855 104.733L178.475 101.883C179.225 100.558 179.504 99.017 179.265 97.5129C178.885 95.2029 178.335 91.8229 178.135 90.5129C177.835 88.6529 181.135 84.6429 185.055 79.6929C187.185 78.6329 188.975 78.3129 189.275 79.9529C190.075 84.3329 192.175 87.6129 192.275 87.2429C192.375 86.8729 194.005 81.3629 195.175 81.5129C196.345 81.6629 196.225 85.0329 196.225 85.0329Z" fill="#56114A"/>
<path d="M188.085 99.1429L200.285 79.4129L192.565 70.4629L180.375 90.1929L188.085 99.1429Z" fill="#0C1A3C"/>
<path d="M188.525 96.3227L198.335 80.4727L192.125 73.2827L182.325 89.1327L188.525 96.3227Z" fill="#F9591A"/>
<path d="M186.825 99.1429H188.085L180.375 90.1929H179.105L186.825 99.1429Z" fill="#346E94"/>
<path d="M192.565 70.4629L180.375 90.1929H179.105L191.305 70.4629H192.565Z" fill="white"/>
<path d="M193.995 75.3828C193.891 75.417 193.797 75.4759 193.72 75.5545C193.643 75.6331 193.587 75.729 193.556 75.8342C193.524 75.9393 193.519 76.0505 193.539 76.1582C193.56 76.2659 193.607 76.367 193.675 76.4528C193.838 76.6674 193.948 76.9176 193.995 77.1828C194.325 78.8728 186.585 81.2728 186.585 81.2728C186.585 81.2728 190.465 81.7428 190.525 83.6128C190.585 85.4828 181.855 85.2728 181.255 85.5428C180.855 85.7228 177.435 87.3528 175.465 88.0928C175.555 85.6828 176.325 82.4128 181.465 80.0128C181.465 80.0128 182.645 76.4128 185.085 75.8728C185.196 75.111 185.506 74.3918 185.984 73.7879C186.461 73.184 187.09 72.7166 187.805 72.4328C190.395 71.2028 192.935 70.4328 195.065 72.4328C196.555 73.8628 195.725 74.7828 193.995 75.3828Z" fill="#93405C"/>
<path d="M194.995 72.4329C194.489 71.9459 193.874 71.5866 193.201 71.3848C192.528 71.1831 191.816 71.1447 191.125 71.2729C190.71 74.0072 190.71 76.7885 191.125 79.5229C192.725 78.7829 194.125 77.9129 193.955 77.1829C193.908 76.9176 193.798 76.6674 193.635 76.4529C193.567 76.3671 193.52 76.266 193.499 76.1583C193.479 76.0505 193.484 75.9394 193.516 75.8342C193.547 75.7291 193.603 75.6331 193.68 75.5545C193.757 75.476 193.851 75.4171 193.955 75.3829C194.585 75.211 195.154 74.8643 195.595 74.3829L195.675 73.2629C195.507 72.9434 195.275 72.6611 194.995 72.4329Z" fill="#56114A"/>
<path d="M178.995 216.583C185.395 200.713 190.595 155.253 190.595 155.253C188.079 152.852 186.043 149.994 184.595 146.833C183.905 145.31 183.418 143.703 183.145 142.053C181.945 134.453 185.855 113.573 189.145 110.773C192.435 107.973 203.545 103.213 203.545 103.213L219.425 99.0327L247.905 112.233C247.905 112.233 244.555 126.523 242.145 139.233C240.685 146.933 239.575 154.023 239.775 156.943C240.305 164.673 251.635 216.673 251.635 216.673L178.995 216.583Z" fill="white"/>
<g style="mix-blend-mode:multiply" opacity="0.3">
<path d="M178.995 216.583C185.395 200.713 190.595 155.253 190.595 155.253C188.079 152.852 186.043 149.995 184.595 146.833C190.825 151.263 202.725 157.703 216.465 154.833C227.995 152.413 236.775 145.043 242.185 139.153C240.725 146.853 239.615 153.943 239.815 156.863C240.345 164.593 251.675 216.593 251.675 216.593L178.995 216.583Z" fill="#326C92"/>
</g>
<g style="mix-blend-mode:multiply" opacity="0.3">
<path d="M239.775 156.853C239.826 153.158 240.215 149.476 240.935 145.853L237.935 146.403C237.935 146.403 234.215 156.543 217.355 158.783C217.099 158.812 216.858 158.916 216.66 159.081C216.462 159.247 216.317 159.466 216.243 159.713C216.169 159.959 216.168 160.222 216.241 160.469C216.314 160.716 216.458 160.937 216.655 161.103C219.133 163.283 222.217 164.654 225.495 165.033C225.843 165.056 226.18 165.165 226.475 165.351C226.771 165.536 227.015 165.792 227.188 166.095C227.36 166.398 227.455 166.739 227.463 167.088C227.471 167.437 227.393 167.782 227.235 168.093C223.095 176.093 209.745 197.753 178.975 216.563H251.635C251.635 216.563 240.305 164.583 239.775 156.853Z" fill="#326C92"/>
</g>
<path d="M199.285 109.173C199.285 109.173 196.885 120.033 205.925 120.033C213.755 120.033 219.925 112.473 223.185 104.563L224.655 101.443L219.425 99.0327L203.555 103.253C203.555 103.253 202.265 103.803 200.435 104.643L199.285 109.173Z" fill="#FFAB2F"/>
<path d="M220.615 102.413C220.615 102.413 217.415 113.613 208.435 115.743C199.455 117.873 201.865 108.373 201.865 108.373V94.3728C201.865 94.3728 216.435 73.0428 217.365 79.8628C217.555 81.2828 217.805 83.0828 218.085 85.0428C219.155 92.5628 220.615 102.413 220.615 102.413Z" fill="#93405C"/>
<path d="M218.085 85.0829C216.965 91.5729 213.355 101.843 201.865 105.953V94.4129C201.865 94.4129 216.435 73.0829 217.365 79.9029C217.555 81.3229 217.805 83.1229 218.085 85.0829Z" fill="#56114A"/>
<path d="M235.285 205.963L230.745 198.613L225.505 190.143L255.305 169.143L237.995 146.413C237.995 146.413 236.395 114.593 247.995 112.193C247.995 112.193 271.995 151.023 281.445 168.373C282.872 170.79 284.109 173.314 285.145 175.923C286.995 182.673 235.285 205.963 235.285 205.963Z" fill="white"/>
<g style="mix-blend-mode:multiply" opacity="0.3">
<path d="M235.285 205.963L230.745 198.613C238.855 194.033 267.615 177.833 276.595 172.033C278.27 170.947 279.861 169.737 281.355 168.413C282.782 170.83 284.019 173.354 285.055 175.963C286.995 182.673 235.285 205.963 235.285 205.963Z" fill="#326C92"/>
</g>
<path d="M235.285 205.963C232.5 204.884 230.091 203.014 228.355 200.584C226.619 198.153 225.632 195.268 225.515 192.283C225.465 191.567 225.465 190.849 225.515 190.133C226.142 190.38 226.744 190.685 227.315 191.043C230.495 192.979 232.9 195.964 234.115 199.483C234.848 201.567 235.242 203.754 235.285 205.963Z" fill="#0C1A3C"/>
<path d="M234.115 199.483L230.905 201.643L230.265 202.773C229.085 204.773 226.565 208.833 224.765 209.583C222.365 210.583 216.765 210.913 216.765 210.913L208.565 216.573H200.315C195.405 216.573 192.315 215.513 192.055 214.473C192.023 214.328 192.036 214.178 192.094 214.042C192.151 213.905 192.249 213.79 192.375 213.713C193.835 212.513 209.375 198.113 210.245 197.713C211.115 197.313 224.305 193.103 224.305 193.103L225.515 192.273L226.255 191.763L227.305 191.033C230.49 192.97 232.899 195.959 234.115 199.483Z" fill="#93405C"/>
<path opacity="0.5" d="M234.115 199.483L230.905 201.643L230.265 202.773C229.085 204.773 226.565 208.833 224.765 209.583C222.365 210.583 216.765 210.913 216.765 210.913L208.565 216.573H200.315C195.405 216.573 192.315 215.513 192.055 214.473C193.385 215.543 196.765 214.973 200.275 210.733C202.811 207.759 205.734 205.139 208.965 202.943C207.765 204.133 200.735 211.673 201.135 212.703C201.535 213.733 210.135 206.563 210.135 206.563L213.785 203.133C213.943 202.986 214.13 202.875 214.333 202.806C214.537 202.736 214.753 202.711 214.967 202.731C215.181 202.75 215.389 202.815 215.577 202.921C215.764 203.026 215.927 203.17 216.055 203.343C216.922 204.459 218.187 205.197 219.585 205.403C220.305 205.533 225.245 203.713 226.585 201.203C227.15 200.196 227.853 199.273 228.675 198.463C229.015 198.119 229.283 197.71 229.462 197.261C229.64 196.811 229.727 196.331 229.715 195.847C229.704 195.364 229.596 194.888 229.396 194.447C229.197 194.006 228.911 193.61 228.555 193.283C227.873 192.68 227.113 192.172 226.295 191.773L227.345 191.043C230.514 192.985 232.907 195.969 234.115 199.483Z" fill="#56114A"/>
<path d="M216.305 83.0328C215.016 86.8654 212.772 90.3067 209.785 93.0328C202.655 99.0328 194.095 95.2528 193.105 86.7328C191.775 75.2728 190.975 51.6728 205.635 51.6728C208.394 51.5955 211.111 52.3593 213.425 53.8628C219.995 58.3128 221.465 69.2328 216.305 83.0328Z" fill="#93405C"/>
<path opacity="0.5" d="M216.305 83.0328C215.016 86.8653 212.772 90.3066 209.785 93.0328C215.495 80.0328 213.375 58.3528 213.375 58.3528C213.304 56.8564 213.321 55.3572 213.425 53.8628C219.995 58.3128 221.465 69.2328 216.305 83.0328Z" fill="#56114A"/>
<path d="M198.705 50.1927C198.705 50.1927 198.705 63.3927 215.905 69.3927L214.835 76.8627H224.565C224.565 76.8627 231.495 64.4627 225.765 55.7927C220.035 47.1227 198.705 50.1927 198.705 50.1927Z" fill="#0C1A3C"/>
<path d="M217.995 73.8128C217.995 73.8128 219.685 68.8128 224.665 69.4428C229.175 70.0028 228.205 81.7728 218.755 81.8828C218.378 81.8845 218.005 81.797 217.667 81.6274C217.33 81.4578 217.037 81.211 216.813 80.907C216.589 80.6029 216.44 80.2503 216.377 79.8777C216.315 79.5051 216.342 79.1232 216.455 78.7628L217.995 73.8128Z" fill="#93405C"/>
<path d="M139.955 210.793H48.5752L36.9352 137.023L129.105 142.053L139.955 210.793Z" fill="#FFAB2F"/>
<path d="M50.8552 205.973L40.8552 142.853C40.8057 142.535 40.8276 142.21 40.9196 141.902C41.0116 141.594 41.1712 141.31 41.3868 141.071C41.6024 140.833 41.8686 140.645 42.1659 140.523C42.4632 140.4 42.7841 140.345 43.1052 140.363L124.735 144.823C125.227 144.851 125.693 145.048 126.057 145.379C126.421 145.71 126.661 146.156 126.735 146.643L135.995 205.303C136.045 205.61 136.026 205.925 135.942 206.225C135.857 206.525 135.709 206.803 135.506 207.04C135.303 207.277 135.052 207.467 134.768 207.597C134.485 207.727 134.177 207.794 133.865 207.793H52.9952C52.4796 207.796 51.9797 207.615 51.5869 207.281C51.1941 206.946 50.9344 206.482 50.8552 205.973Z" fill="#0C1A3C"/>
<path d="M48.5753 210.793H40.9353L36.9353 185.453L30.5053 144.663C30.3559 143.725 30.4825 142.765 30.8696 141.899C31.2567 141.032 31.8876 140.297 32.6853 139.783L36.9353 137.033L40.7553 161.253L48.5753 210.793Z" fill="#0C1A3C"/>
<path d="M85.5453 150.113C85.5453 150.113 81.0653 148.113 78.0253 153.043C74.9853 157.973 76.4853 163.493 77.6653 169.573C78.8453 175.653 72.8753 180.123 72.6653 184.043C72.4553 187.963 77.4053 190.523 77.4053 190.523C77.4053 190.523 77.6553 201.443 94.5953 197.933C111.535 194.423 107.365 189.493 107.365 189.493C107.365 189.493 111.535 183.373 109.165 180.073C106.795 176.773 102.415 174.153 99.3853 167.303C96.3553 160.453 96.8153 147.123 85.5453 150.113Z" fill="#346E94"/>
<path d="M86.8353 170.503L87.9153 181.503L85.2053 183.893C85.2053 183.893 91.6953 190.073 95.0153 190.893C98.3353 191.713 99.3453 190.813 99.3453 190.813L99.6453 182.943L95.4753 180.943L92.5453 170.673L86.8353 170.503Z" fill="#65A4C5"/>
<path d="M92.5453 170.653L86.8353 170.503V170.803C86.9278 171.875 87.3959 172.88 88.1569 173.641C88.9179 174.402 89.923 174.87 90.9953 174.963C91.8844 175.075 92.7849 174.877 93.5453 174.403L92.5453 170.653Z" fill="#346E94"/>
<path d="M105.985 184.473L117.175 207.723H106.215L100.035 193.123L105.985 184.473Z" fill="white"/>
<path d="M107.605 207.723H84.6053L80.8053 201.033L78.2553 207.823H66.2053C66.2053 207.823 73.6253 188.603 73.7753 188.133C73.9253 187.663 86.1353 182.653 86.1353 182.653C86.1353 182.653 92.1353 188.283 97.1353 189.133C97.1353 189.133 98.5253 184.583 97.9053 181.883C97.9053 181.883 104.245 183.813 106.005 184.503C107.765 185.193 111.115 191.993 111.565 194.073C111.571 194.163 111.571 194.253 111.565 194.343C111.685 196.963 107.605 207.723 107.605 207.723Z" fill="white"/>
<g style="mix-blend-mode:multiply" opacity="0.3">
<path d="M107.605 207.723H84.6053L80.8053 201.033C80.2828 197.523 79.5684 194.044 78.6653 190.613C81.7253 194.823 87.9453 200.803 98.1753 199.713C105.675 198.923 109.555 196.573 111.555 194.343C111.685 196.963 107.605 207.723 107.605 207.723Z" fill="#326C92"/>
</g>
<path d="M85.6453 152.733C80.7653 152.983 80.7053 159.173 82.0453 164.423C83.3853 169.673 84.7753 172.353 89.8653 172.713C94.9553 173.073 94.2453 167.413 93.7253 163.553C93.2053 159.693 92.7553 152.373 85.6453 152.733Z" fill="#65A4C5"/>
<path d="M81.3753 163.343C83.7953 163.043 86.0249 161.878 87.6519 160.061C89.2788 158.245 90.193 155.901 90.2253 153.463C89.2473 152.483 87.9908 151.828 86.6271 151.588C85.2634 151.348 83.859 151.535 82.6053 152.123C77.9253 154.033 81.3753 163.343 81.3753 163.343Z" fill="#346E94"/>
<path d="M96.0252 18.0527H54.2153C52.5805 18.0527 51.2552 19.378 51.2552 21.0127V61.2227C51.2552 62.8575 52.5805 64.1827 54.2153 64.1827H96.0252C97.66 64.1827 98.9852 62.8575 98.9852 61.2227V21.0127C98.9852 19.378 97.66 18.0527 96.0252 18.0527Z" fill="#CB1C3E"/>
<path d="M172.995 75.8328L156.995 83.9128V96.6328C156.995 97.4709 156.662 98.2747 156.07 98.8673C155.477 99.4599 154.673 99.7928 153.835 99.7928H112.435C112.02 99.7942 111.608 99.7133 111.224 99.555C110.84 99.3967 110.492 99.1639 110.198 98.8702C109.904 98.5765 109.671 98.2277 109.513 97.8437C109.355 97.4597 109.274 97.0482 109.275 96.6328V56.8228C109.275 56.4079 109.357 55.9969 109.516 55.6136C109.675 55.2302 109.907 54.8818 110.201 54.5884C110.494 54.2949 110.843 54.0622 111.226 53.9034C111.609 53.7446 112.02 53.6628 112.435 53.6628H153.845C154.681 53.6681 155.48 54.003 156.07 54.5948C156.66 55.1866 156.993 55.9873 156.995 56.8228V74.5028H172.625C172.79 74.4856 172.955 74.5273 173.092 74.6204C173.229 74.7135 173.328 74.852 173.373 75.0114C173.417 75.1708 173.403 75.3408 173.334 75.4912C173.265 75.6416 173.145 75.7626 172.995 75.8328Z" fill="white"/>
<path d="M81.6052 82.6829H32.8352C28.9251 82.6829 25.7552 85.8527 25.7552 89.7629V117.373C25.7552 121.283 28.9251 124.453 32.8352 124.453H81.6052C85.5154 124.453 88.6852 121.283 88.6852 117.373V89.7629C88.6852 85.8527 85.5154 82.6829 81.6052 82.6829Z" fill="#FFAB2F"/>
<path d="M40.9352 210.793V216.573H178.975V210.793H48.5752H40.9352Z" fill="#0C1A3C"/>
<path d="M178.975 210.793H139.955V216.573H178.975V210.793Z" fill="#346E94"/>
</svg>
