<svg width="83" height="83" viewBox="0 0 83 83" fill="none" xmlns="http://www.w3.org/2000/svg">
<g clip-path="url(#clip0)">
<path d="M12.1164 53.1845C11.6465 54.1217 11.8296 55.2546 12.5698 55.9955L13.1644 56.5901C14.8824 54.5542 16.8847 52.3448 19.3132 49.917C19.4848 49.7454 19.6615 49.6624 19.8337 49.5041L16.0083 45.6781C13.7844 49.7004 12.4875 52.4487 12.1164 53.1845Z" fill="#EA526F"/>
<path d="M33.0684 63.6723C30.6342 66.1064 28.4306 68.1125 26.4061 69.8318L27.2116 70.6373C27.9588 71.3845 29.1024 71.5643 30.0428 71.0805C31.3023 70.4315 33.2831 69.4993 37.4878 67.1576L33.4819 63.1517C33.3236 63.3246 33.2407 63.5006 33.0684 63.6723Z" fill="#EA526F"/>
<path d="M31.7722 51.2164C30.0149 49.4592 25.0731 51.0347 22.7517 53.3555C14.9856 61.1215 11.4781 66.6276 9.90325 69.8786C9.45175 70.8101 9.63982 71.9252 10.3718 72.6573C11.1051 73.3912 12.2222 73.5774 13.1543 73.1259C16.3325 71.5827 21.7714 68.0916 29.6299 60.2337C32.1825 57.6799 33.442 52.8869 31.7741 51.2183L31.7722 51.2164Z" fill="#EA526F"/>
<path d="M7.59 32.375L0.712388 39.2526C-0.0652304 40.0302 -0.224807 41.234 0.326112 42.1876C0.863732 43.1286 1.98963 43.608 3.06107 43.3211C6.77819 42.3244 10.0489 41.9033 12.2513 42.4682C15.3846 36.8976 18.7515 31.7696 22.3173 27.1115C20.2548 25.7893 13.4392 26.5257 7.59 32.375Z" fill="#EA526F"/>
<path d="M41.1587 82.7392C42.0953 83.2128 43.2294 83.0298 43.9709 82.2877L50.8492 75.41C56.1741 70.0839 57.1113 63.2119 55.903 61.033C50.7079 64.9483 45.4451 68.2544 40.535 71.0223C40.8737 72.9353 40.6483 74.7914 39.8473 80.2119C39.6908 81.2612 40.2329 82.2763 41.1587 82.7392Z" fill="#EA526F"/>
<path d="M48.2763 24.3924C45.4324 27.2369 45.4324 31.864 48.2763 34.7085C51.1208 37.553 55.7485 37.553 58.593 34.7085C61.4375 31.864 61.4375 27.2369 58.593 24.3924C55.7485 21.5479 51.1208 21.5479 48.2763 24.3924Z" fill="#EA526F"/>
<path d="M82.8569 2.37203C82.7695 1.16951 81.8121 0.219012 80.6133 0.129092C74.6412 -0.320508 68.6926 0.41405 62.8617 2.19725C63.3005 6.20313 65.3725 10.5383 68.9098 14.0756C72.4895 17.6546 76.9424 19.726 81.0199 20.1135C82.5903 14.61 83.335 8.71582 82.8569 2.37203Z" fill="#EA526F"/>
<path d="M65.4713 17.5148C61.4249 13.4684 58.954 8.61525 58.1612 3.89001C43.5593 9.87856 29.5812 22.9562 18.5356 41.3278L24.0232 46.8154C27.7726 45.2931 32.3243 44.891 35.2113 47.7773C38.102 50.6687 37.6923 55.2185 36.1706 58.9629L41.8388 64.631C55.974 56.112 72.4306 42.6905 79.4285 24.8338C74.588 24.1024 69.5835 21.6271 65.4713 17.5148ZM62.0315 38.1477C57.2917 42.8875 49.5782 42.8875 44.8378 38.1477C40.0974 33.4072 40.0974 25.6931 44.8378 20.9533C49.5782 16.2135 57.2917 16.2135 62.0315 20.9533C66.772 25.6937 66.772 33.4072 62.0315 38.1477Z" fill="#EA526F"/>
</g>
<defs>
<clipPath id="clip0">
<rect width="83" height="83" fill="white"/>
</clipPath>
</defs>
</svg>
