<svg width="83" height="83" viewBox="0 0 83 83" fill="none" xmlns="http://www.w3.org/2000/svg">
<g clip-path="url(#clip0)">
<path d="M16.6473 53.6089C15.7291 53.1873 14.6501 53.3364 13.8772 53.9893L3.50246 62.7809C2.92666 63.2693 2.59467 63.984 2.59467 64.7346V80.1584C2.59467 81.5774 3.75664 82.7291 5.18835 82.7291H15.5631C16.9948 82.7291 18.1568 81.5774 18.1568 80.1584V55.943C18.1568 54.9405 17.5654 54.0305 16.6473 53.6089Z" fill="#EA526F"/>
<path d="M37.3968 35.9742C36.4838 35.5527 35.3996 35.7018 34.6267 36.3547L24.252 45.1463C23.6762 45.6347 23.3442 46.3494 23.3442 47.1V80.1584C23.3442 81.5774 24.5062 82.729 25.9379 82.729H36.3126C37.7443 82.729 38.9063 81.5774 38.9063 80.1584V38.3084C38.9063 37.3058 38.315 36.3907 37.3968 35.9742Z" fill="#EA526F"/>
<path d="M58.1463 18.3397C57.2281 17.9181 56.1492 18.0672 55.3762 18.7202L45.0015 27.5118C44.4257 28.0002 44.0937 28.7148 44.0937 29.4654V80.1584C44.0937 81.5774 45.2557 82.729 46.6874 82.729H57.0621C58.4938 82.729 59.6558 81.5774 59.6558 80.1584V20.6739C59.6558 19.6713 59.0696 18.7613 58.1463 18.3397Z" fill="#EA526F"/>
<path d="M78.8958 0.705111C77.9828 0.283527 76.8935 0.427482 76.1257 1.08557L65.751 9.87715C65.1752 10.3656 64.8432 11.0802 64.8432 11.8308V80.1584C64.8432 81.5774 66.0052 82.729 67.4369 82.729H77.8116C79.2434 82.729 80.4053 81.5774 80.4053 80.1584V3.03925C80.4053 2.0367 79.8192 1.12155 78.8958 0.705111Z" fill="#EA526F"/>
</g>
<defs>
<clipPath id="clip0">
<rect width="83" height="82.2623" fill="white" transform="translate(0 0.466675)"/>
</clipPath>
</defs>
</svg>
