<svg width="101" height="77" viewBox="0 0 101 77" fill="none" xmlns="http://www.w3.org/2000/svg">
<g clip-path="url(#clip0)">
<path d="M92.3328 53.4144C92.3328 53.1069 92.3602 52.7947 92.3602 52.4963C92.356 50.0759 91.7841 47.6905 90.6907 45.5328C89.5974 43.3752 88.0134 41.5058 86.0667 40.0758C84.1199 38.6458 81.8651 37.6953 79.4844 37.3012C77.1038 36.9071 74.6641 37.0803 72.3625 37.8069C72.3625 37.7518 72.3625 37.6968 72.3625 37.6463C72.3737 33.1132 70.7763 28.7242 67.8561 25.2647C64.9359 21.8053 60.8837 19.5013 56.4248 18.7652C51.9658 18.0291 47.3912 18.909 43.5199 21.2473C39.6486 23.5856 36.7333 27.2296 35.2958 31.5272C32.8632 30.0659 30.0615 29.3405 27.2277 29.4385C24.3939 29.5364 21.6487 30.4535 19.3221 32.0794C16.9955 33.7053 15.1867 35.9707 14.1132 38.6033C13.0397 41.2359 12.7472 44.1235 13.2708 46.9189C9.60272 47.4738 6.2785 49.3969 3.96265 52.3038C1.64679 55.2107 0.509935 58.8873 0.779324 62.5986C1.04871 66.3099 2.7045 69.7825 5.4157 72.3223C8.12691 74.862 11.6938 76.2818 15.4033 76.2978H88.5758C91.3556 76.2982 94.045 75.3075 96.1639 73.5026C98.2827 71.6976 99.693 69.1959 100.143 66.4442C100.593 63.6924 100.053 60.8699 98.6197 58.4806C97.1865 56.0913 94.9534 54.2908 92.3191 53.4006L92.3328 53.4144Z" stroke="white" stroke-width="3" stroke-miterlimit="10"/>
<path d="M23.3109 30.0857L15.9021 23.4801V11.5955" stroke="white" stroke-width="3" stroke-miterlimit="10"/>
<path d="M55.0464 18.527V9.77759" stroke="white" stroke-width="3" stroke-miterlimit="10"/>
<path d="M82.6314 38.1375V33.3818L89.3766 30.2649V14.1846" stroke="white" stroke-width="3" stroke-miterlimit="10"/>
<path d="M15.9021 11.5954C18.3587 11.5954 20.3501 9.59778 20.3501 7.13354C20.3501 4.66929 18.3587 2.67163 15.9021 2.67163C13.4455 2.67163 11.4541 4.66929 11.4541 7.13354C11.4541 9.59778 13.4455 11.5954 15.9021 11.5954Z" stroke="white" stroke-width="3" stroke-miterlimit="10"/>
<path d="M55.0464 9.61241C57.503 9.61241 59.4944 7.61475 59.4944 5.1505C59.4944 2.68626 57.503 0.688599 55.0464 0.688599C52.5898 0.688599 50.5984 2.68626 50.5984 5.1505C50.5984 7.61475 52.5898 9.61241 55.0464 9.61241Z" stroke="white" stroke-width="3" stroke-miterlimit="10"/>
<path d="M89.3766 14.3314C91.8332 14.3314 93.8246 12.3337 93.8246 9.8695C93.8246 7.40526 91.8332 5.40759 89.3766 5.40759C86.92 5.40759 84.9286 7.40526 84.9286 9.8695C84.9286 12.3337 86.92 14.3314 89.3766 14.3314Z" stroke="white" stroke-width="3" stroke-miterlimit="10"/>
<path d="M62.7273 37C60.9224 37 59.4545 38.4678 59.4545 40.2727C59.4545 40.8373 59.598 41.3685 59.8505 41.8327L54.4893 47.194C53.7502 46.6185 52.8251 46.2727 51.8182 46.2727C50.8113 46.2727 49.8862 46.6185 49.1465 47.1935L44.9635 43.0104C45.1555 42.6858 45.2727 42.3127 45.2727 41.9091C45.2727 40.7058 44.2942 39.7273 43.0909 39.7273C41.8876 39.7273 40.9091 40.7058 40.9091 41.9091C40.9091 43.1124 41.8876 44.0909 43.0909 44.0909C43.4945 44.0909 43.8676 43.9736 44.1922 43.7816L48.3753 47.9647C47.8004 48.7044 47.4545 49.6295 47.4545 50.6364C47.4545 51.6433 47.8004 52.5684 48.3753 53.3075L41.4676 60.2156C40.8862 59.6882 40.1176 59.3636 39.2727 59.3636C37.4678 59.3636 36 60.8315 36 62.6364C36 64.4413 37.4678 65.9091 39.2727 65.9091C41.0776 65.9091 42.5455 64.4413 42.5455 62.6364C42.5455 62.0718 42.402 61.5405 42.1495 61.0764L49.1471 54.0787C49.7504 54.5478 50.478 54.862 51.2733 54.9618V60.5036C49.728 60.7644 48.546 62.1084 48.546 63.7273C48.546 65.5322 50.0138 67 51.8187 67C53.6236 67 55.0915 65.5322 55.0915 63.7273C55.0915 62.1089 53.9095 60.7649 52.3642 60.5036V54.9618C53.1595 54.862 53.8871 54.5478 54.4904 54.0787L58.6735 58.2618C58.4809 58.5869 58.3636 58.96 58.3636 59.3636C58.3636 60.5669 59.3422 61.5455 60.5455 61.5455C61.7487 61.5455 62.7273 60.5669 62.7273 59.3636C62.7273 58.1604 61.7487 57.1818 60.5455 57.1818C60.1418 57.1818 59.7687 57.2991 59.4442 57.4911L55.2611 53.308C55.836 52.5684 56.1818 51.6433 56.1818 50.6364C56.1818 49.6295 55.836 48.7044 55.2611 47.9653L60.5329 42.6935C61.1138 43.2209 61.8824 43.5455 62.7273 43.5455C64.5322 43.5455 66 42.0776 66 40.2727C66 38.4678 64.5322 37 62.7273 37ZM42 41.9091C42 41.3075 42.4893 40.8182 43.0909 40.8182C43.6925 40.8182 44.1818 41.3075 44.1818 41.9091C44.1818 42.5107 43.6925 43 43.0909 43C42.4893 43 42 42.5107 42 41.9091ZM39.2727 64.8182C38.0695 64.8182 37.0909 63.8396 37.0909 62.6364C37.0909 61.4331 38.0695 60.4545 39.2727 60.4545C40.476 60.4545 41.4545 61.4331 41.4545 62.6364C41.4545 63.8396 40.476 64.8182 39.2727 64.8182ZM54 63.7273C54 64.9305 53.0215 65.9091 51.8182 65.9091C50.6149 65.9091 49.6364 64.9305 49.6364 63.7273C49.6364 62.524 50.6149 61.5455 51.8182 61.5455C53.0215 61.5455 54 62.524 54 63.7273ZM51.8182 53.9091C50.0133 53.9091 48.5455 52.4413 48.5455 50.6364C48.5455 48.8315 50.0133 47.3636 51.8182 47.3636C53.6231 47.3636 55.0909 48.8315 55.0909 50.6364C55.0909 52.4413 53.6231 53.9091 51.8182 53.9091ZM61.6364 59.3636C61.6364 59.9653 61.1471 60.4545 60.5455 60.4545C59.9438 60.4545 59.4545 59.9653 59.4545 59.3636C59.4545 58.762 59.9438 58.2727 60.5455 58.2727C61.1471 58.2727 61.6364 58.762 61.6364 59.3636ZM62.7273 42.4545C61.524 42.4545 60.5455 41.476 60.5455 40.2727C60.5455 39.0695 61.524 38.0909 62.7273 38.0909C63.9305 38.0909 64.9091 39.0695 64.9091 40.2727C64.9091 41.476 63.9305 42.4545 62.7273 42.4545Z" fill="white"/>
</g>
<defs>
<clipPath id="clip0">
<rect width="101" height="77" fill="white"/>
</clipPath>
</defs>
</svg>
