<svg width="348" height="194" viewBox="0 0 348 194" fill="none" xmlns="http://www.w3.org/2000/svg">
<path d="M28.8862 193.554C28.8862 193.554 37.8862 176.864 22.1362 159.084C6.38621 141.304 9.38621 109.294 39.8862 109.544C70.3862 109.794 68.6362 93.3039 58.3862 82.3039C48.1362 71.3039 65.1362 44.0539 91.3862 43.8039C117.636 43.5539 129.446 54.2239 146.886 71.5539C163.506 88.0939 181.636 66.8039 187.006 39.5539C192.376 12.3039 238.076 -10.1961 266.606 4.8039C295.136 19.8039 277.356 45.4939 294.446 55.2339C304.886 61.2339 326.386 59.6039 340.636 78.0839C354.886 96.5639 346.636 129.364 320.886 153.964C295.136 178.564 303.636 193.554 303.636 193.554H28.8862Z" fill="#65A4C5"/>
<path d="M231.046 42.8838V81.4638C231.046 82.5247 230.625 83.5421 229.875 84.2922C229.124 85.0424 228.107 85.4638 227.046 85.4638H188.466C187.405 85.4638 186.388 85.0424 185.638 84.2922C184.888 83.5421 184.466 82.5247 184.466 81.4638V42.8838C184.461 42.7905 184.461 42.6971 184.466 42.6038C184.537 41.5922 184.99 40.6453 185.732 39.9547C186.475 39.2641 187.452 38.8813 188.466 38.8838H227.046C228.107 38.8838 229.124 39.3052 229.875 40.0554C230.625 40.8055 231.046 41.8229 231.046 42.8838Z" fill="white"/>
<g style="mix-blend-mode:multiply" opacity="0.3">
<path d="M231.046 74.404V81.464C231.046 82.5249 230.625 83.5423 229.875 84.2924C229.124 85.0426 228.107 85.464 227.046 85.464H188.466C187.405 85.464 186.388 85.0426 185.638 84.2924C184.888 83.5423 184.466 82.5249 184.466 81.464V49.254C184.471 47.492 185.174 45.8036 186.42 44.5576C187.666 43.3116 189.354 42.6093 191.116 42.604H198.326C200.364 42.6004 202.349 43.2501 203.991 44.4578C205.632 45.6655 206.843 47.3675 207.446 49.314C209.896 57.204 216.056 69.814 231.046 74.404Z" fill="#326C92"/>
</g>
<path d="M223.976 45.0239H191.536C191.023 45.0239 190.606 45.4403 190.606 45.9539V78.3939C190.606 78.9076 191.023 79.3239 191.536 79.3239H223.976C224.49 79.3239 224.906 78.9076 224.906 78.3939V45.9539C224.906 45.4403 224.49 45.0239 223.976 45.0239Z" fill="#346E94"/>
<g opacity="0.4">
<path opacity="0.3" d="M206.936 45.0239L190.596 61.3639V50.6339L196.836 45.0239H206.936Z" fill="white"/>
<path opacity="0.3" d="M224.896 67.5039V78.3939C224.896 78.6406 224.798 78.8771 224.624 79.0515C224.449 79.2259 224.213 79.3239 223.966 79.3239H213.076L224.896 67.5039Z" fill="white"/>
<path opacity="0.2" d="M224.896 46.0039V60.5439L206.116 79.3239H191.546C191.299 79.3239 191.061 79.2263 190.885 79.0521C190.709 78.878 190.609 78.6415 190.606 78.3939V70.6239L216.196 45.0039H223.996C224.122 45.0062 224.247 45.0344 224.362 45.0867C224.476 45.1391 224.579 45.2145 224.664 45.3083C224.748 45.4021 224.812 45.5123 224.852 45.6319C224.892 45.7516 224.907 45.8782 224.896 46.0039Z" fill="white"/>
</g>
<path d="M288.196 16.7139V55.2939C288.196 56.3547 287.775 57.3722 287.025 58.1223C286.275 58.8725 285.257 59.2939 284.196 59.2939H245.616C244.555 59.2939 243.538 58.8725 242.788 58.1223C242.038 57.3722 241.616 56.3547 241.616 55.2939V16.7139C241.611 16.6206 241.611 16.5271 241.616 16.4339C241.687 15.4223 242.14 14.4754 242.882 13.7848C243.625 13.0942 244.602 12.7114 245.616 12.7139H284.196C285.257 12.7139 286.275 13.1353 287.025 13.8855C287.775 14.6356 288.196 15.653 288.196 16.7139Z" fill="white"/>
<g style="mix-blend-mode:multiply" opacity="0.3">
<path d="M288.196 48.2338V55.2938C288.196 56.3547 287.775 57.3721 287.025 58.1223C286.275 58.8724 285.257 59.2938 284.196 59.2938H245.616C244.555 59.2938 243.538 58.8724 242.788 58.1223C242.038 57.3721 241.616 56.3547 241.616 55.2938V25.7038C241.621 23.2486 242.598 20.8954 244.334 19.1583C246.069 17.4213 248.421 16.4418 250.876 16.4338H258.466C259.715 16.4316 260.928 16.8466 261.914 17.613C262.9 18.3794 263.601 19.4532 263.906 20.6638C265.756 28.0738 271.506 43.1238 288.196 48.2338Z" fill="#326C92"/>
</g>
<path d="M281.126 18.854H248.686C248.173 18.854 247.756 19.2704 247.756 19.784V52.224C247.756 52.7376 248.173 53.154 248.686 53.154H281.126C281.64 53.154 282.056 52.7376 282.056 52.224V19.784C282.056 19.2704 281.64 18.854 281.126 18.854Z" fill="#346E94"/>
<g opacity="0.4">
<path opacity="0.3" d="M264.086 18.8538L247.746 35.1938V25.2038L254.256 18.8538H264.086Z" fill="white"/>
<path opacity="0.3" d="M282.046 41.3337V52.2237C282.046 52.4704 281.948 52.7069 281.774 52.8813C281.599 53.0558 281.363 53.1537 281.116 53.1537H270.226L282.046 41.3337Z" fill="white"/>
<path opacity="0.2" d="M282.046 19.7838V34.3738L263.266 53.1538H248.696C248.451 53.1421 248.219 53.041 248.044 52.8695C247.869 52.6981 247.763 52.4683 247.746 52.2238V44.4538L273.346 18.8538H281.116C281.239 18.8525 281.36 18.8756 281.474 18.9219C281.587 18.9681 281.69 19.0366 281.777 19.1232C281.863 19.2098 281.932 19.3129 281.978 19.4263C282.024 19.5398 282.048 19.6613 282.046 19.7838Z" fill="white"/>
</g>
<path d="M308.056 150.464C308.056 150.464 300.886 139.804 314.636 132.684C328.386 125.564 345.136 129.864 345.136 129.864C345.136 129.864 331.606 168.754 308.056 150.464Z" fill="#346E94"/>
<path d="M294.566 170.654C295.79 167.249 297.348 163.973 299.216 160.874C301.056 157.814 303.172 154.929 305.536 152.254C306.686 150.894 307.986 149.674 309.246 148.434C309.906 147.834 310.596 147.274 311.246 146.704L312.246 145.844L313.326 145.074C316.165 142.98 319.231 141.212 322.466 139.804C319.362 141.426 316.451 143.391 313.786 145.664L312.786 146.494L311.856 147.404C311.236 148.014 310.596 148.604 309.996 149.234C308.846 150.534 307.676 151.804 306.656 153.234C304.552 155.973 302.708 158.903 301.146 161.984C299.593 165.02 298.343 168.202 297.416 171.484V171.564C297.373 171.763 297.289 171.951 297.171 172.116C297.052 172.282 296.902 172.421 296.728 172.527C296.554 172.632 296.36 172.701 296.158 172.729C295.957 172.757 295.752 172.744 295.555 172.69C295.359 172.637 295.176 172.544 295.017 172.417C294.857 172.29 294.726 172.132 294.629 171.953C294.533 171.774 294.474 171.577 294.457 171.374C294.439 171.171 294.463 170.967 294.526 170.774C294.533 170.732 294.546 170.691 294.566 170.654Z" fill="#0C1A3C"/>
<path d="M286.396 144.444C286.396 144.444 299.536 137.314 292.086 123.744C284.636 110.174 267.086 106.684 267.086 106.684C267.086 106.684 246.336 147.864 286.396 144.444Z" fill="#346E94"/>
<path d="M286.886 172.064C287.221 168.314 287.344 164.548 287.256 160.784C287.174 156.992 286.897 153.207 286.426 149.444C285.952 145.673 285.227 141.938 284.256 138.264C283.259 134.585 281.948 130.998 280.336 127.544C282.183 130.909 283.742 134.425 284.996 138.054C286.218 141.702 287.197 145.427 287.926 149.204C288.655 152.994 289.189 156.819 289.526 160.664C289.871 164.534 289.994 168.42 289.896 172.304C289.884 172.702 289.715 173.079 289.425 173.351C289.135 173.624 288.749 173.771 288.351 173.759C287.953 173.747 287.577 173.578 287.304 173.288C287.031 172.998 286.884 172.612 286.896 172.214C286.892 172.181 286.892 172.147 286.896 172.114L286.886 172.064Z" fill="#0C1A3C"/>
<path d="M301.196 129.004C298.473 126.38 296.715 122.914 296.205 119.167C295.695 115.42 296.464 111.61 298.386 108.354C305.006 96.1039 318.506 91.8539 332.506 91.2339C332.506 91.2339 334.636 108.354 325.006 119.234C315.376 130.114 301.196 129.004 301.196 129.004Z" fill="#0C1A3C"/>
<path d="M327.136 96.1838C321.482 100.431 316.482 105.485 312.296 111.184C305.989 119.654 301.248 129.184 298.296 139.324C297.766 140.994 297.396 142.714 296.946 144.404C296.496 146.094 296.176 147.814 295.946 149.544C294.756 156.437 294.247 163.431 294.426 170.424C294.437 170.822 294.289 171.207 294.015 171.496C293.741 171.785 293.364 171.953 292.966 171.964C292.568 171.974 292.183 171.827 291.894 171.553C291.605 171.279 291.437 170.902 291.426 170.504V170.444C291.493 163.275 292.267 156.131 293.736 149.114C294.066 147.354 294.556 145.634 294.976 143.894C295.396 142.154 295.976 140.454 296.536 138.764C297.654 135.375 298.973 132.056 300.486 128.824C303.492 122.357 307.273 116.279 311.746 110.724C316.136 105.149 321.321 100.25 327.136 96.1838Z" fill="#346E94"/>
<path d="M311.996 172.934H276.886C276.388 172.934 275.909 172.736 275.557 172.383C275.204 172.031 275.006 171.552 275.006 171.054C275.009 170.557 275.208 170.081 275.56 169.731C275.913 169.381 276.389 169.184 276.886 169.184H311.996C312.493 169.184 312.97 169.381 313.322 169.731C313.674 170.081 313.874 170.557 313.876 171.054C313.876 171.552 313.678 172.031 313.326 172.383C312.973 172.736 312.495 172.934 311.996 172.934Z" fill="#0C1A3C"/>
<path d="M293.996 172.934H276.886C276.388 172.934 275.909 172.736 275.557 172.383C275.204 172.031 275.006 171.552 275.006 171.054C275.009 170.557 275.208 170.081 275.56 169.731C275.913 169.381 276.389 169.184 276.886 169.184H293.996V172.934Z" fill="#346E94"/>
<path d="M311.886 172.934H277.006V193.564H311.886V172.934Z" fill="#FFAB2F"/>
<path d="M293.966 172.934H277.006V193.554H296.026L293.966 172.934Z" fill="#EA8000"/>
<path d="M234.336 145.574C232.896 146.574 231.886 147.224 231.886 147.224C231.886 147.224 198.636 174.554 191.256 176.304C183.876 178.054 165.516 140.934 165.516 140.934L182.276 131.554L191.116 147.424L194.386 153.304L225.256 139.054L228.436 141.344L234.336 145.574Z" fill="#FF8B61"/>
<path opacity="0.7" d="M234.336 145.574C232.896 146.574 231.886 147.224 231.886 147.224C231.886 147.224 198.636 174.554 191.256 176.304C183.876 178.054 165.516 140.934 165.516 140.934L182.276 131.554L191.116 147.424L189.116 151.094C188.459 152.302 188.136 153.663 188.18 155.038C188.224 156.412 188.634 157.75 189.366 158.914L189.556 159.224C190.121 160.122 190.864 160.894 191.739 161.494C192.614 162.093 193.602 162.507 194.644 162.709C195.685 162.912 196.756 162.898 197.792 162.671C198.828 162.443 199.806 162.005 200.666 161.384L228.426 141.384L234.336 145.574Z" fill="#F9591A"/>
<path d="M159.996 94.8938C159.996 94.8938 166.666 98.0538 173.996 110.724C181.326 123.394 186.166 131.894 186.166 131.894C186.166 131.894 179.306 139.654 164.566 143.684C164.566 143.684 155.626 117.894 153.646 110.224C151.666 102.554 159.996 94.8938 159.996 94.8938Z" fill="white"/>
<g style="mix-blend-mode:multiply" opacity="0.3">
<path d="M157.716 97.364C155.406 100.244 152.326 105.234 153.616 110.224C155.526 117.614 163.896 141.824 164.496 143.574C176.346 139.374 181.926 133.104 181.926 133.104C181.926 133.104 177.086 124.604 169.756 111.934C164.836 103.434 160.226 99.224 157.716 97.364Z" fill="#326C92"/>
</g>
<path d="M146.386 117.054C129.886 118.884 122.136 92.1339 122.136 92.1339C122.136 92.1339 130.556 91.554 133.386 87.724C134.71 85.5181 135.641 83.0987 136.136 80.574C136.745 78.0106 137.219 75.4171 137.556 72.804L137.136 68.3839L138.716 64.054L151.716 82.1339C151.716 82.1339 149.466 90.8039 150.966 92.3839L151.066 92.474C152.666 94.004 157.306 94.6339 157.306 94.6339C157.306 94.6339 162.886 115.224 146.386 117.054Z" fill="#FF8B61"/>
<path d="M150.996 92.3839L151.096 92.474C142.096 91.034 137.946 85.924 136.166 80.574C136.775 78.0106 137.249 75.4171 137.586 72.804L137.166 68.3839L138.746 64.054L151.746 82.1339C151.746 82.1339 149.466 90.8039 150.996 92.3839Z" fill="#F9591A"/>
<path d="M168.996 129.174C168.996 129.784 168.996 130.414 168.996 131.064C168.756 152.564 166.636 193.554 166.636 193.554H92.8862C92.3153 177.758 92.5623 161.944 93.6262 146.174C94.9462 127.764 97.7962 108.074 103.756 95.304L126.306 90.604C126.306 90.604 131.556 111.804 145.306 111.804C159.056 111.804 155.076 93.554 155.076 93.554L159.996 94.884C159.996 94.884 169.136 108.304 168.996 129.174Z" fill="#CB1C3E"/>
<path d="M139.476 137.004C137.446 137.414 135.351 137.363 133.343 136.856C131.335 136.35 129.467 135.4 127.874 134.076C126.282 132.752 125.006 131.088 124.142 129.207C123.277 127.326 122.844 125.274 122.876 123.204C123.028 118.225 122.78 113.243 122.136 108.304C120.136 95.8839 110.716 96.6539 110.716 96.6539C113.896 98.8339 114.516 103.444 113.636 109.744C113.226 112.634 112.526 117.244 111.756 122.254L109.116 143.094L93.6262 146.194C92.5623 161.964 92.3153 177.778 92.8862 193.574H166.636C166.636 193.574 168.756 152.574 168.996 131.084L139.476 137.004Z" fill="#99162B"/>
<path d="M253.906 107.814L174.316 130.444L178.856 145.524L257.726 120.504L253.906 107.814Z" fill="#0C1A3C"/>
<path d="M179.996 153.004C178.052 159.915 173.578 165.841 167.463 169.602C161.348 173.364 154.041 174.685 146.996 173.304C145.131 172.915 143.191 173.102 141.434 173.839C139.677 174.577 138.185 175.83 137.156 177.434C133.68 182.869 128.765 187.234 122.957 190.043C117.149 192.852 110.675 193.994 104.256 193.344C97.8375 192.694 91.7248 190.276 86.5978 186.36C81.4708 182.444 77.5305 177.182 75.215 171.16C72.8995 165.138 72.2996 158.592 73.482 152.25C74.6643 145.907 77.5825 140.017 81.9123 135.234C86.242 130.451 91.8134 126.962 98.0072 125.156C104.201 123.35 110.774 123.298 116.996 125.004C118.649 125.46 120.266 126.035 121.836 126.724C123.587 127.506 125.534 127.742 127.421 127.401C129.308 127.06 131.049 126.159 132.416 124.814C136.912 120.375 142.751 117.55 149.022 116.781C155.293 116.011 161.642 117.34 167.077 120.561C172.512 123.781 176.728 128.711 179.065 134.581C181.403 140.45 181.73 146.929 179.996 153.004Z" fill="#65A4C5"/>
<path d="M172.746 143.614C174.145 144.522 175.348 145.702 176.283 147.083C177.219 148.464 177.868 150.018 178.192 151.654C178.517 153.29 178.51 154.975 178.172 156.608C177.834 158.241 177.173 159.791 176.226 161.164C173.103 165.855 168.659 169.513 163.455 171.676C158.252 173.839 152.524 174.409 146.996 173.314C145.131 172.925 143.191 173.112 141.434 173.849C139.677 174.587 138.185 175.84 137.156 177.444C133.679 182.878 128.763 187.241 122.955 190.048C117.147 192.855 110.674 193.996 104.256 193.345C97.8377 192.694 91.7259 190.276 86.5999 186.359C81.4739 182.442 77.5345 177.181 75.2197 171.16C72.9048 165.138 72.3052 158.593 73.4875 152.251C74.6697 145.909 77.5875 140.02 81.9166 135.237C86.2456 130.454 91.8162 126.965 98.0091 125.159C104.202 123.352 110.775 123.299 116.996 125.004L115.676 140.294C115.482 142.519 115.81 144.759 116.631 146.836C117.453 148.914 118.748 150.771 120.412 152.261C122.076 153.751 124.064 154.834 126.218 155.423C128.373 156.012 130.636 156.091 132.826 155.654L141.576 153.914L162.706 142.124C166.118 141.271 169.729 141.806 172.746 143.614Z" fill="#346E94"/>
<path d="M161.874 150.254C164.654 145.083 162.715 138.637 157.544 135.858C152.373 133.078 145.928 135.017 143.148 140.188C140.369 145.359 142.307 151.804 147.478 154.584C152.649 157.363 159.095 155.425 161.874 150.254Z" fill="#0C1A3C"/>
<path d="M113.256 169.604L106.566 171.614L104.706 165.424L99.6262 148.554L106.316 146.544L108.126 152.574L113.256 169.604Z" fill="#65A4C5"/>
<g style="mix-blend-mode:multiply" opacity="0.3">
<path d="M108.126 152.574L104.706 165.424L99.6262 148.554L106.316 146.544L108.126 152.574Z" fill="#326C92"/>
</g>
<path d="M278.086 107.454C278.479 108.737 278.793 110.043 279.026 111.364C279.148 112.152 279.111 112.955 278.919 113.729C278.726 114.502 278.381 115.229 277.905 115.868C277.428 116.506 276.829 117.044 276.143 117.448C275.456 117.853 274.696 118.116 273.906 118.224L257.726 120.504C254.726 116.244 253.056 112.004 253.916 107.814L268.656 100.814C269.391 100.459 270.191 100.258 271.006 100.222C271.822 100.187 272.636 100.319 273.399 100.609C274.162 100.899 274.857 101.342 275.443 101.91C276.029 102.478 276.493 103.16 276.806 103.914C277.298 105.07 277.725 106.251 278.086 107.454Z" fill="#0C1A3C"/>
<path d="M261.046 101.844L262.146 104.994" stroke="#0C1A3C" stroke-miterlimit="10"/>
<path d="M266.506 99.2739L267.646 102.554" stroke="#0C1A3C" stroke-miterlimit="10"/>
<path d="M255.226 104.374L256.526 107.814" stroke="#0C1A3C" stroke-miterlimit="10"/>
<path d="M256.266 105.314L255.106 105.774C254.797 105.892 254.454 105.884 254.151 105.751C253.848 105.618 253.609 105.371 253.486 105.064C253.425 104.912 253.394 104.749 253.396 104.585C253.398 104.42 253.433 104.258 253.498 104.108C253.563 103.957 253.657 103.821 253.775 103.707C253.894 103.593 254.033 103.503 254.186 103.444L255.356 102.984C255.665 102.866 256.009 102.874 256.312 103.007C256.615 103.14 256.854 103.386 256.976 103.694C257.094 104.003 257.086 104.346 256.953 104.649C256.82 104.953 256.574 105.191 256.266 105.314Z" fill="#346E94"/>
<path d="M262.086 102.774L260.926 103.234C260.773 103.294 260.61 103.323 260.446 103.319C260.281 103.316 260.12 103.281 259.969 103.215C259.819 103.149 259.683 103.054 259.569 102.935C259.455 102.817 259.366 102.677 259.306 102.524C259.185 102.216 259.19 101.873 259.322 101.569C259.453 101.266 259.699 101.026 260.006 100.904L261.176 100.444C261.485 100.326 261.829 100.334 262.132 100.467C262.435 100.6 262.674 100.846 262.796 101.154C262.856 101.307 262.885 101.47 262.882 101.634C262.879 101.799 262.843 101.961 262.777 102.111C262.711 102.261 262.616 102.397 262.498 102.511C262.379 102.625 262.239 102.714 262.086 102.774Z" fill="#346E94"/>
<path d="M267.606 100.134L266.476 100.664C266.329 100.735 266.168 100.776 266.005 100.785C265.841 100.793 265.678 100.77 265.523 100.715C265.369 100.66 265.227 100.575 265.106 100.465C264.984 100.355 264.886 100.222 264.816 100.074C264.745 99.9249 264.705 99.7634 264.696 99.5986C264.688 99.4339 264.713 99.2691 264.768 99.1139C264.824 98.9587 264.91 98.816 265.021 98.6941C265.133 98.5723 265.267 98.4736 265.416 98.4038L266.546 97.8738C266.846 97.7338 267.189 97.7183 267.5 97.8308C267.811 97.9433 268.065 98.1745 268.206 98.4738C268.346 98.7736 268.362 99.1167 268.249 99.4278C268.137 99.739 267.906 99.9929 267.606 100.134Z" fill="#346E94"/>
<path d="M184.446 127.564L188.896 142.344L187.346 142.834L182.886 128.004L184.446 127.564Z" fill="#346E94"/>
<path d="M193.406 125.024L197.766 139.524L196.216 140.014L191.846 125.464L193.406 125.024Z" fill="#346E94"/>
<path d="M202.366 122.464L206.656 136.704L205.096 137.194L200.806 122.914L202.366 122.464Z" fill="#346E94"/>
<path d="M211.326 119.924L215.526 133.894L213.966 134.384L209.756 120.374L211.326 119.924Z" fill="#346E94"/>
<path d="M220.276 117.374L224.406 131.074L222.846 131.564L218.716 117.824L220.276 117.374Z" fill="#346E94"/>
<path d="M229.236 114.824L233.276 128.264L231.716 128.754L227.666 115.274L229.236 114.824Z" fill="#346E94"/>
<path d="M238.196 112.284L242.156 125.444L240.596 125.934L236.626 112.724L238.196 112.284Z" fill="#346E94"/>
<path d="M247.146 109.734L251.026 122.634L249.476 123.114L245.586 110.184L247.146 109.734Z" fill="#346E94"/>
<path d="M243.996 137.934C243.296 139.324 237.656 143.304 234.316 145.574C229.736 145.814 225.736 145.484 225.136 141.884C224.994 140.943 225.028 139.983 225.236 139.054C224.587 135.461 224.213 131.824 224.116 128.174C224.236 124.304 229.736 120.014 232.236 119.284C234.736 118.554 238.116 126.804 238.116 126.804C238.116 126.804 236.866 121.674 236.116 118.434C235.366 115.194 239.616 116.534 241.116 121.234C242.326 125.044 244.116 132.344 244.226 136.024C244.292 136.67 244.214 137.322 243.996 137.934Z" fill="#FF8B61"/>
<path opacity="0.7" d="M243.996 137.934C243.296 139.324 237.656 143.304 234.316 145.574C229.736 145.814 227.376 146.744 225.656 143.344C226.002 142.942 226.285 142.49 226.496 142.004C227.108 140.699 228.077 139.594 229.291 138.817C230.506 138.04 231.915 137.623 233.356 137.614C237.044 137.6 240.712 137.058 244.246 136.004C244.309 136.658 244.224 137.318 243.996 137.934Z" fill="#F9591A"/>
<path d="M162.306 150.004C162.306 150.004 163.386 152.834 163.056 154.414C162.726 155.994 160.716 157.254 160.716 157.254C160.716 157.254 160.816 159.254 160.716 160.724C160.706 161.123 160.666 161.521 160.596 161.914C160.346 163.084 158.096 165.084 158.096 165.084C158.096 165.084 158.016 168.504 156.016 169.504C154.016 170.504 142.346 172.084 142.346 172.084C106.976 197.464 81.4762 195.464 79.2662 188.584C77.0562 181.704 80.8462 144.834 80.8462 144.834L103.766 146.164L102.926 152.164L100.516 169.464L139.766 159.874C139.766 159.874 144.426 147.464 147.346 146.374C148.082 146.029 148.899 145.894 149.706 145.982C150.514 146.07 151.282 146.379 151.926 146.874C151.926 146.874 157.846 144.214 159.846 143.044C161.846 141.874 164.596 142.294 164.676 144.464C164.756 146.634 162.306 150.004 162.306 150.004Z" fill="#FF8B61"/>
<path opacity="0.7" d="M160.756 160.694C160.746 161.093 160.706 161.491 160.636 161.884C160.386 163.054 158.136 165.054 158.136 165.054C158.136 165.054 158.056 168.474 156.056 169.474C154.056 170.474 142.386 172.054 142.386 172.054C107.016 197.434 81.5162 195.434 79.3062 188.554C77.0962 181.674 80.8862 144.804 80.8862 144.804L103.806 146.134L102.966 152.134H94.0562C92.0023 152.133 90.0203 152.89 88.4891 154.259C86.9579 155.628 85.985 157.513 85.7562 159.554C84.7562 168.464 83.4162 182.364 84.5162 183.634C90.6362 190.764 132.756 172.514 140.516 167.894C140.506 167.934 153.666 167.064 160.756 160.694Z" fill="#F9591A"/>
<path d="M113.636 109.724C112.456 118.134 108.796 141.064 107.976 146.194L107.806 147.194H79.3062C82.8562 119.314 92.5762 102.614 99.6062 97.1938C100.783 96.1774 102.22 95.5091 103.756 95.2638C112.886 94.5538 114.996 100.224 113.636 109.724Z" fill="white"/>
<g style="mix-blend-mode:multiply" opacity="0.3">
<path d="M107.996 146.194L107.826 147.194H79.3062C82.8562 119.314 92.5762 102.614 99.6062 97.1938C92.6062 109.904 89.3862 136.194 107.996 146.194Z" fill="#326C92"/>
</g>
<path d="M170.306 67.554C167.816 81.884 162.626 87.454 157.236 88.034C155.369 88.196 153.493 87.8505 151.806 87.034C144.806 83.864 138.806 78.364 138.636 65.204C138.496 54.434 139.806 40.774 150.496 37.204C153.287 36.3288 156.233 36.0594 159.136 36.414C170.266 37.484 173.636 48.384 170.306 67.554Z" fill="#FF8B61"/>
<path opacity="0.7" d="M157.236 88.0038C155.369 88.1658 153.493 87.8203 151.806 87.0038C144.806 83.8338 138.806 78.3338 138.636 65.1738C138.496 54.4038 139.806 40.7438 150.496 37.1738C146.566 48.8738 138.286 79.8038 157.236 88.0038Z" fill="#F9591A"/>
<path d="M179.466 49.804C173.466 52.724 167.716 48.384 167.716 48.384C167.716 48.384 166.556 50.884 161.056 49.634C157.384 48.7396 153.81 47.4834 150.386 45.884C150.636 52.804 143.806 58.474 143.806 58.474V63.474H138.626L137.556 72.854C125.116 64.934 123.416 50.564 125.996 41.934C126.494 40.1234 127.336 38.4258 128.476 36.934C133.726 30.524 142.226 33.354 142.226 33.354C142.226 33.354 145.226 29.024 157.726 28.524C170.226 28.024 175.316 36.304 175.316 36.304C176.685 36.5702 177.947 37.2306 178.946 38.204C182.416 41.364 184.046 47.574 179.466 49.804Z" fill="#93405C"/>
<path d="M179.466 49.8039C173.466 52.7239 167.716 48.3839 167.716 48.3839C167.716 48.3839 166.556 50.8839 161.056 49.6339C157.384 48.7395 153.81 47.4834 150.386 45.8839C150.636 52.8039 143.806 58.4739 143.806 58.4739V63.4739H138.626L137.556 72.8539C125.116 64.9339 123.416 50.5639 125.996 41.9339C126.354 43.6265 127.185 45.1828 128.392 46.422C129.599 47.6611 131.133 48.5322 132.816 48.9339C137.896 50.4439 139.256 47.5439 139.546 45.0139C139.581 44.6848 139.685 44.3669 139.853 44.0818C140.021 43.7966 140.249 43.5509 140.52 43.3613C140.791 43.1717 141.1 43.0425 141.425 42.9826C141.751 42.9226 142.085 42.9333 142.406 43.0139C143.896 43.4417 145.471 43.4727 146.976 43.1039C147.702 42.8607 148.345 42.4204 148.834 41.8323C149.323 41.2441 149.639 40.5314 149.746 39.7739C149.837 39.4304 150.005 39.1122 150.238 38.8434C150.47 38.5746 150.761 38.3622 151.088 38.2225C151.414 38.0827 151.769 38.0192 152.124 38.0368C152.479 38.0544 152.825 38.1525 153.136 38.3239C157.475 40.5308 162.211 41.8467 167.066 42.1939C174.806 42.9039 177.796 40.1339 178.946 38.1239C182.416 41.3639 184.046 47.5739 179.466 49.8039Z" fill="#56114A"/>
<path d="M161.596 65.3839C161.096 69.1939 158.276 71.9739 155.286 71.5839C152.296 71.1939 150.286 67.7839 150.776 63.9739C151.266 60.1639 154.096 57.3939 157.086 57.7839C160.076 58.1739 162.096 61.5739 161.596 65.3839Z" stroke="#0C1A3C" stroke-width="2" stroke-miterlimit="10" stroke-linecap="round"/>
<path d="M174.286 67.0039C173.796 70.8239 171.286 73.6339 168.626 73.2839C165.966 72.9339 164.256 69.5739 164.756 65.7639C165.256 61.9539 167.756 59.1439 170.426 59.4839C173.096 59.8239 174.786 63.2239 174.286 67.0039Z" stroke="#0C1A3C" stroke-width="1.88" stroke-miterlimit="10" stroke-linecap="round"/>
<path d="M161.536 62.764C162.178 62.486 162.883 62.3867 163.576 62.4764C164.27 62.5662 164.926 62.8418 165.476 63.274" stroke="#0C1A3C" stroke-miterlimit="10" stroke-linecap="round"/>
<path d="M151.626 61.184L139.446 59.594" stroke="#0C1A3C" stroke-miterlimit="10" stroke-linecap="round"/>
<path d="M141.546 60.2238C141.546 60.2238 140.296 54.1438 134.716 57.6438C129.546 60.8838 131.806 69.8338 138.976 70.2838C139.213 70.3015 139.451 70.2724 139.677 70.1981C139.903 70.1238 140.112 70.0057 140.292 69.8506C140.472 69.6955 140.62 69.5065 140.727 69.2943C140.834 69.0821 140.898 68.8509 140.916 68.6138L141.546 60.2238Z" fill="#FF8B61"/>
<path d="M201.716 193.554H144.406C143.843 193.556 143.293 193.38 142.835 193.051C142.377 192.723 142.035 192.258 141.856 191.724L140.646 188.094C140.512 187.69 140.475 187.259 140.539 186.838C140.603 186.417 140.767 186.017 141.016 185.672C141.265 185.326 141.592 185.044 141.971 184.85C142.35 184.656 142.77 184.554 143.196 184.554H202.926C203.352 184.554 203.772 184.656 204.151 184.85C204.53 185.044 204.858 185.326 205.107 185.672C205.356 186.017 205.519 186.417 205.583 186.838C205.647 187.259 205.611 187.69 205.476 188.094L204.266 191.724C204.086 192.258 203.743 192.721 203.286 193.049C202.828 193.378 202.279 193.554 201.716 193.554Z" fill="white"/>
<g style="mix-blend-mode:multiply" opacity="0.3">
<path d="M204.216 189.054H146.906C146.343 189.056 145.793 188.88 145.335 188.551C144.877 188.223 144.535 187.758 144.356 187.224L143.466 184.554H143.196C142.77 184.554 142.35 184.656 141.971 184.85C141.592 185.044 141.265 185.326 141.016 185.672C140.767 186.017 140.603 186.417 140.539 186.838C140.475 187.259 140.512 187.69 140.646 188.094L141.856 191.724C142.035 192.258 142.377 192.723 142.835 193.051C143.293 193.38 143.843 193.556 144.406 193.554H201.716C202.279 193.554 202.828 193.378 203.286 193.049C203.743 192.721 204.086 192.258 204.266 191.724L205.216 188.854C204.899 188.986 204.559 189.054 204.216 189.054Z" fill="#326C92"/>
</g>
<path d="M255.426 190.824L278.196 122.494C278.295 122.202 278.322 121.891 278.276 121.586C278.231 121.281 278.113 120.992 277.933 120.742C277.753 120.491 277.517 120.288 277.242 120.147C276.968 120.007 276.664 119.934 276.356 119.934H224.446C223.607 119.935 222.789 120.201 222.109 120.692C221.429 121.184 220.921 121.877 220.656 122.674L197.876 191.004C197.791 191.296 197.773 191.604 197.825 191.905C197.877 192.205 197.996 192.49 198.175 192.736C198.353 192.983 198.586 193.186 198.855 193.33C199.124 193.473 199.422 193.553 199.726 193.564H251.636C252.476 193.562 253.293 193.297 253.973 192.805C254.654 192.314 255.162 191.62 255.426 190.824Z" fill="#0C1A3C"/>
<path d="M282.666 122.494L262.726 182.304L259.886 190.824C259.62 191.619 259.111 192.31 258.431 192.799C257.751 193.289 256.934 193.553 256.096 193.554H204.186C203.878 193.554 203.574 193.481 203.3 193.341C203.026 193.2 202.789 192.996 202.609 192.746C202.429 192.496 202.312 192.206 202.266 191.902C202.22 191.597 202.248 191.286 202.346 190.994L222.156 131.554L225.156 122.664C225.422 121.869 225.931 121.178 226.611 120.688C227.291 120.198 228.108 119.934 228.946 119.934H280.856C281.157 119.95 281.451 120.035 281.715 120.18C281.979 120.326 282.206 120.53 282.38 120.776C282.554 121.022 282.67 121.305 282.72 121.602C282.769 121.9 282.751 122.204 282.666 122.494Z" fill="white"/>
<g style="mix-blend-mode:multiply" opacity="0.3">
<path d="M262.726 182.304L259.886 190.824C259.62 191.619 259.111 192.31 258.431 192.8C257.751 193.289 256.934 193.553 256.096 193.554H204.186C203.878 193.554 203.574 193.481 203.3 193.341C203.026 193.2 202.789 192.996 202.609 192.746C202.429 192.496 202.312 192.207 202.266 191.902C202.22 191.597 202.248 191.286 202.346 190.994L222.156 131.554H230.686C231.849 131.556 232.998 131.818 234.046 132.321C235.095 132.824 236.018 133.556 236.748 134.462C237.477 135.368 237.995 136.425 238.263 137.557C238.531 138.689 238.542 139.867 238.296 141.004C235.776 153.294 235.936 174.254 262.726 182.304Z" fill="#326C92"/>
</g>
<path d="M69.6362 193.554H3.3862C-8.6138 176.364 15.1362 182.434 15.1362 182.434C6.5162 156.934 25.3862 158.054 25.3862 158.054C25.3862 158.054 17.3862 136.864 27.4762 131.164C28.4136 130.643 29.4253 130.268 30.4762 130.054C45.0962 127.054 45.8462 151.804 45.8462 151.804C45.8462 151.804 52.4762 143.054 58.3462 148.674C64.2162 154.294 57.4762 166.934 57.4762 166.934C57.4762 166.934 68.0962 163.804 72.8262 173.674C73.2471 174.543 73.582 175.45 73.8262 176.384C76.2062 185.304 69.6362 193.554 69.6362 193.554Z" fill="#FFAB2F"/>
<path d="M69.6362 193.554H3.3862C-8.6138 176.364 15.1362 182.434 15.1362 182.434C6.5162 156.934 25.3862 158.054 25.3862 158.054C25.3862 158.054 17.3862 136.864 27.4762 131.164C26.0262 143.164 36.0062 163.164 36.2962 163.714C36.0462 163.574 27.4962 158.564 29.4662 170.224C31.3662 181.454 55.1662 190.744 73.8562 176.384C76.2062 185.304 69.6362 193.554 69.6362 193.554Z" fill="#EA8000"/>
</svg>
