<svg width="329" height="189" viewBox="0 0 329 189" fill="none" xmlns="http://www.w3.org/2000/svg">
<path d="M304.302 156.589C292.131 138.499 264.637 144.063 286.212 103.698C307.788 63.3331 268.467 33.4169 245.503 46.6423C222.539 59.8676 194.011 60.5565 197.831 43.8552C201.652 27.1539 204.794 7.66564 181.13 1.40265C157.467 -4.86033 105.974 9.23138 115.369 56.2037C124.763 103.176 99.7114 137.622 77.791 120.921C55.8705 104.22 15.1612 96.3912 3.15712 130.316C-8.84692 164.24 17.2488 188.77 17.2488 188.77H308.383C310.534 181.902 312.663 169.01 304.302 156.589Z" fill="#CB1C3E"/>
<path d="M102.049 119.951L103.386 120.932C125.306 137.633 150.358 103.187 140.963 56.2143C134.304 22.9162 158.249 6.11051 181.182 1.43415C157.529 -4.82883 106.026 9.26287 115.421 56.2352C121.204 85.3581 113.782 109.679 102.049 119.951Z" fill="#99162B"/>
<path d="M28.7518 130.326C33.115 117.998 41.2778 111.182 50.9437 108.312C31.6224 103.719 11.1111 107.884 3.15712 130.326C-8.84692 164.25 17.2488 188.78 17.2488 188.78H42.8018C42.8018 188.78 16.706 164.25 28.7518 130.326Z" fill="#99162B"/>
<path d="M84.4924 173.092C82.5808 178.616 79.9784 183.877 76.7471 188.749H26.9043C26.9043 188.749 11.4869 177.82 10.4431 165.816C9.39923 154.073 17.1444 156.818 17.4785 156.933C17.3428 156.307 11.7792 132.33 23.8667 125.086L24.2738 124.846C37.0607 117.8 42.5408 135.284 42.5408 135.284C42.5408 135.284 45.4114 119.627 62.1126 123.176C78.8139 126.725 71.2462 150.42 71.2462 150.42C71.2462 150.42 91.3921 151.369 84.4924 173.092Z" fill="white"/>
<g style="mix-blend-mode:multiply" opacity="0.3">
<path d="M76.862 188.603L76.7471 188.78H26.9043C26.9043 188.78 11.4869 177.82 10.4431 165.816C9.39923 154.073 17.1444 156.818 17.4785 156.933C17.3428 156.307 11.7792 132.33 23.8667 125.086C24.4826 135.055 35.3488 145.221 41.4866 150.138C41.6744 150.28 41.8087 150.481 41.8676 150.709C41.9265 150.937 41.9066 151.179 41.811 151.394C41.7155 151.609 41.55 151.786 41.3414 151.895C41.1327 152.004 40.8933 152.04 40.6619 151.996C37.353 151.464 33.3551 151.495 32.2278 154.313C30.923 157.518 36.5075 162.664 40.8394 166.14C41.0339 166.277 41.1756 166.477 41.2411 166.706C41.3065 166.935 41.2916 167.179 41.199 167.399C41.1064 167.618 40.9416 167.799 40.7318 167.912C40.5221 168.025 40.2802 168.062 40.0461 168.019C37.9584 167.789 35.7559 168.123 34.6912 169.971C32.8645 173.165 52.238 182.716 70.4424 179.177C71.6275 178.972 72.8466 179.112 73.9541 179.582C75.0616 180.051 76.0105 180.829 76.6875 181.823C77.3646 182.817 77.741 183.985 77.772 185.187C77.8029 186.39 77.487 187.575 76.862 188.603Z" fill="#326C92"/>
</g>
<path d="M314.198 188.781H262.006C262.006 188.781 247.393 173.906 246.349 158.249C245.305 142.862 261.442 151.672 262.006 151.986C261.86 151.61 254.532 133.374 262.006 124.334C269.48 115.295 273.488 122.675 273.488 122.675C273.488 122.675 274 94.5645 290.127 94.4079H290.19C306.369 94.3244 301.15 126.161 301.15 126.161C301.15 126.161 310.283 120.159 316.546 131.119C322.653 141.808 312.131 155.065 311.609 155.712C312.12 155.43 321.661 150.19 327.266 160.347C332.987 170.774 314.198 188.781 314.198 188.781Z" fill="#FFAB2F"/>
<path d="M300.784 188.781H262.006C262.006 188.781 247.393 173.906 246.349 158.249C245.305 142.863 261.442 151.672 262.006 151.986C261.86 151.61 254.532 133.374 262.006 124.335C269.48 115.295 273.488 122.675 273.488 122.675C273.488 122.675 274 94.5645 290.127 94.408C285.826 105.65 287.789 127.309 289.355 139.293C289.452 139.98 289.39 140.681 289.174 141.341C288.958 142.001 288.594 142.602 288.109 143.099C287.624 143.596 287.031 143.976 286.377 144.208C285.722 144.44 285.023 144.519 284.334 144.439C281.693 144.063 279.407 145.691 280.273 153.27C281.745 165.983 289.334 180.117 300.784 188.781Z" fill="#EA8000"/>
<path d="M198.332 54.7424L215.754 74.3142L207.048 91.0155C207.048 91.0155 198.531 79.0115 193.573 72.8738L198.332 54.7424Z" fill="#FFAD91"/>
<path opacity="0.5" d="M193.541 72.8738C195.003 74.69 196.777 77.0491 198.541 79.3768C199.174 78.4462 199.722 77.4611 200.18 76.4332C201.461 73.461 202.169 70.2737 202.268 67.0387C202.378 64.2041 202.182 61.3658 201.683 58.5733L198.332 54.7424L193.541 72.8738Z" fill="#F9591A"/>
<path d="M162.216 62.853C162.216 62.853 151.099 65.3269 147.039 55.5462C146.882 55.1704 146.736 54.7842 146.6 54.3667C143.009 43.1351 155.222 33.156 170.149 34.8157C176.088 35.4734 179.303 39.3146 179.731 44.0014C180.431 51.1621 174.648 60.1495 162.216 62.853Z" fill="white"/>
<g style="mix-blend-mode:multiply" opacity="0.3">
<path d="M162.216 62.8526C162.216 62.8526 151.099 65.3265 147.039 55.5458C147.498 51.8715 149.126 45.2223 154.074 41.7151C159.711 37.7485 172.936 40.0241 179.773 44.0324C180.431 51.1617 174.648 60.1491 162.216 62.8526Z" fill="#326C92"/>
</g>
<g style="mix-blend-mode:multiply" opacity="0.3">
<path d="M179.773 44.0013C174.939 41.4167 169.591 39.9371 164.116 39.6694C162.586 39.9301 161.127 40.5098 159.836 41.3709C157.396 43.246 155.544 45.782 154.502 48.6777C153.939 50.0758 153.679 51.5772 153.739 53.0831C153.799 54.589 154.177 56.0651 154.849 57.4142C155.52 58.7634 156.47 59.9549 157.636 60.9103C158.801 61.8657 160.156 62.5634 161.611 62.9573C162.007 62.8946 162.226 62.8425 162.226 62.8425C174.648 60.1494 180.431 51.162 179.773 44.0013Z" fill="#326C92"/>
</g>
<path d="M197.675 62.5501C197.576 65.785 196.868 68.9723 195.587 71.9446C190.702 82.957 178.291 84.6897 169.836 74.5959C160.932 63.9801 153.824 46.9448 161.203 37.6339C162.656 35.8404 164.508 34.4107 166.61 33.4586C184.971 24.8365 198.479 43.5941 197.675 62.5501Z" fill="#FFAD91"/>
<path opacity="0.3" d="M177.999 31.4963C175.702 31.8234 173.47 32.503 171.381 33.5109C169.278 34.463 167.427 35.8927 165.974 37.6863C158.594 46.9868 164.93 64.3665 173.782 74.9823C176.688 78.2493 180.633 80.4135 184.951 81.1096C189.366 80.285 193.301 77.1639 195.598 71.9969C196.878 69.0247 197.587 65.8374 197.685 62.6025C198.333 47.801 190.253 33.1665 177.999 31.4963Z" fill="#F9591A"/>
<path d="M197.706 57.4249L192.487 60.7756L187.988 50.1181C173.573 56.2975 155.473 46.6317 155.473 46.6317C155.473 46.6317 155.828 33.1245 169.439 28.135C182.205 23.4586 192.571 27.0181 196.923 36.3499C197.22 36.975 197.481 37.6162 197.706 38.2706C199.997 44.4498 199.997 51.2457 197.706 57.4249Z" fill="white"/>
<g style="mix-blend-mode:multiply" opacity="0.3">
<path d="M197.706 57.425L192.487 60.7757L187.988 50.1182C173.573 56.2977 155.473 46.6318 155.473 46.6318C155.473 46.6318 185.107 52.519 196.923 36.3501C197.22 36.9751 197.481 37.6164 197.706 38.2707C199.997 44.4499 199.997 51.2458 197.706 57.425Z" fill="#326C92"/>
</g>
<path d="M191.85 52.9888C191.85 52.9888 190.932 45.4419 196.14 43.4899C201.349 41.538 206.485 54.4606 195.869 61.4543L191.85 52.9888Z" fill="#FFAD91"/>
<path d="M220.483 80.4935C209.961 81.3285 207.758 103.374 206.349 127.466L232.445 128.938C232.445 128.938 235.274 105.138 234.063 95.8691C232.852 86.5999 228.176 79.8881 220.483 80.4935Z" fill="white" stroke="#231F20" stroke-miterlimit="10"/>
<path d="M230.086 123.75C230.086 123.75 223.885 170.023 218.29 170.629C212.696 171.234 176.276 170.18 176.276 170.18C176.276 170.18 170.953 175.775 169.439 175.775C167.926 175.775 157.341 170.629 156.913 168.52C156.701 165.901 156.701 163.269 156.913 160.65C156.913 160.65 141.402 164.982 142.206 162.57C142.686 161.802 143.327 161.146 144.085 160.65C149.199 156.568 163.051 148.719 165.4 149.053C168.218 149.46 177.519 155.66 177.519 155.66L207.142 151.224L210.065 117.915L230.086 123.75Z" fill="#FFAD91"/>
<path opacity="0.5" d="M230.086 123.75C230.086 123.75 223.885 170.023 218.29 170.629C212.696 171.234 176.276 170.18 176.276 170.18C176.276 170.18 170.953 175.775 169.439 175.775C167.926 175.775 157.341 170.629 156.913 168.52C156.701 165.901 156.701 163.269 156.913 160.65C156.913 160.65 141.402 164.981 142.206 162.57C142.686 161.802 143.327 161.146 144.085 160.65C151.204 158.927 165.713 155.357 166.109 154.856C166.506 154.355 167.508 159.032 176.861 161.579C186.214 164.126 208.353 160.597 208.353 160.597L207.142 151.203L210.065 117.894L230.086 123.75Z" fill="#F9591A"/>
<path d="M162.56 166.881C162.443 166.864 162.33 166.823 162.229 166.76C162.128 166.697 162.041 166.614 161.973 166.516C161.906 166.418 161.859 166.307 161.836 166.191C161.813 166.074 161.815 165.954 161.84 165.837C162.101 164.251 162.696 160.733 163.041 159.574C163.479 158.03 169.784 156.036 171.109 156.036C172.435 156.036 177.853 159.679 178.959 160.785C180.066 161.892 178.844 165.316 176.078 166.641C173.312 167.967 170.337 166.098 169.231 162.883L167.352 162.664C167.352 162.664 166.287 167.414 162.56 166.881Z" fill="#FFAD91"/>
<path d="M221.693 73.385C221.693 73.385 221.693 87.2262 205.817 99.773C205.817 99.773 196.589 87.0488 195.754 85.7648C195.733 85.7395 195.716 85.7114 195.702 85.6813C194.919 84.4601 194.93 83.9277 195.222 83.1866C195.514 82.4455 207.748 65.2953 208.614 64.1576C209.481 63.0198 210.577 62.8737 211.255 63.6356C211.934 64.3976 219.199 71.0886 221.192 72.9257L221.693 73.385Z" fill="#0C1A3C"/>
<g style="mix-blend-mode:multiply" opacity="0.4">
<path d="M221.693 73.3851C221.693 73.3851 221.693 87.2263 205.817 99.7731C205.817 99.7731 196.589 87.0488 195.754 85.7649C195.733 85.7395 195.716 85.7115 195.702 85.6814L200.472 78.8026C201.035 78.0058 201.817 77.39 202.723 77.0304C203.63 76.6708 204.621 76.5829 205.577 76.7775C208.426 77.3203 213.478 77.1115 221.234 72.9258L221.693 73.3851Z" fill="#FFAB2F"/>
</g>
<path d="M290.628 188.781H217.831C218.645 163.979 212.393 146.84 207.393 130.911C204.393 120.805 203.867 110.125 205.858 99.7734L206.38 95.7651L214.637 83.7297L221.735 73.3854C221.735 73.3854 242.476 69.805 261.641 99.7734C280.805 129.742 290.628 188.781 290.628 188.781Z" fill="#65A4C5"/>
<g style="mix-blend-mode:multiply" opacity="0.3">
<path d="M217.831 188.781C218.645 163.979 212.393 146.839 207.393 130.911C204.393 120.804 203.867 110.125 205.858 99.7732L206.38 95.7649L214.637 83.7295C214.867 105.472 249.543 142.341 254.501 145.723C260.242 149.637 251.108 154.856 251.108 154.856C251.108 154.856 252.81 176.046 264.918 188.781H217.831Z" fill="#326C92"/>
</g>
<path d="M204.669 53.2497L203.437 55.5252L191.683 77.1951C191.608 77.3362 191.505 77.4609 191.381 77.562C191.257 77.6632 191.114 77.7387 190.961 77.7843C190.808 77.83 190.647 77.8447 190.488 77.8278C190.328 77.8109 190.174 77.7626 190.034 77.6857L178.26 71.2975C178.119 71.222 177.994 71.1193 177.893 70.9953C177.792 70.8713 177.716 70.7285 177.67 70.5752C177.625 70.4218 177.61 70.2609 177.627 70.1018C177.644 69.9427 177.692 69.7886 177.769 69.6482L188.938 49.0743L190.765 45.7132C190.84 45.5721 190.943 45.4474 191.067 45.3463C191.191 45.2452 191.334 45.1696 191.487 45.124C191.64 45.0784 191.801 45.0636 191.96 45.0805C192.119 45.0975 192.274 45.1457 192.414 45.2226L204.188 51.6108C204.469 51.7651 204.677 52.0241 204.767 52.3312C204.857 52.6383 204.821 52.9685 204.669 53.2497Z" fill="#0C1A3C"/>
<g style="mix-blend-mode:multiply" opacity="0.4">
<path d="M203.437 55.5355L191.683 77.195C191.608 77.3361 191.505 77.4608 191.381 77.5619C191.257 77.663 191.114 77.7386 190.961 77.7842C190.808 77.8298 190.647 77.8446 190.488 77.8277C190.328 77.8108 190.174 77.7625 190.034 77.6856L178.26 71.2974C178.119 71.2219 177.994 71.1192 177.893 70.9952C177.792 70.8712 177.716 70.7284 177.67 70.575C177.625 70.4217 177.61 70.2608 177.627 70.1017C177.644 69.9426 177.692 69.7884 177.769 69.6481L188.938 49.0742L191.328 56.5898C191.574 57.369 192.006 58.0762 192.588 58.6495C193.17 59.2228 193.884 59.6449 194.666 59.8787C195.449 60.1125 196.277 60.1509 197.078 59.9906C197.879 59.8304 198.629 59.4763 199.261 58.9593L203.437 55.5355Z" fill="#FFAB2F"/>
</g>
<path d="M227.111 125.41C227.111 125.41 201.464 153.395 199.376 153.238C197.289 153.082 189.147 147.215 185.974 135.566C185.059 131.835 184.362 128.053 183.886 124.241C181.798 109.189 180.316 88.1347 180.316 88.1347L178.354 85.9427C176.381 83.7297 177.414 75.734 177.414 75.734C177.414 75.734 173.876 74.4501 174.47 71.329C175.065 68.208 179.815 69.0639 179.815 69.0639C179.209 65.8489 182.946 64.8051 182.946 64.8051C182.247 61.4544 186.078 60.755 186.078 60.755C186.078 60.755 185.097 55.014 184.94 53.9493C184.784 52.8846 183.959 48.6571 185.984 48.8867C188.009 49.1163 189.397 53.4795 190.932 57.039C192.466 60.5985 193.468 70.5149 193.468 70.5149C195.806 66.2038 198.99 66.0473 197.644 69.0744C196.561 72.0851 195.692 75.1686 195.044 78.3018C194.94 78.6776 192.811 85.4938 192.811 85.4938L204.074 119.94L206.746 116.558L212.539 109.199L227.111 125.41Z" fill="#FFAD91"/>
<path opacity="0.5" d="M227.111 125.41C227.111 125.41 201.464 153.395 199.376 153.238C197.289 153.082 189.147 147.215 185.974 135.566C185.059 131.835 184.362 128.053 183.886 124.241C188.207 132.069 194.522 142.622 197.696 143.771C199.783 144.533 202.915 141.683 205.848 138.113C208.295 135.1 209.703 131.377 209.863 127.498C210.023 123.62 208.926 119.794 206.735 116.589L212.529 109.23L227.111 125.41Z" fill="#F9591A"/>
<path d="M245.66 98.4892C244.752 105.295 228.572 129.188 228.572 129.188L218.927 119.794L208.364 109.512C208.364 109.512 226.109 81.7044 232.956 81.3286C238.53 80.9946 241.881 83.3537 243.77 86.6522C245.827 90.2325 246.129 94.9402 245.66 98.4892Z" fill="white"/>
<g style="mix-blend-mode:multiply" opacity="0.3">
<path d="M245.66 98.4892C244.752 105.295 228.572 129.188 228.572 129.188L218.927 119.794C227.278 111.527 239.72 97.8733 243.77 86.6208C245.827 90.2325 246.129 94.9402 245.66 98.4892Z" fill="#326C92"/>
</g>
<path d="M120.776 180.524H172.414C173.522 180.524 174.584 180.964 175.367 181.747C176.15 182.53 176.589 183.592 176.589 184.699V188.739H116.559V184.773C116.549 184.215 116.651 183.66 116.859 183.143C117.067 182.625 117.377 182.154 117.77 181.758C118.163 181.362 118.632 181.049 119.148 180.837C119.664 180.625 120.218 180.518 120.776 180.524Z" fill="#0C1A3C"/>
<path d="M113.785 136.296L109.553 135.818L106.289 164.736L110.521 165.214L113.785 136.296Z" fill="#0C1A3C"/>
<path d="M113.778 136.305L109.546 135.827L109.068 140.059L113.3 140.537L113.778 136.305Z" fill="#FFAB2F"/>
<path d="M113.367 139.968L109.135 139.49L108.952 141.109L113.184 141.586L113.367 139.968Z" fill="white"/>
<path d="M105.285 135.42H101.716V164.522H105.285V135.42Z" fill="white"/>
<path d="M104.315 129.741H102.686V135.42H104.315V129.741Z" fill="#65A4C5"/>
<path d="M101.559 136.464H105.285V138.645H100.066V137.946C100.066 137.75 100.105 137.557 100.18 137.376C100.255 137.196 100.365 137.032 100.504 136.894C100.643 136.756 100.808 136.647 100.989 136.573C101.17 136.5 101.363 136.462 101.559 136.464Z" fill="#65A4C5"/>
<path d="M101.058 138.646H100.077V150.159H101.058V138.646Z" fill="#0C1A3C"/>
<path d="M96.3486 147.311L92.4536 147.7L94.1549 164.744L98.0499 164.355L96.3486 147.311Z" fill="#0C1A3C"/>
<path d="M95.1853 147.427L93.6273 147.583L95.3286 164.628L96.8866 164.472L95.1853 147.427Z" fill="#65A4C5"/>
<path d="M96.3503 147.309L92.4672 147.696L93.5111 142.476C93.5246 142.398 93.5634 142.326 93.6215 142.272C93.6797 142.217 93.7539 142.184 93.8331 142.175C93.9122 142.167 93.9919 142.185 94.06 142.226C94.1281 142.267 94.1809 142.329 94.2104 142.403L96.3503 147.309Z" fill="#FFAB2F"/>
<path d="M112.937 154.856H91.7157V188.781H112.937V154.856Z" fill="#FFAB2F"/>
<path d="M91.7157 154.856H95.2856C96.3644 154.856 97.4326 155.069 98.4293 155.482C99.426 155.894 100.332 156.499 101.094 157.262C101.857 158.025 102.462 158.931 102.875 159.927C103.288 160.924 103.501 161.992 103.501 163.071V188.781H91.7157V154.856Z" fill="#EA8000"/>
<path d="M90.3692 114.867C115.233 114.867 135.39 94.7104 135.39 69.8463C135.39 44.9822 115.233 24.8259 90.3692 24.8259C65.5051 24.8259 45.3488 44.9822 45.3488 69.8463C45.3488 94.7104 65.5051 114.867 90.3692 114.867Z" fill="#CB1C3E"/>
<path d="M90.3692 108.082C111.486 108.082 128.605 90.9635 128.605 69.8466C128.605 48.7297 111.486 31.6111 90.3692 31.6111C69.2523 31.6111 52.1337 48.7297 52.1337 69.8466C52.1337 90.9635 69.2523 108.082 90.3692 108.082Z" fill="white"/>
<path d="M92.4672 87.5187L90.9537 91.1408C90.9044 91.2549 90.8228 91.3521 90.7189 91.4204C90.615 91.4886 90.4934 91.525 90.3691 91.525C90.2448 91.525 90.1232 91.4886 90.0193 91.4204C89.9155 91.3521 89.8339 91.2549 89.7846 91.1408L88.2815 87.5187C88.2395 87.4226 88.2223 87.3174 88.2316 87.2129C88.2408 87.1084 88.2761 87.0079 88.3343 86.9207C88.3925 86.8334 88.4717 86.7621 88.5646 86.7134C88.6575 86.6647 88.7611 86.6401 88.866 86.6419H89.3879C89.5568 86.6419 89.7187 86.5748 89.8382 86.4554C89.9576 86.336 90.0246 86.174 90.0246 86.0051V70.1807H90.7136V86.0051C90.7122 86.0882 90.7274 86.1708 90.7582 86.248C90.7891 86.3252 90.835 86.3955 90.8933 86.4548C90.9516 86.514 91.0211 86.5611 91.0978 86.5932C91.1744 86.6253 91.2567 86.6419 91.3399 86.6419H91.8618C91.9675 86.6392 92.0722 86.663 92.1664 86.711C92.2606 86.7589 92.3414 86.8296 92.4015 86.9166C92.4616 87.0036 92.4991 87.1042 92.5105 87.2093C92.522 87.3144 92.5071 87.4208 92.4672 87.5187Z" fill="#0C1A3C"/>
<path d="M105.63 51.6214L109.252 50.1183C109.369 50.0739 109.496 50.0641 109.618 50.0903C109.74 50.1164 109.852 50.1772 109.94 50.2655C110.028 50.3537 110.089 50.4656 110.115 50.5877C110.141 50.7097 110.131 50.8367 110.087 50.9533L108.563 54.5859C108.524 54.6838 108.46 54.7703 108.379 54.8377C108.298 54.9051 108.201 54.9512 108.097 54.9719C107.994 54.9926 107.887 54.9873 107.786 54.9563C107.685 54.9254 107.593 54.8698 107.519 54.7946L107.143 54.4188C107.086 54.3592 107.017 54.3117 106.941 54.2793C106.865 54.2469 106.783 54.2302 106.7 54.2302C106.617 54.2302 106.535 54.2469 106.459 54.2793C106.383 54.3117 106.314 54.3592 106.256 54.4188L90.8179 69.8571L90.3378 69.3769L105.776 53.9282C105.836 53.8708 105.883 53.8019 105.916 53.7257C105.948 53.6494 105.965 53.5674 105.965 53.4846C105.965 53.4018 105.948 53.3198 105.916 53.2436C105.883 53.1673 105.836 53.0984 105.776 53.041L105.4 52.6548C105.325 52.5803 105.27 52.488 105.241 52.3866C105.211 52.2852 105.208 52.178 105.23 52.0748C105.253 51.9717 105.302 51.876 105.372 51.7968C105.442 51.7175 105.53 51.6571 105.63 51.6214Z" fill="#0C1A3C"/>
<path d="M90.3691 74.022C92.6751 74.022 94.5444 72.1527 94.5444 69.8467C94.5444 67.5407 92.6751 65.6714 90.3691 65.6714C88.0631 65.6714 86.1938 67.5407 86.1938 69.8467C86.1938 72.1527 88.0631 74.022 90.3691 74.022Z" fill="#0C1A3C"/>
<path d="M90.8911 36.1414H89.8159V43.7091H90.8911V36.1414Z" fill="#CB1C3E"/>
<path d="M124.074 70.3791V69.304H116.507V70.3791H124.074Z" fill="#CB1C3E"/>
<path d="M89.8368 103.552H90.9119V95.9842H89.8368V103.552Z" fill="#CB1C3E"/>
<path d="M56.6639 69.3248V70.3999H64.2316V69.3248H56.6639Z" fill="#CB1C3E"/>
<g style="mix-blend-mode:multiply" opacity="0.3">
<path d="M113.339 47.6155L112.579 46.8552L110.365 49.0695L111.125 49.8298L113.339 47.6155Z" fill="#326C92"/>
</g>
<g style="mix-blend-mode:multiply" opacity="0.3">
<path d="M112.597 92.8288L113.357 92.0686L111.143 89.8543L110.383 90.6145L112.597 92.8288Z" fill="#326C92"/>
</g>
<g style="mix-blend-mode:multiply" opacity="0.3">
<path d="M67.3972 92.0864L68.1575 92.8467L70.3718 90.6324L69.6115 89.8721L67.3972 92.0864Z" fill="#326C92"/>
</g>
<g style="mix-blend-mode:multiply" opacity="0.3">
<path d="M68.1366 46.8762L67.3763 47.6365L69.5906 49.8508L70.3509 49.0905L68.1366 46.8762Z" fill="#326C92"/>
</g>
</svg>
