<svg width="83" height="83" viewBox="0 0 83 83" fill="none" xmlns="http://www.w3.org/2000/svg">
<g clip-path="url(#clip0)">
<path d="M82.6787 22.6316L68.8456 6.03181C68.5828 5.71781 68.1941 5.53528 67.7832 5.53528H15.2171C14.8064 5.53528 14.4176 5.71651 14.1547 6.03181L0.321604 22.6316C-0.0228733 23.0438 -0.0976047 23.6178 0.130642 24.1034C0.358889 24.5889 0.847156 24.9001 1.38389 24.9001H81.6161C82.1528 24.9001 82.6411 24.5889 82.8693 24.1034C83.0964 23.6193 83.0232 23.0451 82.6787 22.6316ZM4.33749 22.1336L15.8646 8.3005H67.1344L78.6615 22.1336H4.33749Z" fill="#EA526F"/>
<path d="M42.7798 6.38731C42.5653 5.87002 42.0605 5.53381 41.5016 5.53381H15.2186C14.7234 5.53381 14.2669 5.79805 14.0194 6.22828C13.7718 6.65851 13.7731 7.18552 14.0236 7.6143L23.7067 24.2141C23.9225 24.5834 24.2974 24.8338 24.7235 24.8891C24.783 24.8961 24.8424 24.9001 24.9005 24.9001C25.2657 24.9001 25.6185 24.7563 25.8799 24.4948L42.4797 7.89507C42.8753 7.49952 42.9942 6.90459 42.7798 6.38731ZM25.191 21.2704L17.6256 8.3005H38.1609L25.191 21.2704Z" fill="#EA526F"/>
<path d="M82.8544 22.9026C82.622 22.4309 82.1407 22.1321 81.615 22.1321H1.38279C0.857073 22.1321 0.377074 22.4309 0.143316 22.9026C-0.089146 23.3744 -0.0351643 23.9374 0.284349 24.3551L40.4005 76.9211C40.662 77.2641 41.0687 77.4661 41.5002 77.4661C41.9318 77.4661 42.3385 77.2641 42.5972 76.9211L82.7134 24.3551C83.0329 23.9374 83.0867 23.3744 82.8544 22.9026ZM41.5002 73.8031L4.17978 24.9003H78.8207L41.5002 73.8031Z" fill="#EA526F"/>
<path d="M42.8199 75.6651L26.2202 23.0991C26.0376 22.5236 25.505 22.1321 24.9005 22.1321H1.38407C0.858355 22.1321 0.378356 22.4309 0.144597 22.9026C-0.0878642 23.3744 -0.0338826 23.9374 0.285631 24.3551L40.4018 76.9211C40.6701 77.2739 41.081 77.4661 41.5015 77.4661C41.7173 77.4661 41.9358 77.4164 42.1378 77.3084C42.7342 77.0001 43.0218 76.3056 42.8199 75.6651ZM4.17977 24.9003H23.8865L37.7971 68.9506L4.17977 24.9003Z" fill="#EA526F"/>
<path d="M68.9826 6.22828C68.7364 5.79805 68.2786 5.53381 67.7833 5.53381H41.5002C40.9415 5.53381 40.4365 5.87002 40.222 6.38731C40.0076 6.90459 40.1266 7.49952 40.5223 7.89507L57.122 24.4948C57.382 24.7563 57.7348 24.9001 58.1 24.9001C58.1595 24.9001 58.219 24.8959 58.2785 24.8891C58.7032 24.8338 59.0795 24.5848 59.2952 24.2141L68.9784 7.6143C69.2274 7.18552 69.2288 6.65851 68.9826 6.22828ZM57.8095 21.2704L44.8395 8.3005H65.3747L57.8095 21.2704Z" fill="#EA526F"/>
<path d="M82.8572 22.9056C82.6247 22.4338 82.1434 22.1351 81.6177 22.1351H58.1013C57.4968 22.1351 56.9628 22.5266 56.7816 23.102L40.1818 75.668C39.9798 76.3071 40.2676 77.0015 40.8638 77.3115C41.0658 77.4165 41.2843 77.4665 41.5001 77.4665C41.9193 77.4665 42.3301 77.2742 42.5998 76.9242L82.716 24.3582C83.0357 23.9401 83.0895 23.3771 82.8572 22.9056ZM45.2034 68.9505L59.114 24.9001H78.8207L45.2034 68.9505Z" fill="#EA526F"/>
</g>
<defs>
<clipPath id="clip0">
<rect width="83" height="83" fill="white"/>
</clipPath>
</defs>
</svg>
