<svg width="101" height="77" viewBox="0 0 101 77" fill="none" xmlns="http://www.w3.org/2000/svg">
<g clip-path="url(#clip0)">
<path d="M92.3328 53.4144C92.3328 53.1069 92.3602 52.7947 92.3602 52.4963C92.356 50.0759 91.784 47.6905 90.6907 45.5328C89.5974 43.3752 88.0134 41.5058 86.0667 40.0758C84.1199 38.6458 81.8651 37.6953 79.4844 37.3012C77.1038 36.9071 74.6641 37.0803 72.3625 37.8069C72.3625 37.7518 72.3625 37.6968 72.3625 37.6463C72.3737 33.1132 70.7763 28.7242 67.8561 25.2647C64.9359 21.8053 60.8837 19.5013 56.4247 18.7652C51.9658 18.0291 47.3912 18.909 43.5199 21.2473C39.6486 23.5856 36.7333 27.2296 35.2958 31.5272C32.8632 30.0659 30.0615 29.3405 27.2277 29.4385C24.3939 29.5364 21.6487 30.4535 19.3221 32.0794C16.9955 33.7053 15.1867 35.9707 14.1132 38.6033C13.0397 41.2359 12.7472 44.1235 13.2708 46.9189C9.60271 47.4738 6.27849 49.3969 3.96264 52.3038C1.64679 55.2107 0.509929 58.8873 0.779318 62.5986C1.04871 66.3099 2.7045 69.7825 5.4157 72.3223C8.1269 74.862 11.6938 76.2818 15.4033 76.2978H88.5758C91.3556 76.2982 94.045 75.3075 96.1639 73.5026C98.2827 71.6976 99.693 69.1959 100.143 66.4442C100.593 63.6924 100.053 60.8699 98.6197 58.4806C97.1865 56.0913 94.9534 54.2908 92.3191 53.4006L92.3328 53.4144Z" stroke="white" stroke-width="3" stroke-miterlimit="10"/>
<path d="M23.3109 30.0857L15.9021 23.4801V11.5955" stroke="white" stroke-width="3" stroke-miterlimit="10"/>
<path d="M55.0464 18.527V9.77759" stroke="white" stroke-width="3" stroke-miterlimit="10"/>
<path d="M82.6314 38.1375V33.3818L89.3766 30.2649V14.1846" stroke="white" stroke-width="3" stroke-miterlimit="10"/>
<path d="M15.9021 11.5954C18.3587 11.5954 20.3501 9.59778 20.3501 7.13354C20.3501 4.66929 18.3587 2.67163 15.9021 2.67163C13.4455 2.67163 11.4541 4.66929 11.4541 7.13354C11.4541 9.59778 13.4455 11.5954 15.9021 11.5954Z" stroke="white" stroke-width="3" stroke-miterlimit="10"/>
<path d="M55.0464 9.61241C57.503 9.61241 59.4944 7.61475 59.4944 5.1505C59.4944 2.68626 57.503 0.688599 55.0464 0.688599C52.5898 0.688599 50.5984 2.68626 50.5984 5.1505C50.5984 7.61475 52.5898 9.61241 55.0464 9.61241Z" stroke="white" stroke-width="3" stroke-miterlimit="10"/>
<path d="M89.3766 14.3314C91.8332 14.3314 93.8246 12.3337 93.8246 9.8695C93.8246 7.40526 91.8332 5.40759 89.3766 5.40759C86.92 5.40759 84.9286 7.40526 84.9286 9.8695C84.9286 12.3337 86.92 14.3314 89.3766 14.3314Z" stroke="white" stroke-width="3" stroke-miterlimit="10"/>
<path d="M52 50C53.93 50 55.5 48.4295 55.5 46.5C55.5 44.5705 53.93 43 52 43C50.07 43 48.5 44.5705 48.5 46.5C48.5 48.4295 50.07 50 52 50ZM52 44C53.3785 44 54.5 45.1215 54.5 46.5C54.5 47.8785 53.3785 49 52 49C50.6215 49 49.5 47.8785 49.5 46.5C49.5 45.1215 50.6215 44 52 44Z" fill="white"/>
<path d="M51.9115 64.3785L59.582 53.3C62.459 49.4645 62.043 43.16 58.6915 39.809C56.8805 37.9975 54.4725 37 51.9115 37C49.3505 37 46.9425 37.9975 45.1315 39.8085C41.78 43.1595 41.364 49.464 44.2295 53.2845L51.9115 64.3785ZM45.8385 40.5155C47.461 38.8935 49.6175 38 51.9115 38C54.2055 38 56.362 38.8935 57.9845 40.5155C61.0095 43.54 61.382 49.234 58.771 52.715L51.9115 62.6215L45.041 52.7C42.441 49.234 42.814 43.54 45.8385 40.5155Z" fill="white"/>
<path d="M58.0585 58.5034C57.7835 58.4699 57.5355 58.6669 57.5035 58.9414C57.4715 59.2159 57.6675 59.4644 57.9415 59.4964C63.1995 60.1154 66 61.7834 66 62.7499C66 64.1069 60.674 65.9999 52 65.9999C43.326 65.9999 38 64.1069 38 62.7499C38 61.7834 40.8005 60.1154 46.0585 59.4964C46.3325 59.4644 46.5285 59.2154 46.4965 58.9414C46.464 58.6669 46.216 58.4689 45.9415 58.5034C40.677 59.1234 37 60.8694 37 62.7499C37 64.8619 42.1525 66.9999 52 66.9999C61.8475 66.9999 67 64.8619 67 62.7499C67 60.8694 63.323 59.1234 58.0585 58.5034Z" fill="white"/>
</g>
<defs>
<clipPath id="clip0">
<rect width="101" height="77" fill="white"/>
</clipPath>
</defs>
</svg>
