<svg width="1920" height="140" viewBox="0 0 1920 140" fill="none" xmlns="http://www.w3.org/2000/svg">
<g clip-path="url(#clip0)">
<path d="M0.0999756 34.8998C0.0999756 68.4398 0.170044 101.97 0 135.5C0 138.91 0.680054 139.58 4.14001 139.58C238.68 139.48 473.22 139.45 707.76 139.49C1110.29 139.49 1512.81 139.52 1915.34 139.58C1919.13 139.58 1919.99 138.74 1919.99 135C1919.82 102.3 1919.89 69.5998 1919.89 36.8998C1906.97 35.1903 1893.83 37.3989 1882.17 43.2398C1878.77 44.8998 1877.6 44.3898 1875.62 41.4698C1854.77 10.6798 1811.99 4.08978 1782.52 26.9998C1769.7 36.9998 1762.14 50.1298 1758.9 66.1098C1749.75 60.7498 1740.29 57.8298 1729.81 59.5398C1727.81 59.8598 1726.7 58.4798 1725.38 57.5398C1717.01 51.6625 1707.94 46.8521 1698.38 43.2198C1689.05 39.7698 1679.56 37.2198 1669.32 38.5198C1657.62 39.9633 1646.44 44.2027 1636.72 50.8798C1635.07 51.9998 1633.85 53.1498 1631.38 52.0398C1617.32 45.7098 1602.44 42.5198 1587.06 41.2698C1545.66 37.9198 1509.49 57.0198 1493.25 92.3898C1492.15 94.7898 1490.93 95.7098 1488.11 95.8998C1472.7 96.8998 1460.98 104.06 1453.61 117.56C1452.13 120.28 1451.38 120.66 1448.68 118.7C1435.22 108.92 1420.26 106.44 1404.18 110.8C1396.38 112.92 1389.65 117.13 1383.46 122.54C1382.73 120.81 1382.23 119.54 1381.7 118.37C1363.86 78.0398 1316.92 71.2998 1290.85 102.14C1289.29 103.97 1288.09 103.75 1286.14 102.85C1274.5 97.4398 1262.73 97.3598 1251.06 102.74C1248.7 103.83 1247.67 103.47 1246.29 101.37C1241.39 93.952 1235.16 87.5092 1227.91 82.3698C1197.49 60.6498 1163.35 55.1598 1127.11 61.3698C1097.21 66.4698 1071.8 79.5498 1054.91 105.97C1047.34 98.4698 1038.63 94.5998 1027.91 96.2798C1017.19 97.9598 1009.99 104.46 1004.78 113.64C978.39 75.2998 922.2 73.1698 892.64 105.7C890.1 108.5 888.64 108.51 885.38 106.86C848.91 88.5198 811.38 81.9898 772.28 98.4698C769.53 99.6398 768.69 98.6698 767.39 96.5598C742.63 56.2398 691.6 46.9598 653.39 75.8398C651.62 77.1698 650.39 77.6798 648.15 76.4998C639.76 71.9948 630.001 70.7517 620.75 73.0098C618.24 73.5998 617.19 73.0998 615.98 71.0098C611.61 63.7298 605.45 58.1298 598.35 53.4898C584.452 44.4634 568.299 39.5193 551.73 39.2198C525.98 38.4598 502.52 44.1398 485.49 65.2198C483.67 67.4698 482.37 66.2198 480.82 65.4498C469.056 59.8451 455.887 57.8816 443 59.8112C430.113 61.7407 418.096 67.4754 408.49 76.2798C380.22 44.4798 344.57 36.5798 304.12 43.9698C296.53 45.3598 296.61 45.8198 292.46 39.2198C269.16 2.21978 225.88 -10.3502 187.75 8.89978C172.3 16.7098 159.99 28.1198 149.91 41.8998C147.91 44.5598 146.83 44.8998 144.32 42.6498C139.073 38.2029 133.304 34.4116 127.14 31.3598C114.87 25.0398 101.97 22.0398 88.14 24.4898C69.79 27.7398 56.48 38.4898 45.97 52.9698C43.97 55.6998 42.86 55.7598 40.25 53.8598C28.12 45.0598 14.9199 38.2998 0.0999756 34.8998Z" fill="white"/>
</g>
<defs>
<clipPath id="clip0">
<rect width="1919.99" height="139.58" fill="white" transform="matrix(-1 0 0 1 1919.99 -0.000244141)"/>
</clipPath>
</defs>
</svg>
