<svg width="439" height="397" viewBox="0 0 439 397" fill="none" xmlns="http://www.w3.org/2000/svg">
<g clip-path="url(#clip0)">
<path d="M220.47 180.622C276.081 179.946 323.491 200.236 340.6 228.954C345.027 225.744 349.419 222.46 353.581 218.875C329.188 191.489 279.503 173.076 222.287 173.827C171.879 174.446 127.59 189.744 101.522 212.53C102.577 217.003 103.921 221.393 105.543 225.669C124.874 199.711 168.986 181.241 220.47 180.622Z" fill="#C28CE5"/>
<path d="M220.47 177.544C277.475 176.868 325.872 198.19 341.834 228.053C346.403 224.731 350.882 221.315 355.116 217.561C331.305 189.2 280.685 169.998 222.287 170.636C171.543 171.256 127.044 186.76 101.011 209.809C101.929 214.472 103.185 219.053 104.767 223.511C123.675 197.083 168.298 178.182 220.47 177.544Z" fill="#E3B0FF"/>
<path d="M223.645 166.263C279.168 165.587 328.412 180.978 358.431 205.041L365.328 198.603C332.134 175.46 281.655 161.064 225.232 161.664C170.291 162.34 121.294 177.243 88.6113 200.161C89.6696 202.282 90.8337 204.347 92.1388 206.374C121.699 182.649 169.533 166.92 223.645 166.263Z" fill="#C28CE5"/>
<path d="M223.645 163.86C280.085 163.185 329.947 179.026 359.825 203.746C362.176 201.569 364.528 199.404 366.88 197.252C333.703 173.489 282.572 158.567 225.32 159.262C169.885 159.937 120.5 175.085 87.7471 198.359C88.7818 200.549 89.9106 202.689 91.1335 204.779C120.694 180.603 168.951 164.517 223.645 163.86Z" fill="#E3B0FF"/>
<path d="M318.341 229.217C317.124 234.435 315.131 239.465 314.937 244.927C315.052 248.588 313.89 252.166 311.674 254.969C310.845 255.926 308.535 254.969 307.67 253.542C306.295 251.29 308.552 246.804 305.907 246.241C302.573 245.528 300.721 246.241 299.522 250.877C298.322 255.513 301.286 259.812 302.714 264.354C303.032 265.405 303.949 266.831 301.991 267.113C300.357 267.286 298.711 266.936 297.265 266.106C295.82 265.277 294.64 264.006 293.878 262.458C293.172 260.581 290.227 261.351 289.239 260.093C287.828 258.216 287.881 256.17 286.311 256.677C285.059 257.09 284.195 258.366 283.048 259.098C280.844 260.506 277.422 265.236 274.794 264.842C264.882 263.322 259.908 263.678 253.47 266.156C251.512 266.925 250.048 265.555 248.567 265.874C246.697 266.25 245.709 264.692 244.369 263.903C244.016 264.936 243.293 266.625 244.104 267.77C244.916 268.915 246.362 268.633 247.755 268.633C249.861 268.843 251.855 269.734 253.47 271.186C254.82 271.769 256.31 271.874 257.721 271.486C261.248 270.905 263.118 268.896 266.892 270.529C270.667 272.162 273.718 274.602 273.612 279.651C273.612 283.199 274.212 286.953 273.736 290.312C272.43 299.697 270.596 306.699 264.705 314.713C263.541 316.327 263.277 319.631 262.042 321.264C259.978 323.929 256.116 326.163 253.735 328.565C251.671 330.668 249.925 334.196 247.597 335.886C243.487 339.001 242.729 341.235 239.113 339.377C237.067 338.344 233.487 332.62 232.058 330.574C230.122 327.729 228.758 324.489 228.054 321.057C227.743 319.195 227.537 317.315 227.437 315.426C227.067 311.372 225.673 310.021 222.816 307.806C219.959 305.591 218.989 303.658 216.995 300.467C214.244 296.056 210.47 296.15 206.73 293.541C205.901 293.06 205.177 292.396 204.608 291.593C204.04 290.79 203.639 289.867 203.432 288.886C203.429 286.884 203.553 284.883 203.803 282.898C203.803 280.458 203.185 278.544 203.256 276.216C203.45 269.215 213.062 262.777 218.336 260.262C222.181 258.385 224.65 259.643 228.001 259.474C229.589 259.474 232.181 258.535 233.645 259.924C234.766 260.72 235.946 261.417 237.173 262.008C238.83 262.438 240.529 262.664 242.235 262.683C242.275 262.673 242.318 262.673 242.358 262.683C241.318 262.035 240.327 261.301 239.395 260.487C236.52 257.972 234.21 254.856 230.665 253.467C227.119 252.078 223.433 252.416 219.676 252.642C215.985 252.779 212.295 252.304 208.741 251.234C204.967 250.22 203.556 246.936 203.097 241.849C202.938 240.085 204.032 237.513 204.173 235.523C204.367 232.389 202.198 230.212 204.173 226.796C206.148 223.379 208.565 219.025 211.969 217.016C214.967 215.233 218.512 214.745 221.599 213.262C224.533 211.693 227.285 209.765 229.8 207.519C233.706 203.849 237.83 200.451 242.147 197.346C252.271 190.833 264.529 194.155 274.847 188.749C279.979 186.065 285.588 177.018 291.849 176.812C277.588 161.648 259.23 151.607 239.342 148.094C241.263 149.905 242.833 152.099 243.963 154.551C246.027 159.205 244.298 161.533 242.059 165.324C239.819 169.116 241.935 173.189 238.637 176.098C236.185 178.276 231.935 178.895 228.989 180.021C225.215 181.485 221.44 182.968 217.63 184.376C213.821 185.784 209.482 187.191 205.284 186.44C200.804 185.633 199.799 183.418 197.894 179.627C197.506 178.857 197.171 174.522 193.961 174.371C189.675 174.184 186.465 173.996 183.801 175.873C180.274 178.407 179.092 183.907 178.263 188.374C177.187 194.005 179.798 201.156 176.5 206.261C174.559 209.302 171.049 210.447 167.804 210.86C161.384 211.667 155.211 209.152 148.844 209.096C143.746 209.096 140.025 211.648 138.949 215.909C138.261 218.875 139.743 222.009 139.796 225.069C139.928 229.303 139.572 233.539 138.737 237.682C138.402 239.259 137.062 241.154 135.88 240.16C132.726 237.517 130.064 234.271 128.031 230.587C127.333 234.552 126.85 238.557 126.585 242.581C128.185 243.471 129.668 244.581 130.994 245.884C134.698 249.225 134.381 255.607 136.586 260.056C139.972 266.944 146.586 268.014 151.913 272.369C153.411 273.424 154.682 274.806 155.64 276.425C156.598 278.043 157.221 279.859 157.469 281.753C157.486 283.655 157.255 285.551 156.781 287.384C155.813 292.861 156.734 298.526 159.373 303.339C164.1 312.855 171.561 322.109 181.191 325.956C182.955 326.632 185.371 327.289 186.271 328.809C187.17 330.33 182.267 332.244 181.103 332.995C178.008 335.044 174.504 336.292 170.873 336.636C186.912 347.587 205.627 353.267 224.681 352.969C243.735 352.67 262.285 346.406 278.015 334.958C293.744 323.511 305.957 307.386 313.129 288.598C320.3 269.809 322.113 249.189 318.341 229.311V229.217ZM142.353 255.138C142.106 254.274 142.058 253.36 142.212 252.473C142.289 251.086 142.065 249.699 141.559 248.418C141.303 247.917 141.169 247.356 141.169 246.785C141.169 246.215 141.303 245.653 141.559 245.152C142.529 243.388 143.5 245.584 144.417 246.804C144.98 247.586 145.442 248.445 145.792 249.357C145.881 249.588 145.952 249.826 146.004 250.07C146.054 250.899 145.971 251.73 145.757 252.529C145.373 254.079 145.416 255.715 145.881 257.24C146.022 257.691 146.463 258.441 146.075 258.46C145.221 258.344 144.416 257.969 143.756 257.38C143.096 256.791 142.61 256.013 142.353 255.138ZM149.92 266.869C149.69 267.019 149.814 266.081 148.897 265.405C147.697 264.523 145.616 263.528 145.369 261.801C145.175 260.675 145.916 260.112 146.886 259.699C147.503 259.417 147.521 260.074 147.891 260.844C148.262 261.613 149.126 261.876 149.779 262.533C150.802 263.566 151.137 266.081 149.92 266.869ZM176.376 219.4C175.768 220.825 175.359 222.336 175.159 223.886C175.018 225.069 175.265 226.082 174.436 227.04C173.878 227.605 173.142 227.928 172.372 227.946C171.602 227.963 170.853 227.673 170.273 227.133C167.416 225.031 165.547 221.502 162.689 219.175C161.525 218.255 159.867 217.899 160.291 216.172C160.714 214.445 163.36 213.694 164.876 213.713C166.887 213.713 169.004 215.008 170.644 213.713C171.213 213.135 171.93 212.748 172.705 212.601C173.48 212.454 174.278 212.554 175 212.887C175.82 213.698 176.397 214.749 176.657 215.908C176.918 217.067 176.851 218.282 176.464 219.4H176.376ZM277.616 317.998C276.646 319.612 276.628 323.291 274.759 325.018C272.889 326.745 270.032 326.763 268.18 327.589C265.64 328.697 265.464 324.793 266.24 320.964C266.804 318.111 270.808 317.022 272.624 314.77C274.357 312.62 275.74 310.178 276.716 307.543C277.14 306.379 277.528 304.014 278.392 305.047C281.673 308.82 280.085 313.944 277.704 317.998H277.616Z" fill="#FAB234"/>
<path d="M242.217 197.458C237.901 200.564 233.777 203.962 229.871 207.632C227.356 209.878 224.603 211.806 221.669 213.375C218.583 214.914 215.038 215.402 212.039 217.129C208.635 219.138 206.307 223.436 204.243 226.908C202.18 230.381 204.349 232.539 204.243 235.636C204.102 237.626 203.009 240.197 203.168 241.962C203.626 246.973 205.037 250.258 208.812 251.347C212.366 252.417 216.055 252.892 219.747 252.754C223.504 252.529 227.119 252.079 230.735 253.58C234.351 255.082 236.591 258.085 239.466 260.6C240.398 261.414 241.388 262.148 242.429 262.796C242.388 262.786 242.346 262.786 242.305 262.796C240.599 262.777 238.901 262.551 237.243 262.12C236.016 261.529 234.836 260.833 233.716 260.037C232.252 258.648 229.659 259.493 228.072 259.586C224.721 259.755 222.251 258.554 218.406 260.375C213.115 262.89 203.52 269.328 203.326 276.329C203.326 278.657 203.908 280.571 203.873 283.011C203.623 284.996 203.5 286.996 203.503 288.999C203.709 289.98 204.11 290.903 204.679 291.706C205.248 292.508 205.971 293.173 206.801 293.654C210.54 296.263 214.315 296.169 217.066 300.58C219.059 303.771 219.941 305.723 222.886 307.919C225.832 310.115 227.137 311.485 227.507 315.539C227.607 317.428 227.813 319.308 228.125 321.17C228.829 324.602 230.192 327.842 232.129 330.686C233.504 332.732 237.085 338.457 239.184 339.489C242.711 341.366 243.558 339.114 247.667 335.998C249.995 334.234 251.742 330.78 253.805 328.678C256.186 326.276 260.049 324.042 262.112 321.377C263.347 319.744 263.612 316.44 264.776 314.826C270.667 306.755 272.501 299.81 273.806 290.425C274.282 287.065 273.612 283.311 273.683 279.764C273.789 274.715 270.878 272.256 266.963 270.642C263.047 269.028 261.284 271.017 257.791 271.599C256.381 271.987 254.891 271.882 253.541 271.299C251.925 269.847 249.931 268.956 247.826 268.746C246.433 268.746 244.845 268.746 244.175 267.883C243.505 267.019 244.175 265.048 244.44 264.016C245.78 264.804 246.768 266.362 248.637 265.987C250.119 265.668 251.583 267.038 253.541 266.269C259.978 263.791 264.952 263.434 274.864 264.955C277.492 265.349 280.914 260.619 283.119 259.211C284.265 258.479 285.13 257.203 286.382 256.79C287.952 256.283 287.899 258.366 289.31 260.206C290.297 261.463 293.243 260.675 293.948 262.571C294.711 264.119 295.89 265.39 297.336 266.219C298.782 267.049 300.427 267.399 302.062 267.226C304.019 266.944 303.102 265.518 302.785 264.467C301.356 259.924 298.323 255.814 299.592 250.99C300.862 246.166 302.644 245.64 305.977 246.354C308.658 246.917 306.401 251.403 307.741 253.655C308.605 255.063 310.916 256.039 311.745 255.082C313.961 252.278 315.123 248.701 315.008 245.04C315.202 239.578 317.195 234.548 318.412 229.33C314.611 209.511 305.41 191.324 291.955 177.037C285.694 177.243 280.085 186.29 274.953 188.974C264.564 194.268 252.341 190.945 242.217 197.458Z" fill="#FF781D"/>
<path d="M276.805 307.543C275.828 310.178 274.445 312.62 272.713 314.77C270.949 317.022 266.892 318.111 266.328 320.964C265.552 324.718 265.728 328.697 268.268 327.589C270.12 326.763 273.012 326.688 274.847 325.018C276.681 323.347 276.734 319.612 277.704 317.998C280.085 313.944 281.673 308.82 278.48 305.047C277.616 304.071 277.228 306.379 276.805 307.543Z" fill="#FF781D"/>
<path d="M186.271 328.715C185.371 327.195 182.902 326.538 181.191 325.862C171.561 322.108 164.1 312.723 159.373 303.245C156.734 298.432 155.813 292.767 156.781 287.29C157.255 285.457 157.486 283.561 157.469 281.659C157.221 279.765 156.598 277.949 155.64 276.331C154.682 274.712 153.411 273.33 151.913 272.275C146.621 267.92 139.972 266.85 136.586 259.962C134.381 255.513 134.698 249.131 130.994 245.79C129.691 244.521 128.238 243.435 126.673 242.562C126.515 244.965 126.409 247.367 126.409 249.807C126.403 267.068 130.471 284.054 138.24 299.205C146.009 314.357 157.23 327.189 170.873 336.524C174.504 336.179 178.008 334.932 181.103 332.882C182.267 332.225 187.117 330.142 186.271 328.715Z" fill="#FF781D"/>
<path d="M135.968 240.253C137.15 241.248 138.49 239.352 138.826 237.776C139.66 233.633 140.016 229.397 139.884 225.162C139.884 222.103 138.349 218.968 139.037 216.003C140.025 211.742 143.835 209.17 148.932 209.189C155.299 209.189 161.472 211.761 167.892 210.954C171.138 210.541 174.648 209.396 176.588 206.355C179.868 201.25 177.258 194.192 178.351 188.467C179.18 184 180.292 178.501 183.89 175.967C186.553 174.09 189.763 174.277 194.049 174.465C197.259 174.615 197.576 178.951 197.982 179.721C199.887 183.475 200.892 185.727 205.372 186.534C209.499 187.285 213.803 185.915 217.719 184.469C221.634 183.024 225.303 181.579 229.077 180.115C232.023 178.989 236.273 178.369 238.725 176.192C242.023 173.283 239.924 169.172 242.147 165.418C244.369 161.664 246.115 159.299 244.052 154.644C242.921 152.192 241.351 149.999 239.43 148.187C214.435 143.714 188.788 149.848 167.994 165.271C147.2 180.693 132.916 204.177 128.208 230.681C130.214 234.356 132.846 237.602 135.968 240.253Z" fill="#FF781D"/>
<path d="M145.863 257.24C145.399 255.715 145.356 254.08 145.74 252.529C145.953 251.73 146.036 250.899 145.986 250.07C145.935 249.827 145.864 249.588 145.775 249.357C145.425 248.445 144.962 247.586 144.399 246.804C143.482 245.584 142.512 243.388 141.542 245.152C141.286 245.653 141.151 246.215 141.151 246.785C141.151 247.356 141.286 247.917 141.542 248.418C142.048 249.699 142.271 251.086 142.194 252.473C142.04 253.36 142.088 254.274 142.335 255.138C142.591 256.01 143.075 256.786 143.731 257.375C144.388 257.964 145.188 258.34 146.039 258.46C146.392 258.441 146.004 257.691 145.863 257.24Z" fill="#FF781D"/>
<path d="M147.909 260.9C147.539 260.131 147.521 259.474 146.904 259.755C145.934 260.168 145.14 260.731 145.387 261.857C145.669 263.528 147.75 264.579 148.914 265.461C149.831 266.137 149.708 267.075 149.937 266.925C151.101 266.137 150.766 263.622 149.761 262.589C149.144 261.876 148.297 261.688 147.909 260.9Z" fill="#FF781D"/>
<path d="M170.732 213.638C169.092 215.008 166.975 213.732 164.964 213.638C163.448 213.638 160.855 214.164 160.379 216.097C159.902 218.03 161.613 218.18 162.777 219.1C165.635 221.352 167.504 224.956 170.362 227.058C170.928 227.646 171.685 227.979 172.476 227.989C173.267 228 174.032 227.687 174.612 227.115C175.441 226.157 175.194 225.238 175.335 223.961C175.535 222.411 175.945 220.9 176.552 219.475C176.965 218.356 177.054 217.131 176.809 215.958C176.564 214.784 175.996 213.715 175.177 212.887C174.45 212.524 173.638 212.401 172.846 212.535C172.053 212.669 171.317 213.053 170.732 213.638Z" fill="#FF781D"/>
<path opacity="0.2" d="M270.067 275.916C243.434 324.999 192.656 346.171 155.669 323.46C140.227 307.484 130.25 286.47 127.326 263.763C124.401 241.057 128.698 217.961 139.531 198.153C165.793 148.92 222.128 135.555 263.859 156.015C289.874 183.043 293.384 232.989 270.067 275.916Z" fill="white"/>
<path opacity="0.2" d="M235.659 246.633C252.798 215.041 247.407 177.582 223.618 162.965C199.829 148.349 166.649 162.11 149.51 193.702C132.371 225.293 137.762 262.753 161.551 277.369C185.341 291.985 218.52 278.224 235.659 246.633Z" fill="white"/>
<path opacity="0.2" d="M210.434 217.955C200.857 235.598 182.32 243.294 169.039 235.129C155.758 226.964 152.742 206.036 162.319 188.392C171.896 170.749 190.486 163.072 203.697 171.237C216.907 179.402 219.994 200.311 210.434 217.955Z" fill="white"/>
<path d="M320.775 194.493C321.507 199.292 322.002 204.129 322.257 208.983C337.954 220.939 347.32 235.861 347.514 252.153C347.972 292.49 291.867 325.881 222.287 326.726C152.706 327.571 95.7193 295.53 95.2431 255.269C95.0667 238.658 104.468 223.248 120.43 210.785C121.474 206.109 122.775 201.502 124.327 196.989C94.9785 212.85 76.7059 235.467 76.9881 260.356C77.5173 307.168 143.464 344.313 224.297 343.337C305.131 342.361 370.213 303.62 369.667 256.827C369.384 231.826 350.547 209.64 320.775 194.493Z" fill="#C28CE5"/>
<path d="M320.175 191.114C321.061 195.953 321.691 200.841 322.063 205.754C337.937 217.73 347.32 232.708 347.514 249.056C347.972 289.393 291.867 322.784 222.287 323.629C152.706 324.473 95.7898 292.452 95.296 252.116C95.102 235.223 104.873 219.531 121.4 206.956C122.589 202.262 124.044 197.648 125.756 193.141C95.5782 209.02 76.6883 231.938 76.9881 257.146C77.5173 303.939 143.464 341.103 224.297 340.109C305.131 339.114 370.213 300.411 369.667 253.599C369.384 228.579 350.283 206.28 320.175 191.114Z" fill="#E3B0FF"/>
<path d="M299.381 170.036C299.963 172.157 300.439 174.315 300.898 176.474C352.928 191.827 388.592 223.004 389.086 259.399C389.685 311.954 316.63 355.406 225.902 356.514C135.175 357.621 61.0614 315.896 60.4617 263.378C59.9679 226.908 95.1373 194.831 146.957 178.313C147.715 176.436 148.473 174.39 149.267 172.457C88.3291 189.781 46.3693 226.232 46.8455 267.901C47.4981 325.337 128.437 370.929 227.613 369.728C326.79 368.526 406.67 320.926 406.018 263.566C405.541 221.352 361.8 185.615 299.381 170.036Z" fill="#C28CE5"/>
<path d="M298.64 167.445C299.257 169.566 299.839 171.725 300.404 173.902C352.717 189.218 388.592 220.47 389.05 256.996C389.65 309.551 316.595 353.004 225.867 354.092C135.139 355.181 61.0614 313.456 60.4617 260.9C59.9679 224.262 95.6135 191.996 148.015 175.498C148.791 173.621 149.602 171.593 150.431 169.66C88.8583 186.853 46.3693 223.492 46.8455 265.386C47.4981 322.822 128.437 368.414 227.613 367.212C326.79 366.011 406.67 318.411 406.018 261.05C405.542 218.781 361.465 182.93 298.64 167.445Z" fill="#E3B0FF"/>
<path d="M321.428 18.1691V32.697L342.311 19.8584V5.34937L321.428 18.1691Z" fill="#FAB234"/>
<path opacity="0.5" d="M339.348 43.4896C339.348 49.3646 335.996 56.1592 331.869 58.6932C327.742 61.2271 324.391 58.543 324.391 52.6868C324.391 46.8306 327.742 40.0172 331.869 37.4833C335.996 34.9494 339.348 37.6334 339.348 43.4896Z" fill="#FF52A9"/>
<path opacity="0.5" d="M291.991 84.4642L329.03 49.6086C329.03 49.6086 329.03 49.6086 329.03 49.496C329.059 48.3387 329.314 47.2004 329.778 46.1535C330.243 45.1066 330.907 44.1739 331.728 43.4146V26.5218L332.98 25.771V42.8327C334.356 42.4761 335.379 43.6023 335.379 45.7045C335.359 46.9668 335.061 48.2066 334.51 49.3245C333.958 50.4424 333.169 51.4075 332.204 52.1426C331.981 52.3598 331.708 52.512 331.413 52.5847C331.118 52.6573 330.811 52.648 330.52 52.5575C330.229 52.4669 329.966 52.2983 329.754 52.0679C329.542 51.8374 329.39 51.5529 329.312 51.2416L292.044 86.1722L291.991 84.4642Z" fill="#FF52A9"/>
<path d="M332.91 104.679C332.557 104.548 327.989 100.925 327.16 100.118C326.331 99.311 326.119 100.005 326.472 100.944C326.825 101.882 327.407 103.178 327.407 103.178C326.171 102.281 324.736 101.744 323.244 101.62C321.022 101.62 320.087 102.614 322.01 104.679C323.438 106.2 330.917 109.109 330.917 109.109L332.91 104.679Z" fill="#FFD0CA"/>
<path d="M358.132 117.63C358.132 122.154 353.246 125.363 349.93 121.553C348.919 120.374 348.156 118.979 347.69 117.461C348.742 112.026 350.151 106.676 351.906 101.451L356.809 102.295C357.506 107.378 357.947 112.497 358.132 117.63Z" fill="#FFD0CA"/>
<path d="M353.44 112.074L359.19 109.841C358.42 106.173 357.449 102.557 356.28 99.0107C355.363 96.6832 354.516 94.2431 351.694 93.68C351.24 93.5832 350.772 93.5859 350.319 93.6882C349.866 93.7904 349.437 93.9899 349.059 94.2746C348.681 94.5592 348.361 94.923 348.12 95.3436C347.879 95.7642 347.72 96.2328 347.655 96.7207C347.214 99.7802 353.44 112.074 353.44 112.074Z" fill="#EF3A8D"/>
<path d="M352.011 215.477C351.2 217.542 349.33 217.354 345.538 215.909C342.496 214.813 339.621 213.251 337.002 211.273C334.621 209.396 334.585 209.152 334.268 207.876C333.827 205.999 336.279 205.079 340.353 206.43L341.464 206.806C341.112 206.842 340.771 206.959 340.466 207.151C340.162 207.342 339.9 207.602 339.7 207.913C338.96 209.377 341.27 210.973 343.704 212.268C344.536 212.816 345.472 213.162 346.444 213.282C347.417 213.402 348.402 213.293 349.33 212.962L351.994 211.723C352.152 213.45 352.505 214.257 352.011 215.477Z" fill="#212193"/>
<path d="M347.32 191.64C347.32 191.978 347.214 188.449 347.126 183.963C344.283 185.274 341.287 186.171 338.219 186.628C338.466 188.637 338.748 190.626 339.03 192.503C339.718 201.1 340.318 212.23 340.318 212.23C340.318 212.23 339.189 211.705 336.949 210.916C336.599 210.955 336.261 211.072 335.957 211.259C335.653 211.447 335.39 211.701 335.185 212.005C334.444 213.488 336.755 215.064 339.189 216.36C340.025 216.905 340.963 217.252 341.937 217.375C342.912 217.498 343.9 217.395 344.833 217.073L347.461 215.853C347.221 214.169 347.185 212.46 347.355 210.766C347.646 204.394 347.634 198.011 347.32 191.64Z" fill="#FFD0CA"/>
<path d="M352.258 187.304C352.347 186.215 352.452 185.033 352.576 183.813C349.73 184.777 346.735 185.147 343.757 184.901C343.933 188.336 344.092 191.508 344.216 193.404C344.604 199.823 344.868 208.138 344.868 208.138C344.868 208.138 343.739 207.594 341.499 206.806C341.147 206.842 340.807 206.959 340.502 207.151C340.197 207.342 339.935 207.602 339.736 207.913C338.995 209.377 341.305 210.973 343.739 212.268C344.572 212.816 345.507 213.162 346.48 213.282C347.452 213.402 348.438 213.293 349.366 212.962L352.029 211.723C351.807 210.038 351.777 208.33 351.941 206.637C352.135 202.808 351.994 190.983 352.258 187.304Z" fill="#FFD0CA"/>
<path d="M347.461 219.607C346.649 221.671 344.78 221.484 340.988 220.02C337.944 218.937 335.067 217.381 332.451 215.402C330.07 213.525 330.035 213.262 329.735 211.986C329.276 210.109 331.728 209.208 335.802 210.56L336.914 210.935C336.564 210.973 336.226 211.09 335.922 211.278C335.618 211.466 335.355 211.72 335.15 212.024C334.409 213.506 336.719 215.083 339.153 216.378C339.99 216.924 340.928 217.27 341.902 217.393C342.876 217.517 343.864 217.414 344.798 217.091L347.461 215.853C347.655 217.542 347.99 218.349 347.461 219.607Z" fill="#212193"/>
<path d="M340.6 171.762C339.417 173.463 337.907 174.875 336.17 175.904C334.433 176.933 332.51 177.556 330.529 177.731C330.529 184.507 339.594 209.64 339.612 210.672C341.252 212.793 343.51 213.488 348.06 212.174C348.237 208.683 344.215 188.374 340.6 171.762Z" fill="#EF3A8D"/>
<path d="M353.44 135.142C350.706 128.31 350.935 127.635 351.041 127.635L333.033 130C333.033 130 332.557 134.73 331.799 138.596C330.652 144.377 330.511 170.993 330.529 179.139C332.063 178.932 332.292 179.495 333.862 179.007C336.667 178.125 338.272 183.268 340.617 181.466C340.617 181.466 341.834 177.6 341.834 177.562C342.311 167.389 342.787 161.833 344.674 156.014C344.868 159.074 343.492 173.771 343.651 180.04C343.81 185.783 342.998 199.992 342.998 206.318C345.38 209.377 350.212 209.358 352.646 207.838C353.352 203.746 353.934 181.222 354.41 174.653C354.498 172.175 355.362 155.883 355.698 152.899C356.518 146.872 355.736 140.721 353.44 135.142Z" fill="#EF3A8D"/>
<path d="M282.308 96.8711C284.159 96.8711 285.253 96.1203 287.475 97.5468C289.098 98.5979 290.915 101.151 292.767 101.113C294.619 101.075 296.894 98.3539 298.252 97.6218C301.444 95.9326 303.667 89.7385 306.295 87.0544C307.953 85.3464 309.011 86.7729 309.822 86.116C310.578 85.0519 311.08 83.809 311.286 82.4934C312.291 78.9271 310.81 77.5006 309.187 77.9886C305.413 79.1336 305.907 81.142 304.372 81.63C301.797 82.4558 300.298 83.3756 299.398 82.2306C297.247 79.4902 295.783 77.9511 292.872 77.1628C290.474 76.5058 290.844 76.1116 287.81 76.8061C286.593 77.0689 284.883 77.9511 283.701 78.3077C280.861 79.1711 278.974 79.3401 278.304 76.6184C277.845 74.7415 275.217 74.0094 275.041 72.3577C274.864 70.7059 275.517 70.7998 275.552 68.2846C275.715 67.1423 275.556 65.9742 275.094 64.9283C274.632 63.8825 273.89 63.0059 272.96 62.4097C272.721 62.1797 272.508 61.9215 272.325 61.6401C270.033 66.3956 268.987 71.7202 269.298 77.0543C269.608 82.3884 271.263 87.5351 274.088 91.9534C275.237 93.7375 276.568 95.3805 278.057 96.8523C279.472 96.9397 280.891 96.946 282.308 96.8711Z" fill="#EF3A8D"/>
<path d="M282.308 96.8711C284.159 96.8711 285.253 96.1203 287.475 97.5468C289.098 98.5979 290.915 101.151 292.767 101.113C294.619 101.075 296.894 98.3539 298.252 97.6218C301.444 95.9326 303.667 89.7385 306.295 87.0544C307.953 85.3464 309.011 86.7729 309.822 86.116C310.578 85.0519 311.08 83.809 311.286 82.4934C312.291 78.9271 310.81 77.5006 309.187 77.9886C305.413 79.1336 305.907 81.142 304.372 81.63C301.797 82.4558 300.298 83.3756 299.398 82.2306C297.247 79.4902 295.783 77.9511 292.872 77.1628C290.474 76.5058 290.844 76.1116 287.81 76.8061C286.593 77.0689 284.883 77.9511 283.701 78.3077C280.861 79.1711 278.974 79.3401 278.304 76.6184C277.845 74.7415 275.217 74.0094 275.041 72.3577C274.864 70.7059 275.517 70.7998 275.552 68.2846C275.715 67.1423 275.556 65.9742 275.094 64.9283C274.632 63.8825 273.89 63.0059 272.96 62.4097C272.721 62.1797 272.508 61.9215 272.325 61.6401C270.033 66.3956 268.987 71.7202 269.298 77.0543C269.608 82.3884 271.263 87.5351 274.088 91.9534C275.237 93.7375 276.568 95.3805 278.057 96.8523C279.472 96.9397 280.891 96.946 282.308 96.8711Z" fill="#FF52A9"/>
<path d="M325.731 75.0792C325.667 68.3724 323.495 61.8815 319.562 56.6411C315.628 51.4007 310.16 47.7123 304.027 46.164C297.895 44.6157 291.452 45.2964 285.726 48.0978C279.999 50.8992 275.319 55.6599 272.43 61.6212C272.614 61.9026 272.827 62.1608 273.065 62.3908C273.995 62.987 274.738 63.8636 275.2 64.9094C275.661 65.9552 275.821 67.1233 275.658 68.2657C275.658 70.7809 274.97 70.6495 275.147 72.3388C275.323 74.028 277.951 74.7225 278.41 76.5995C279.08 79.3211 280.967 79.1522 283.807 78.2888C284.988 77.9322 286.699 77.05 287.916 76.7872C290.95 76.0927 290.58 76.4869 292.978 77.1438C295.888 77.9322 297.352 79.4713 299.504 82.2117C300.404 83.3566 301.903 82.4369 304.478 81.611C306.012 81.123 305.519 79.1147 309.293 77.9697C310.916 77.4817 312.397 78.9082 311.392 82.4745C311.186 83.7901 310.684 85.033 309.928 86.097C309.064 86.754 308.006 85.3275 306.4 87.0355C303.772 89.7196 301.55 95.9136 298.358 97.6029C297 98.3349 294.83 101.038 292.872 101.094C290.915 101.15 289.151 98.5789 287.581 97.5278C285.359 96.1013 284.265 96.7958 282.413 96.8521C281.056 96.9267 279.696 96.9267 278.339 96.8521C282.905 101.474 288.801 104.325 295.076 104.945C301.351 105.565 307.639 103.917 312.926 100.268C312.852 100.218 312.781 100.162 312.715 100.099C311.893 98.9192 311.294 97.5806 310.951 96.1576C310.739 95.069 311.533 93.849 311.392 92.7415C311.251 91.6341 310.563 91.9344 309.857 91.8594C309.487 91.8594 309.364 91.1086 309.275 90.6018C309.184 90.1652 309.21 89.7102 309.351 89.2887C309.491 88.8671 309.74 88.4961 310.069 88.218C310.71 87.7164 311.467 87.4095 312.259 87.3302C313.051 87.2508 313.849 87.402 314.567 87.7675C315.404 88.0257 316.175 88.4812 316.824 89.1002C317.53 89.7571 317.495 91.9157 318.429 91.4276C319.364 90.9396 319.893 90.095 320.44 90.0762C320.932 90.0093 321.43 90.0093 321.922 90.0762C323.198 87.7253 324.165 85.1991 324.797 82.5683C325.401 80.1234 325.715 77.6073 325.731 75.0792Z" fill="#EF3A8D"/>
<path d="M320.44 90.095C319.893 90.095 319.399 90.9208 318.429 91.4464C317.459 91.9719 317.53 89.7759 316.824 89.1189C316.175 88.4999 315.404 88.0445 314.567 87.7863C313.849 87.4208 313.051 87.2696 312.259 87.3489C311.467 87.4283 310.71 87.7351 310.069 88.2368C309.699 88.4995 309.41 88.8737 309.241 89.3117C309.071 89.7496 309.028 90.2314 309.117 90.6956C309.205 91.2024 309.328 91.9156 309.699 91.9532C310.404 91.9532 311.11 91.9532 311.233 92.8354C311.357 93.7175 310.581 95.1628 310.792 96.2515C311.135 97.6744 311.734 99.013 312.556 100.193C312.622 100.255 312.693 100.312 312.768 100.362C316.544 97.7646 319.682 94.2445 321.922 90.095C321.43 90.028 320.932 90.028 320.44 90.095Z" fill="#EF3A8D"/>
<path d="M320.44 90.095C319.893 90.095 319.399 90.9208 318.429 91.4464C317.459 91.9719 317.53 89.7759 316.824 89.1189C316.175 88.4999 315.404 88.0445 314.567 87.7863C313.849 87.4208 313.051 87.2696 312.259 87.3489C311.467 87.4283 310.71 87.7351 310.069 88.2368C309.699 88.4995 309.41 88.8737 309.241 89.3117C309.071 89.7496 309.028 90.2314 309.117 90.6956C309.205 91.2024 309.328 91.9156 309.699 91.9532C310.404 91.9532 311.11 91.9532 311.233 92.8354C311.357 93.7175 310.581 95.1628 310.792 96.2515C311.135 97.6744 311.734 99.013 312.556 100.193C312.622 100.255 312.693 100.312 312.768 100.362C316.544 97.7646 319.682 94.2445 321.922 90.095C321.43 90.028 320.932 90.028 320.44 90.095Z" fill="#FF52A9"/>
<path d="M312.186 63.2917C312.662 62.3908 312.186 60.9455 312.574 60.2323C313.085 59.0122 313.949 56.5909 312.75 54.9392C311.551 53.2874 308.958 53.0622 306.594 54.0382C303.861 55.2583 305.73 58.3177 304.707 60.5138C304.213 61.5649 302.009 61.4711 300.739 61.5274C299.081 61.5274 298.781 62.5597 297.917 64.2678C297.053 65.9758 294.601 67.0832 295.553 69.0541C295.871 69.5739 296.304 70.002 296.815 70.3001C297.326 70.5981 297.899 70.7569 298.481 70.7621C300.051 70.3867 301.515 69.9926 302.203 71.9071C302.405 72.8654 302.928 73.7125 303.675 74.2895C304.422 74.8665 305.341 75.134 306.259 75.0416C308.323 74.6287 309.434 72.9582 310.845 71.3815C311.85 70.2741 313.314 69.3919 313.244 68.1907C313.173 66.6515 311.41 64.7746 312.186 63.2917Z" fill="#FF52A9"/>
<path opacity="0.1" d="M311.039 82.5872C303.314 96.8522 288.551 103.009 277.81 96.4017C273.162 91.4382 270.292 84.9013 269.695 77.9229C269.099 70.9446 270.815 63.964 274.545 58.1898C278.275 52.4155 283.786 48.2113 290.122 46.3048C296.458 44.3983 303.221 44.9097 309.24 47.7504C316.807 55.6713 317.812 70.1803 311.039 82.5872Z" fill="white"/>
<path opacity="0.1" d="M301.06 74.1442C306.038 64.9693 304.466 54.086 297.548 49.8359C290.631 45.5857 280.988 49.578 276.01 58.753C271.032 67.9279 272.605 78.8112 279.522 83.0613C286.44 87.3115 296.083 83.3192 301.06 74.1442Z" fill="white"/>
<path opacity="0.1" d="M293.719 65.8068C291.021 70.9498 285.553 73.2021 281.69 70.7996C277.828 68.3971 276.946 62.3532 279.732 57.229C282.519 52.1049 287.899 49.8713 291.761 52.2363C295.624 54.6013 296.488 60.6827 293.719 65.8068Z" fill="white"/>
<path d="M339.841 70.8372C338.889 71.5317 335.044 71.4191 334.074 79.6402C333.192 86.9229 335.185 87.5986 336.578 88.218C337.337 88.5559 340.106 89.5319 340.106 89.5319L339.806 96.9084C341.949 97.7296 344.295 97.7296 346.438 96.9084L349.701 95.4819C348.815 93.5013 348.45 91.3027 348.643 89.119C348.907 84.1074 350.565 76.9749 349.383 74.3284C349.022 73.3868 348.476 72.5383 347.782 71.8398C347.087 71.1412 346.261 70.6088 345.357 70.2781C344.453 69.9475 343.494 69.8263 342.542 69.9228C341.591 70.0192 340.67 70.331 339.841 70.8372Z" fill="#FFD0CA"/>
<path d="M356.28 139.478C355.239 140.886 353.793 141.074 351.623 141.806C351.283 140.348 350.684 138.972 349.86 137.752C349.86 137.752 349.225 140.961 348.89 142.913C347.002 143.401 343.475 143.964 342.646 144.077C338.995 144.546 332.293 142.2 330.582 139.272C332.804 131.877 333.827 117.555 333.827 117.555C333.827 117.555 330.564 108.17 332.892 103.121C333.577 101.491 334.621 100.06 335.935 98.9497C337.248 97.839 338.794 97.081 340.441 96.7397C342.805 95.895 350.389 94.4685 350.389 94.4685C350.389 94.4685 357.585 100.437 355.997 107.908C355.057 112.405 354.52 116.986 354.392 121.591C354.198 124.425 356.28 136.701 356.28 139.478Z" fill="#FF52A9"/>
<path d="M330.564 127.766C328.571 129.024 328.13 129.23 325.431 127.635C323.862 125.457 326.701 123.881 325.872 121.14C327.742 115.509 330.335 109.578 330.335 109.578L338.325 112.243C338.325 112.243 336.331 117.443 333.897 122.642C333.078 124.545 331.949 126.28 330.564 127.766Z" fill="#FFD0CA"/>
<path d="M305.766 109.522C308.517 110.629 310.016 111.117 310.016 111.117C310.074 110.333 309.927 109.547 309.593 108.846C309.046 107.814 309.963 106.556 310.969 108.396C311.974 110.235 313.667 111.267 314.496 112.938C315.325 114.608 316.86 115.134 321.551 117.255C324.197 118.456 326.56 119.357 328.412 120.221C327.306 122.721 326.591 125.396 326.296 128.141C321.004 125.307 314.214 118.757 312.397 117.931C309.069 116.52 306.01 114.479 303.367 111.906C302.044 110.291 303.367 108.546 305.766 109.522Z" fill="#FFD0CA"/>
<path d="M335.503 99.3108C336.676 99.2743 337.824 99.6826 338.742 100.463C339.659 101.243 340.286 102.345 340.512 103.572C341.905 108.696 340.071 111.08 338.977 113.67C338.624 114.496 337.108 117.424 337.108 117.424C335.093 117.663 333.062 117.173 331.34 116.035C330.024 115.311 329.006 114.094 328.483 112.619C328.483 112.619 329.365 109.015 330.247 105.768C331.164 102.915 332.698 100.043 335.503 99.3108Z" fill="#EF3A8D"/>
<path d="M337.76 97.7532C338.047 97.0581 338.499 96.4541 339.071 96.0001C339.643 95.5462 340.315 95.2577 341.023 95.1629C347.902 94.4684 349.031 93.4361 349.031 93.4361C349.455 93.3557 349.893 93.4108 350.289 93.5945C350.684 93.7782 351.02 94.0823 351.253 94.4685L352.082 95.97C352.082 95.97 343.933 100.231 337.76 97.7532Z" fill="#E2796F"/>
<path d="M333.351 76.637C334.66 77.5878 336.062 78.3869 337.531 79.0208C336.808 92.1596 334.303 94.9 339.295 98.0721C340.73 98.6791 341.974 99.7067 342.882 101.036C343.791 102.364 344.326 103.94 344.427 105.58C345.309 113.933 350.195 115.584 350.195 115.584C350.195 115.584 355.327 110.366 355.486 97.7718C355.486 91.1649 355.063 74.0468 352.682 70.9686C348.837 65.9758 344.692 65.9007 340.723 67.6651C337.601 66.933 334.233 68.4159 333.351 76.637Z" fill="#212193"/>
<path d="M96.3366 291.176C94.284 297.548 92.8479 304.126 92.0507 310.809C92.3505 314.188 97.7123 317.585 98.6119 314.957C99.7054 311.785 101.716 304.596 102.369 302.757C104.056 297.763 105.487 292.675 106.655 287.516C106.954 281.885 109.582 272.5 113.039 268.652C112.221 268.203 111.299 268.013 110.383 268.107C109.467 268.2 108.595 268.572 107.872 269.178C105.555 271.519 103.587 274.221 102.034 277.192C101.293 278.731 97.8182 287.178 96.3366 291.176Z" fill="#212193"/>
<path d="M69.0513 376.954C66.776 379.319 66.0705 379.995 63.954 382.191C62.7194 383.467 63.7247 384.649 66.0881 384.556C69.2755 384.208 72.4167 383.484 75.4537 382.397C77.9053 381.311 80.2655 380.005 82.5087 378.493C83.5093 377.874 84.2528 376.875 84.59 375.696V371.755L73.3901 372.261C73.3901 372.261 71.5029 374.401 69.0513 376.954Z" fill="#3333AA"/>
<path d="M88.7524 389.398C86.4772 391.763 85.7717 392.439 83.6551 394.635C82.4205 395.911 83.4435 397.094 85.7893 397C89.0079 396.669 92.1801 395.945 95.2431 394.841C97.6913 393.755 100.051 392.456 102.298 390.956C103.299 390.323 104.046 389.321 104.397 388.141V381.196L93.056 384.781C93.056 384.781 91.2217 386.846 88.7524 389.398Z" fill="#3333AA"/>
<path d="M128.755 320.663L106.39 311.579C103.18 314.642 99.6881 317.352 95.9662 319.668C92.033 322.184 81.1859 329.053 77.7113 331.587C75.5771 333.201 74.6071 336.674 73.7781 344.501C72.4024 357.414 71.397 372.149 71.397 372.149C72.3831 373.346 73.6152 374.286 74.9979 374.895C76.3805 375.504 77.8763 375.765 79.3692 375.659C81.8853 375.653 84.3808 375.176 86.7417 374.251L87.5884 344.538L105.914 333.276C105.914 333.276 95.5253 340.127 94.0261 346.209C92.8643 351.017 92.2718 355.96 92.2623 360.924C91.8743 374.063 91.7332 382.641 91.7332 382.641C91.7332 382.641 92.5445 386.996 98.0474 386.977C100.923 386.725 103.63 385.434 105.72 383.317L106.831 353.285C106.831 353.285 122.705 341.272 126.814 336.205C131.365 330.442 128.755 320.663 128.755 320.663Z" fill="#212193"/>
<path d="M110.27 269.947C110.27 269.947 103.586 275.691 102.774 283.818C102.386 287.873 103.409 301.706 103.445 310.622C100.217 312.949 91.0982 318.674 91.0982 318.674C91.0982 318.674 98.506 321.095 101.399 326.538C103.287 325.658 105.065 324.529 106.69 323.179C106.69 323.179 106.39 324.08 104.714 327.665C106.725 328.322 113.621 326.613 120.024 329.542C123.39 331.301 127.196 331.873 130.889 331.175C131.534 327.46 131.641 323.662 131.206 319.913C130.501 314.995 128.79 309.552 129.143 306.661C130.236 297.614 131.894 283.011 131.594 280.627C131.1 276.629 122.581 272.294 122.581 272.294C122.581 272.294 116.532 267.32 110.27 269.947Z" fill="#3333AA"/>
<path d="M114.151 269.177C114.151 269.177 110.253 269.177 106.937 276.028C105.755 278.487 104.961 279.782 104.961 279.782L106.937 281.828L104.132 283.255C104.132 283.255 103.127 293.71 103.938 298.008C104.838 302.813 109.353 311.578 109.353 311.578C110.562 307.439 111.981 303.372 113.604 299.397C114.891 296.976 119.795 290.256 119.795 290.256L117.343 286.314L121.347 284.925C121.347 284.925 126.973 277.417 126.391 275.128C126.062 273.893 125.434 272.772 124.571 271.876C123.707 270.98 122.638 270.341 121.47 270.022L114.151 269.177Z" fill="#212193"/>
<path d="M109.547 276.929C108.571 280.135 107.752 283.393 107.096 286.69C106.214 291.326 108.648 306.473 108.648 306.473C108.648 306.473 110.799 291.683 113.639 287.384C116.009 283.906 118.595 280.601 121.382 277.493C121.382 277.493 112.457 275.747 109.547 276.929Z" fill="white"/>
<path d="M111.205 277.887L110.729 281.847C109.43 283.237 108.509 284.975 108.066 286.878C107.745 291.248 107.633 295.634 107.731 300.016L108.648 306.511L109.953 302.044C109.953 302.044 110.958 295.887 111.822 292.096C111.867 290.935 111.997 289.781 112.21 288.642C112.637 286.797 112.879 284.91 112.934 283.011L115.244 280.064L113.039 277.305L111.205 277.887Z" fill="url(#paint0_linear)"/>
<path d="M112.669 269.684L112.263 275.916C113.058 277.042 113.982 278.057 115.015 278.938C117.149 278.243 122.07 273.307 122.07 273.307L120.43 263.584L112.669 269.684Z" fill="#FCB9B4"/>
<path d="M121.347 252.998C120.563 251.953 119.552 251.128 118.402 250.592C117.251 250.057 115.994 249.829 114.742 249.927C113.489 250.025 112.278 250.446 111.213 251.155C110.148 251.863 109.261 252.837 108.63 253.993C104.274 260.825 108.383 272.031 112.158 271.374C115.778 270.61 119.002 268.443 121.206 265.292C123.604 261.163 123.075 255.269 121.347 252.998Z" fill="#FFD0CA"/>
<path d="M112.546 271.393L113.039 277.192L109.159 278.882C109.159 278.882 108.753 272.744 112.546 271.393Z" fill="white"/>
<path d="M121.505 269.947C120.464 271.551 119.283 273.047 117.978 274.414C116.56 275.689 114.908 276.635 113.128 277.192L114.574 281.847C117.218 280.597 119.683 278.954 121.894 276.967C121.894 276.967 124.134 272.688 121.505 269.947Z" fill="white"/>
<path d="M106.99 256.283C107.58 257.378 108.442 258.279 109.481 258.888C110.519 259.497 111.696 259.79 112.881 259.736C114.674 259.835 116.469 259.574 118.172 258.967L117.925 263.096C118.283 263.104 118.64 263.053 118.983 262.946C119.371 261.369 120.006 261.069 120.747 261.67C121.488 262.27 121.453 265.292 121.453 265.292C122.404 264.319 123.163 263.154 123.687 261.865C124.211 260.576 124.489 259.189 124.504 257.784C124.504 254.838 122.087 248.4 117.008 247.799C115.071 247.416 113.069 247.696 111.291 248.6C109.513 249.504 108.05 250.985 107.113 252.829C106.841 253.355 106.688 253.941 106.667 254.54C106.645 255.14 106.756 255.737 106.99 256.283Z" fill="#212193"/>
<path d="M118.401 327.627H117.519L97.3243 315.201C96.6587 314.885 95.9331 314.737 95.2047 314.769C94.4763 314.802 93.7649 315.014 93.1266 315.389L79.528 323.742C79.3956 323.828 79.2766 323.935 79.1752 324.061H78.4874V325.281C78.5096 325.501 78.5823 325.712 78.6992 325.895C78.8161 326.079 78.9735 326.228 79.1576 326.332L99.529 338.832C100.193 339.152 100.918 339.303 101.647 339.274C102.375 339.244 103.087 339.035 103.727 338.664L117.378 330.349C117.656 330.223 117.896 330.019 118.07 329.757C118.245 329.495 118.347 329.186 118.366 328.866L118.401 327.627Z" fill="#C28CE5"/>
<path d="M99.5819 337.706L79.2105 325.187C78.1522 324.53 78.2757 323.31 79.5279 322.615L93.1265 314.244C93.7662 313.872 94.4783 313.663 95.2067 313.634C95.9352 313.604 96.66 313.755 97.3243 314.075L117.678 326.594C118.754 327.251 118.613 328.471 117.378 329.185L103.78 337.537C103.14 337.909 102.428 338.118 101.699 338.147C100.971 338.177 100.246 338.026 99.5819 337.706Z" fill="#FBF3FF"/>
<path d="M95.6311 314.469L81.2741 323.291L102.669 336.374L117.061 327.571L95.6311 314.469Z" fill="#EACAFF"/>
<path d="M94.4141 314.338L93.3029 315.014L114.697 328.077L115.844 327.439L94.4141 314.338Z" fill="#FBF3FF"/>
<path d="M110.729 326.557L109.635 327.233L112.863 329.203L114.009 328.546L110.729 326.557Z" fill="#FBF3FF"/>
<path d="M107.184 324.361L106.09 325.055L108.348 326.444L109.494 325.787L107.184 324.361Z" fill="#FBF3FF"/>
<path d="M104.344 322.653L103.251 323.329L105.526 324.736L106.655 324.079L104.344 322.653Z" fill="#FBF3FF"/>
<path d="M101.522 320.945L100.429 321.621L102.704 323.009L103.85 322.353L101.522 320.945Z" fill="#FBF3FF"/>
<path d="M108.313 329.823L107.219 330.499L108.824 331.475L109.953 330.818L108.313 329.823Z" fill="#FBF3FF"/>
<path d="M105.984 328.377L104.891 329.053L106.478 330.029L107.625 329.372L105.984 328.377Z" fill="#FBF3FF"/>
<path d="M103.109 326.651L102.016 327.327L104.291 328.716L105.42 328.059L103.109 326.651Z" fill="#FBF3FF"/>
<path d="M106.443 330.987L105.332 331.662L106.937 332.638L108.066 331.981L106.443 330.987Z" fill="#FBF3FF"/>
<path d="M104.097 329.523L103.004 330.217L104.609 331.193L105.737 330.536L104.097 329.523Z" fill="#FBF3FF"/>
<path d="M104.432 332.094L103.339 332.77L104.944 333.746L106.073 333.108L104.432 332.094Z" fill="#FBF3FF"/>
<path d="M102.104 330.649L101.011 331.324L102.598 332.3L103.744 331.662L102.104 330.649Z" fill="#FBF3FF"/>
<path d="M101.222 327.796L100.129 328.472L102.404 329.879L103.533 329.222L101.222 327.796Z" fill="#FBF3FF"/>
<path d="M100.376 324.924L99.2821 325.6L101.557 327.008L102.686 326.351L100.376 324.924Z" fill="#FBF3FF"/>
<path d="M97.5536 323.216L96.4601 323.892L98.7353 325.28L99.8641 324.642L97.5536 323.216Z" fill="#FBF3FF"/>
<path d="M108.207 327.345L107.113 328.021L110.888 330.33L112.034 329.673L108.207 327.345Z" fill="#FBF3FF"/>
<path d="M105.208 325.487L104.097 326.163L106.372 327.57L107.519 326.914L105.208 325.487Z" fill="#FBF3FF"/>
<path d="M102.369 323.779L101.275 324.455L103.533 325.844L104.679 325.206L102.369 323.779Z" fill="#FBF3FF"/>
<path d="M99.5467 322.052L98.4531 322.728L100.728 324.136L101.857 323.479L99.5467 322.052Z" fill="#FBF3FF"/>
<path d="M108.559 317.529L103.109 320.494C100.993 321.62 94.7316 327.345 96.0544 328.678C97.6245 330.083 99.5289 330.999 101.557 331.324C102.873 330.548 104.02 329.486 104.926 328.209C105.261 327.664 109.336 326.031 110.517 324.136C111.699 322.24 108.559 317.529 108.559 317.529Z" fill="#FFD0CA"/>
<path d="M103.109 335.379V316.966C103.099 316.655 103.017 316.351 102.869 316.082C102.721 315.814 102.513 315.588 102.263 315.427L81.8561 302.982C81.588 302.817 81.2838 302.731 80.9742 302.731C80.6646 302.731 80.3605 302.817 80.0923 302.982L79.3516 303.451H79.6867C79.4754 303.742 79.3579 304.098 79.3516 304.465V322.897C79.3515 323.21 79.4299 323.518 79.5787 323.789C79.7275 324.059 79.9413 324.283 80.1982 324.436L100.534 336.937C100.67 336.998 100.812 337.042 100.958 337.068L101.328 337.481L102.439 336.711C102.632 336.551 102.791 336.35 102.906 336.12C103.021 335.891 103.091 335.638 103.109 335.379Z" fill="#E3B0FF"/>
<path d="M102.298 317.491V335.979C102.279 336.284 102.191 336.579 102.04 336.838C101.89 337.098 101.683 337.315 101.436 337.47C101.19 337.625 100.911 337.714 100.625 337.729C100.339 337.744 100.053 337.685 99.7936 337.556L79.3692 325.037C79.1124 324.883 78.8986 324.66 78.7498 324.389C78.601 324.119 78.5226 323.811 78.5226 323.498V305.084C78.5432 304.779 78.6336 304.484 78.7859 304.225C78.9382 303.965 79.1478 303.749 79.3965 303.595C79.6451 303.442 79.9253 303.355 80.2126 303.343C80.4999 303.331 80.7856 303.394 81.0448 303.527L101.452 315.952C101.702 316.114 101.91 316.339 102.058 316.608C102.205 316.877 102.288 317.18 102.298 317.491Z" fill="#EACAFF"/>
<path d="M84.9956 329.879L80.1629 326.913V324.661L84.9956 327.627V329.879Z" fill="white"/>
<path d="M98.1356 337.95L93.3029 334.985V332.751L98.1356 335.717V337.95Z" fill="white"/>
<path d="M91.4334 321.076C91.4334 322.146 90.5338 322.465 89.4227 321.789C88.8803 321.459 88.4178 320.998 88.0718 320.445C87.7259 319.891 87.506 319.259 87.4296 318.598C87.4296 317.529 88.3115 317.209 89.4227 317.885C89.9674 318.215 90.4327 318.674 90.7817 319.228C91.1306 319.782 91.3537 320.415 91.4334 321.076Z" fill="white"/>
<path d="M135.492 300.317C136.78 290.669 136.709 282.335 131.788 278.882C128.261 276.367 126.074 286.596 125.104 294.217C124.874 296.094 123.252 304.484 122.846 306.473C120.447 307.093 107.431 316.102 105.808 317.735C107.964 320.094 109.46 323.044 110.129 326.257C115.544 324.98 124.081 319.387 129.742 316.271C133.94 313.981 134.892 304.84 135.492 300.317Z" fill="#212193"/>
<path d="M381.695 321.677C378.047 322.77 374.531 324.313 371.219 326.275C366.739 329.147 364.587 332.225 361.536 330.48C358.484 328.734 356.915 317.435 356.915 317.435L383.371 312.367C383.371 312.367 384.976 319.518 381.695 321.677Z" fill="#19197C"/>
<path d="M380.426 309.139C380.426 309.139 386.969 314.976 386.493 321.133C386.246 324.492 386.616 325.975 386.123 330.161C385.629 334.347 386.123 348.424 386.246 353.604C386.352 356.195 390.408 359.348 392.26 360.793C394.112 362.238 393.319 364.172 393.918 365.073C395.118 366.95 389.985 368.32 387.181 365.73C384.376 363.139 379.755 361.206 379.561 356.927C379.317 350.351 378.521 343.812 377.18 337.387C376.431 333.056 376.165 328.646 376.387 324.248C376.387 321.658 367.48 313.418 367.144 312.592C366.298 310.434 380.426 309.139 380.426 309.139Z" fill="#FFD0CA"/>
<path d="M371.554 319.087C372.572 320.205 373.331 321.562 373.769 323.048C374.207 324.534 374.312 326.108 374.076 327.646C373.396 330.723 373.023 333.869 372.965 337.03C372.965 340.991 371.201 357.978 371.466 363.158C371.624 366.912 372.753 370.666 372.93 372.956C373.035 374.157 372.277 375.846 372.347 377.104C372.471 379.3 367.427 378.981 365.874 378.136C364.322 377.292 364.499 366.255 365.663 363.12C365.336 357.169 364.462 351.266 363.052 345.496C361.447 338.495 363.511 329.091 362.153 327.345C359.401 323.854 353.652 320.813 353.458 317.266C353.228 312.855 357.356 305.591 361.447 307.581C362.823 308.238 366.457 313.643 371.554 319.087Z" fill="#FFD0CA"/>
<path d="M341.535 297.895C341.535 297.895 337.778 308.707 341.252 315.389C344.127 320.926 361.536 330.405 361.536 330.405C361.536 330.405 362.823 323.328 367.109 320.457C372.571 317.523 378.17 314.886 383.883 312.555C382.688 310.431 381.09 308.596 379.191 307.168C374.993 303.695 361.747 294.686 361.747 294.686C359.308 297.724 355.919 299.722 352.205 300.312C348.491 300.902 344.701 300.044 341.535 297.895Z" fill="#212193"/>
<path d="M372.753 289.58C374.211 288.83 375.71 288.154 377.251 287.553C376.445 285.249 375.52 282.993 374.482 280.796C373.302 278.335 372.001 275.941 370.584 273.626C369.279 271.749 365.434 265.949 365.434 265.949L359.807 270.473C359.807 270.473 366.756 279.201 367.656 280.515C369.508 283.307 371.209 286.208 372.753 289.205C372.767 289.33 372.767 289.456 372.753 289.58Z" fill="#FFD0CA"/>
<path d="M392.26 360.793C394.06 361.782 395.688 363.089 397.075 364.66C398.663 366.762 396.864 369.915 392.595 369.239C390.338 368.864 387.304 366.293 386.105 365.335C384.341 363.984 381.413 362.464 380.073 361.244C378.732 360.024 379.561 356.927 379.561 356.927C379.96 358.156 380.69 359.233 381.66 360.024C383.298 361.333 385.074 362.435 386.951 363.308C389.597 364.303 391.449 364.998 392.49 363.665C393.53 362.332 392.26 360.793 392.26 360.793Z" fill="#3333AA"/>
<path d="M372.771 371.642C372.943 373.221 372.679 374.819 372.012 376.24C370.972 377.817 368.308 377.93 366.721 375.133C365.592 372.61 364.991 369.856 364.957 367.062C364.951 365.736 365.147 364.417 365.539 363.158C365.002 363.509 364.585 364.033 364.347 364.654C364.109 365.275 364.063 365.961 364.217 366.612C364.728 369.014 364.093 372.543 364.217 374.345C364.481 378.643 365.522 381.853 368.432 383.204C370.778 384.33 374.199 383.504 374.147 379.338C374.136 376.704 373.67 374.095 372.771 371.642Z" fill="#3333AA"/>
<path d="M360.707 271.712C361.563 271.259 362.353 270.678 363.053 269.985C364.031 269.004 364.847 267.856 365.469 266.587C365.469 266.587 363.388 258.404 357.479 255.964C354.586 254.762 350.812 258.141 350.812 258.141L360.707 271.712Z" fill="#EF3A8D"/>
<path d="M365.098 265.198L365.963 266.888C365.963 266.888 364.005 270.923 361.447 271.712C358.89 272.5 360.195 269.985 360.195 269.985C360.195 269.985 361.677 270.679 365.098 265.198Z" fill="white"/>
<path d="M335.608 269.929C336.102 267.376 343.14 261.689 343.14 261.689C343.14 261.689 347.355 264.936 348.837 266.043C350.287 267.306 351.644 268.686 352.893 270.173C352.543 267.288 351.831 264.466 350.777 261.783C350.521 260.092 350.521 258.368 350.777 256.677C350.777 256.677 351.341 256.489 352.152 256.302C353.458 257.691 356.068 261.426 357.444 262.965C358.819 264.504 363.952 269.028 362.735 274.096C362.348 275.697 361.865 277.271 361.289 278.807C360.713 281.485 360.612 284.254 360.989 286.972C361.635 289.983 362.526 292.928 363.652 295.775C363.652 295.775 358.661 302.569 352.981 302.588C348.744 302.45 344.674 300.797 341.429 297.896C341.974 292.868 342.204 287.808 342.117 282.748C342.117 282.748 334.021 278.394 335.608 269.929Z" fill="#FF52A9"/>
<path d="M353.07 260.562C353.07 260.562 357.214 265.612 356.897 267.601C355.856 268.671 353.369 270.773 353.369 270.773L350.618 260.9L353.07 260.562Z" fill="#EF3A8D"/>
<path d="M361.571 300.674C357.71 297.474 353.576 294.665 349.225 292.283C347.879 290.717 346.889 288.841 346.332 286.803C345.433 284.137 343.951 280.29 343.951 280.29L336.437 282.955C336.437 282.955 339.348 290.162 340.706 292.509C341.788 294.781 343.26 296.818 345.045 298.515C347.161 300.186 349.824 302.269 359.349 305.235C359.846 303.593 360.597 302.052 361.571 300.674Z" fill="#FFD0CA"/>
<path d="M358.255 258.742C358.854 259.296 359.387 259.926 359.842 260.619C360.671 249.357 359.155 244.326 359.155 244.326L352.981 255.682C352.981 255.682 352.805 255.832 352.576 256.076C354.672 256.358 356.646 257.284 358.255 258.742Z" fill="url(#paint1_linear)"/>
<path d="M351.271 257.24C351.333 259.489 351.658 261.721 352.241 263.885C353.221 266.022 353.629 268.405 353.422 270.773C351.628 269.505 349.945 268.067 348.396 266.475C346.808 265.011 342.628 262.139 342.628 262.139L342.769 249.225L351.271 257.24Z" fill="#FFA08D"/>
<path d="M346.385 241.905C347.332 241.155 348.436 240.661 349.602 240.466C350.768 240.271 351.961 240.38 353.079 240.785C354.197 241.189 355.205 241.877 356.018 242.788C356.83 243.699 357.423 244.807 357.744 246.016C360.178 253.355 353.934 262.496 350.689 261.032C347.568 259.429 345.121 256.644 343.828 253.223C342.522 248.775 344.304 243.594 346.385 241.905Z" fill="#FFD0CA"/>
<path d="M342.663 259.492C344.444 260.696 346.089 262.113 347.567 263.716C351.094 267.657 353.422 270.773 353.422 270.773C351.765 271.593 349.959 272.015 348.131 272.012C344.709 268.502 341.764 266.381 340.565 263.997C341.078 262.405 341.784 260.891 342.663 259.492Z" fill="#EF3A8D"/>
<path d="M337.531 285.808C336.158 284.277 334.973 282.568 334.003 280.721C333.086 277.549 331.534 272.481 336.261 268.577C339.965 265.499 343.563 272.969 344.304 275.747C344.879 278.161 345.087 280.658 344.921 283.142C343.933 284.681 340.124 286.952 337.531 285.808Z" fill="#EF3A8D"/>
<path d="M345.08 282.354C345.149 283.062 345.261 283.764 345.415 284.456C344.239 285.608 342.806 286.422 341.252 286.821C340.259 287.128 339.235 287.311 338.201 287.366L337.108 285.245C338.513 285.207 339.907 284.968 341.252 284.531C342.597 283.951 343.88 283.222 345.08 282.354Z" fill="white"/>
<path d="M358.308 242.13C353.863 233.909 348.449 238.208 348.449 238.208C348.449 238.208 345.415 236.331 342.17 240.666C340.406 243.05 338.325 252.097 340.406 256.996C341.238 258.693 342.454 260.143 343.944 261.214C345.435 262.286 347.152 262.946 348.942 263.134C348.152 260.149 348.455 256.956 349.789 254.199C351.243 251.437 351.946 248.297 351.817 245.134C353.208 245.337 354.529 245.905 355.662 246.786C356.795 247.667 357.704 248.834 358.308 250.183C359.039 248.984 359.428 247.586 359.428 246.157C359.428 244.728 359.039 243.329 358.308 242.13Z" fill="#212193"/>
<path d="M382.877 279.82C382.701 279.689 382.383 279.708 381.907 279.82L372.171 285.827C370.902 286.513 369.83 287.55 369.067 288.83L358.484 308.2C358.114 308.876 358.096 309.326 358.343 309.495L359.384 310.115L359.878 309.045L369.049 303.414C370.327 302.733 371.406 301.695 372.171 300.411L382.754 281.04C382.747 280.99 382.747 280.94 382.754 280.89L382.983 281.134L383.812 280.346L382.824 279.726L382.877 279.82Z" fill="#C28CE5"/>
<path d="M382.93 280.534L373.194 286.54C371.913 287.215 370.832 288.254 370.072 289.543L359.49 308.913C358.872 310.077 359.243 310.603 360.336 310.115L370.072 304.108C371.346 303.421 372.419 302.376 373.176 301.086L383.759 281.735C384.394 280.571 384.006 280.027 382.93 280.534Z" fill="#EACAFF"/>
<path d="M378.909 290.688C376.422 292.34 374.376 295.474 374.746 297.239C375.117 299.003 377.127 297.408 378.08 295.831C378.598 295.108 378.943 294.263 379.088 293.368C379.232 292.472 379.171 291.553 378.909 290.688Z" fill="#FFD0CA"/>
<path d="M358.943 298.646C358.943 298.646 360.83 299.566 361.783 298.834C362.509 298.177 363.396 297.753 364.34 297.614C364.34 297.614 363.511 298.984 364.675 299.491C365.135 299.764 365.649 299.92 366.175 299.946C366.702 299.972 367.227 299.868 367.709 299.641C368.979 299.285 370.037 299.453 368.926 301.856C367.886 303.72 366.29 305.16 364.393 305.948C362.303 306.242 360.178 305.911 358.255 304.991C354.657 303.733 358.943 298.646 358.943 298.646Z" fill="#FFD0CA"/>
<path d="M183.043 18.1127C176.165 10.8086 167.122 6.26496 157.452 5.25417C147.782 4.24337 138.081 6.82785 129.999 12.5682C121.918 18.3086 115.953 26.8505 113.12 36.7417C110.288 46.633 110.761 57.263 114.461 66.8245C118.161 76.3861 124.858 84.289 133.414 89.1897C141.97 94.0904 151.857 95.6863 161.394 93.7061C170.931 91.726 179.529 86.292 185.726 78.328C191.924 70.3641 195.339 60.3617 195.389 50.0214C195.41 44.0992 194.329 38.2311 192.211 32.7549C190.092 27.2788 186.976 22.3026 183.043 18.1127Z" fill="#8B58FF"/>
<path d="M183.043 18.1127C182.723 19.6246 182.029 21.0179 181.032 22.1482C178.528 23.6874 176.182 24.6259 174.612 23.387C172.268 21.5279 169.482 20.4032 166.57 20.1399C164.734 20.0317 162.926 20.6464 161.49 21.8667C159.074 23.7437 157.627 22.7489 155.863 23.1993C154.241 23.6438 152.847 24.7494 151.983 26.2776C150.502 28.8303 150.854 29.8626 151.983 31.4581C154.488 34.8929 157.998 32.7156 159.656 36.9201C160.502 39.0598 159.55 42.551 159.656 44.6908C159.827 46.4266 159.444 48.1735 158.567 49.6484C157.69 51.1234 156.371 52.2402 154.823 52.8181C153.588 53.3624 151.436 56.0653 150.131 56.2905C147.821 56.7222 146.41 54.2258 144.84 52.5365C144.265 51.9309 143.566 51.4739 142.799 51.2006C142.031 50.9272 141.215 50.8449 140.413 50.9599C137.009 51.3165 136.885 53.2498 135.369 56.253C134.399 58.3176 133.34 59.7441 133.376 60.9642C133.481 63.592 136.074 65.788 137.52 68.6035C138.473 70.4805 139.796 71.3627 140.06 74.2344C140.125 75.2451 140.46 76.215 141.025 77.0298C141.591 77.8446 142.364 78.4703 143.253 78.833C145.122 79.5275 148.544 79.2084 150.678 79.6964C153.306 80.2971 155.458 82.9061 157.733 83.6006C160.008 84.295 162.425 84.8394 163.8 83.8633C164.823 83.1313 164.171 81.9864 166.04 80.5786C168.704 78.7016 171.332 77.613 173.378 75.0791C174.511 73.4427 175.724 71.8702 177.011 70.3679C179.692 67.7213 182.831 67.177 185.971 65.6003C188.745 64.353 191.433 62.8978 194.014 61.2457C195.902 53.6565 195.88 45.6723 193.951 38.0947C192.023 30.5171 188.255 23.6128 183.025 18.0752L183.043 18.1127Z" fill="#673DE8"/>
<path d="M122.634 70.6119C123.287 69.3919 124.539 69.0353 125.686 68.1906C126.492 67.6557 127.183 66.9458 127.714 66.1072C129.09 63.9111 129.601 61.9215 127.943 59.6316C126.7 57.995 125.181 56.62 123.463 55.5773C121.699 54.4324 119.23 54.4324 117.731 52.9871C117.127 52.4515 116.652 51.7701 116.345 50.9996C116.038 50.2292 115.909 49.3919 115.967 48.5574C115.973 47.3489 115.739 46.1527 115.279 45.0475C114.521 43.7711 113.198 43.4708 112.74 41.988C112.401 40.6431 112.282 39.2464 112.387 37.8586C110.699 44.1806 110.337 50.8201 111.328 57.3072C112.318 63.7943 114.637 69.9704 118.119 75.3982C118.997 75.1097 119.843 74.7195 120.641 74.2345C121.841 73.4086 122.017 71.7944 122.634 70.6119Z" fill="#673DE8"/>
<path d="M123.975 34.9305C123.324 33.8594 122.507 32.9137 121.558 32.1339C120.87 31.4957 119.795 32.04 118.93 32.04C118.066 32.04 117.89 30.7449 116.831 31.9462C115.773 33.1474 115.632 34.4425 116.338 36.5072C116.92 38.234 117.466 37.7272 118.631 38.8722C119.795 40.0172 118.842 42.3071 119.371 43.2268C119.654 43.7148 119.689 44.6158 120.13 44.8973C120.571 45.1789 121.417 44.8973 122.405 44.2967C123.393 43.696 124.504 44.1653 125.668 43.7148C126.832 43.2643 127.432 42.3634 127.696 40.7867C127.961 39.2101 127.202 38.647 126.25 38.0088C125.258 37.2057 124.474 36.1461 123.975 34.9305Z" fill="#673DE8"/>
<path opacity="0.1" d="M173.378 61.321C161.754 82.7561 139.584 91.9721 123.463 82.0804C116.723 75.1075 112.367 65.9362 111.088 56.0253C109.81 46.1144 111.683 36.0331 116.408 27.3852C127.89 5.87505 152.442 0.000100613 170.661 8.97207C182.02 20.7595 183.555 42.57 173.378 61.321Z" fill="white"/>
<path opacity="0.1" d="M158.368 48.5198C150.872 62.3156 136.392 68.322 126.003 61.9402C115.615 55.5585 113.269 39.21 120.712 25.4142C128.155 11.6184 142.724 5.63084 153.094 11.9938C163.465 18.3568 165.793 34.7428 158.368 48.5198Z" fill="white"/>
<path opacity="0.1" d="M147.345 36.0003C143.164 43.7147 134.998 47.0558 129.266 43.5083C123.534 39.9608 122.211 30.8199 126.338 23.1243C130.465 15.4286 138.684 12.0689 144.399 15.6163C150.114 19.1638 151.525 28.3047 147.345 36.0003Z" fill="white"/>
<path opacity="0.5" d="M439 152.167L386.14 184.639V253.28L439 220.808V152.167Z" fill="#C991ED"/>
<path d="M417.253 230.193L390.25 246.785V215.534L417.253 198.941V230.193Z" fill="#FAB234"/>
<path opacity="0.5" d="M420.763 167.333V191.189L435.455 182.161V158.305L420.763 167.333Z" fill="#FF52A9"/>
<path opacity="0.6" d="M420.763 198.509V227.377L435.455 218.349V189.481L420.763 198.509Z" fill="#5233D3"/>
<path opacity="0.6" d="M417.253 173.715L390.25 190.307V187.135L417.253 170.542V173.715Z" fill="#5233D3"/>
<path opacity="0.6" d="M417.253 180.265L390.25 196.839V193.686L417.253 177.093V180.265Z" fill="#5233D3"/>
<path opacity="0.6" d="M417.253 187.022L390.25 203.615V200.443L417.253 183.85V187.022Z" fill="#5233D3"/>
<path opacity="0.6" d="M417.253 193.573L390.25 210.165V206.993L417.253 190.401V193.573Z" fill="#5233D3"/>
<path opacity="0.5" d="M104.944 167.445C104.944 177.6 110.746 189.387 117.89 193.723C125.033 198.059 130.853 193.442 130.853 183.287C130.853 173.133 125.051 161.42 117.89 157.028C110.729 152.636 104.944 157.291 104.944 167.445Z" fill="#FF52A9"/>
<path opacity="0.6" d="M111.346 172.044C111.375 174.23 111.887 176.378 112.84 178.314C113.793 180.251 115.16 181.922 116.831 183.193C119.865 185.07 122.317 183.081 122.317 178.782C122.299 176.578 121.792 174.41 120.839 172.453C119.886 170.497 118.513 168.807 116.831 167.52C113.798 165.756 111.346 167.727 111.346 172.044Z" fill="white"/>
<path opacity="0.5" d="M286.911 25.4705C286.911 32.359 282.96 40.3737 278.092 43.3581C273.224 46.3425 269.273 43.1704 269.273 36.2819C269.273 29.3934 273.224 21.3787 278.092 18.3943C282.96 15.4099 286.911 18.582 286.911 25.4705Z" fill="#FF52A9"/>
<path opacity="0.5" d="M282.554 28.5864C282.524 30.0593 282.172 31.5044 281.526 32.8075C280.88 34.1105 279.958 35.2358 278.833 36.0944C276.769 37.3519 275.094 36.0944 275.094 33.0912C275.128 31.617 275.483 30.1714 276.132 28.8684C276.781 27.5655 277.706 26.4408 278.833 25.5833C280.897 24.4008 282.554 25.6583 282.554 28.5864Z" fill="white"/>
<path opacity="0.5" d="M228.848 123.712V139.347L251.353 125.514V109.878L228.848 123.712Z" fill="#C991ED"/>
<path opacity="0.5" d="M247.456 123.205V133.416L262.148 124.388V114.177L247.456 123.205Z" fill="#FF52A9"/>
<path opacity="0.5" d="M105.42 88.1428L146.392 113.463V165.418L105.42 140.21V88.1428Z" fill="#C991ED"/>
<path opacity="0.6" d="M107.148 91.7092L144.311 114.683V117.987L107.148 95.1253V91.7092Z" fill="#5233D3"/>
<path opacity="0.6" d="M116.849 105.299V107.251L107.148 101.282V99.311L116.849 105.299Z" fill="#5233D3"/>
<path opacity="0.6" d="M143.535 159.187V161.12L133.834 155.151V153.18L143.535 159.187Z" fill="#5233D3"/>
<path opacity="0.6" d="M114.062 108.133V110.104L107.148 105.843V103.872L114.062 108.133Z" fill="#5233D3"/>
<path opacity="0.6" d="M111.981 123.524C112.246 133.922 118.419 144.903 125.791 148.056C133.164 151.209 138.931 145.353 138.667 134.917C138.402 124.481 132.282 113.595 124.874 110.423C117.466 107.251 111.734 113.144 111.981 123.524Z" fill="#5233D3"/>
<path opacity="0.5" d="M119.177 126.828C119.283 131.22 121.911 135.893 125.033 137.226C128.155 138.559 130.606 136.081 130.501 131.595C130.395 127.109 127.767 122.529 124.645 121.197C121.523 119.864 119.071 122.417 119.177 126.828Z" fill="white"/>
<path opacity="0.5" d="M31.1304 265.593C31.1304 271.449 34.4815 278.262 38.6087 280.796C42.7359 283.33 46.0871 280.646 46.0871 274.771C46.0871 268.896 42.7359 262.12 38.6087 259.568C34.4815 257.015 31.1304 259.736 31.1304 265.593Z" fill="#FF52A9"/>
<path opacity="0.5" d="M0 225.294L73.055 270.191V202.17L0 157.272V225.294Z" fill="#C991ED"/>
<path opacity="0.6" d="M16.7028 229.367L1.9754 220.301V223.38L16.7028 232.445V229.367Z" fill="white"/>
<path opacity="0.6" d="M16.7028 223.304L1.9754 214.239V217.317L16.7028 226.383V223.304Z" fill="white"/>
<path opacity="0.6" d="M16.7028 216.96L1.9754 207.894V210.973L16.7028 220.038V216.96Z" fill="white"/>
<path opacity="0.6" d="M16.7028 210.897L1.9754 201.832V204.91L16.7028 213.976V210.897Z" fill="white"/>
<path opacity="0.6" d="M16.7028 204.553L1.9754 195.487V198.566L16.7028 207.631V204.553Z" fill="white"/>
<path opacity="0.6" d="M16.7028 198.491L1.9754 189.425V192.503L16.7028 201.55V198.491Z" fill="white"/>
<path opacity="0.6" d="M16.7028 192.146L1.9754 183.081V186.159L16.7028 195.206V192.146Z" fill="white"/>
<path opacity="0.6" d="M16.7028 186.084L1.9754 177.018V180.096L16.7028 189.143V186.084Z" fill="white"/>
<path opacity="0.6" d="M16.7028 171.687L1.9754 162.622V170.824L16.7028 179.89V171.687Z" fill="#5233D3"/>
<path d="M70.3564 204.854L55.6114 195.788V203.99L70.3564 213.056V204.854Z" fill="#FAB234"/>
<path opacity="0.6" d="M64.6595 212.831V221.033L70.3564 224.543V216.341L64.6595 212.831Z" fill="white"/>
<path opacity="0.6" d="M64.6595 225.087V233.29L70.3564 236.8V228.597L64.6595 225.087Z" fill="white"/>
<path opacity="0.6" d="M64.6595 237.344V245.546L70.3564 249.056V240.854L64.6595 237.344Z" fill="white"/>
<path opacity="0.6" d="M64.6595 249.62V257.803L70.3564 261.313V253.111L64.6595 249.62Z" fill="white"/>
<path d="M48.8562 191.621L34.1111 182.574V200.837L48.8562 209.903V191.621Z" fill="#FAB234"/>
<path opacity="0.6" d="M41.4837 193.329C40.3372 192.653 39.4024 193.329 39.4024 195.037C39.4105 195.469 39.4697 195.897 39.5788 196.313L32.2768 201.606L18.1667 192.897V194.436L32.4179 203.183L40.1432 197.552C40.4761 198.263 40.9815 198.865 41.6071 199.298C42.7712 200.011 43.706 199.298 43.706 197.608C43.6819 196.758 43.4677 195.927 43.0812 195.183C42.6947 194.438 42.147 193.803 41.4837 193.329Z" fill="#5233D3"/>
<path opacity="0.5" d="M50.1437 223.943L35.3987 214.896V233.159L50.1437 242.224V223.943Z" fill="#FF52A9"/>
<path opacity="0.6" d="M42.7712 224.412C42.4176 224.177 42.0062 224.059 41.5895 224.074L34.2522 209.546L34.1641 209.377L18.0962 199.429V200.968L33.2293 210.353L40.496 224.712C40.0774 225.312 39.8713 226.05 39.9139 226.796C39.9262 227.955 40.1905 229.095 40.6863 230.128C41.182 231.16 41.8956 232.056 42.7712 232.746C44.3939 233.74 45.699 232.746 45.699 230.399C45.6841 229.227 45.4115 228.075 44.903 227.036C44.3946 225.996 43.6645 225.097 42.7712 224.412Z" fill="white"/>
<path d="M41.4836 194.999C41.0074 194.718 40.6194 194.999 40.6194 195.694C40.6262 196.044 40.7094 196.387 40.8625 196.696C41.0156 197.006 41.2343 197.273 41.5013 197.477C41.9775 197.777 42.3655 197.477 42.3655 196.764C42.3573 196.417 42.2734 196.077 42.1203 195.771C41.9673 195.465 41.7493 195.2 41.4836 194.999Z" fill="#FAB234"/>
<path opacity="0.6" d="M54.4473 212.099H54.3591C52.031 210.728 50.1437 212.268 50.1437 215.59C50.1668 217.302 50.5684 218.984 51.3161 220.501C52.0637 222.017 53.1364 223.325 54.4473 224.318C56.8108 225.782 58.7332 224.318 58.7332 220.864C58.7122 219.148 58.3135 217.462 57.5692 215.939C56.8248 214.417 55.7556 213.102 54.4473 212.099Z" fill="white"/>
<path opacity="0.6" d="M42.7712 226.72C42.0657 226.307 41.5013 226.72 41.5013 227.772C41.5101 228.288 41.6309 228.796 41.8542 229.255C42.0775 229.714 42.3974 230.112 42.7888 230.418C43.512 230.85 44.094 230.418 44.094 229.367C44.0881 228.845 43.9649 228.333 43.7348 227.873C43.5046 227.412 43.1742 227.017 42.7712 226.72Z" fill="#5233D3"/>
<path opacity="0.6" d="M54.4473 214.558C53.0716 213.732 51.9427 214.558 51.9427 216.622C51.957 217.639 52.1959 218.638 52.6402 219.538C53.0845 220.438 53.7217 221.214 54.5002 221.803C55.8936 222.666 57.04 221.803 57.04 219.757C57.0203 218.735 56.7755 217.732 56.3252 216.829C55.8748 215.926 55.2316 215.148 54.4473 214.558Z" fill="#5233D3"/>
<path opacity="0.6" d="M53.7771 223.792V250.596L32.0299 236.95L32.1357 225.688L18.0256 218.18V219.832L30.7247 226.57L30.6189 237.832L55.1528 253.223V224.618C54.9015 224.524 54.6594 224.405 54.4297 224.262C54.1651 224.093 53.7771 223.792 53.7771 223.792Z" fill="#5233D3"/>
<path opacity="0.5" d="M78.4873 307.149L41.4484 272.294C41.4484 272.294 41.4484 272.294 41.4484 272.181C41.4258 271.028 41.1791 269.892 40.7238 268.846C40.2685 267.799 39.6144 266.864 38.8027 266.1V249.207L37.5504 248.437V265.499C36.1747 265.142 35.1517 266.269 35.1517 268.371C35.1721 269.633 35.4699 270.873 36.0212 271.991C36.5725 273.109 37.362 274.074 38.3265 274.809C38.5502 275.026 38.8226 275.178 39.1176 275.251C39.4126 275.324 39.7202 275.314 40.0108 275.224C40.3014 275.133 40.5652 274.965 40.7768 274.734C40.9884 274.504 41.1407 274.219 41.2191 273.908L78.452 308.932L78.4873 307.149Z" fill="#FF52A9"/>
<path opacity="0.5" d="M420.886 252.773C420.886 258.629 417.535 265.424 413.408 267.976C409.281 270.529 405.929 267.808 405.929 261.951C405.929 256.095 409.281 249.282 413.408 246.748C417.535 244.214 420.886 246.898 420.886 252.773Z" fill="#FF52A9"/>
<path opacity="0.5" d="M381.149 286.558L410.551 258.892C410.551 258.892 410.551 258.892 410.551 258.76C410.579 257.601 410.835 256.461 411.303 255.413C411.771 254.366 412.44 253.434 413.267 252.679V236.631L414.501 235.88V252.003C415.877 251.647 416.9 252.773 416.9 254.875C416.88 256.137 416.582 257.377 416.031 258.495C415.479 259.613 414.69 260.578 413.725 261.313C413.502 261.53 413.229 261.682 412.934 261.755C412.639 261.828 412.332 261.818 412.041 261.728C411.75 261.637 411.487 261.469 411.275 261.238C411.063 261.008 410.911 260.723 410.833 260.412L379.561 289.58L381.149 286.558Z" fill="#FF52A9"/>
<path opacity="0.5" d="M262.994 0L224.086 24.0441V89.7947L262.994 65.8632V0Z" fill="#C991ED"/>
<path opacity="0.6" d="M259.996 5.72485L241.565 17.1181V36.5824L259.996 25.2454V5.72485Z" fill="#5233D3"/>
<path opacity="0.6" d="M259.996 29.0557L241.565 40.4489V59.9132L259.996 48.5763V29.0557Z" fill="#5233D3"/>
<path opacity="0.6" d="M259.996 53.7004L241.565 65.0937V73.9155L259.996 62.5786V53.7004Z" fill="#5233D3"/>
<path d="M236.344 27.0473C236.323 28.4643 235.951 29.8504 235.267 31.0663C234.583 32.2821 233.61 33.2847 232.446 33.9734C230.365 34.8555 228.742 33.2038 228.813 30.2194C228.834 28.8024 229.205 27.4163 229.889 26.2005C230.574 24.9846 231.547 23.982 232.711 23.2933C234.757 22.5238 236.344 24.1192 236.344 27.0473Z" fill="#FAB234"/>
<path d="M236.344 42.1006C236.323 43.5176 235.951 44.9037 235.267 46.1195C234.583 47.3353 233.61 48.338 232.446 49.0266C230.365 49.9088 228.742 48.2571 228.813 45.2727C228.828 43.8544 229.197 42.466 229.882 41.2492C230.567 40.0324 231.543 39.0308 232.711 38.3466C234.757 37.5395 236.344 39.1725 236.344 42.1006Z" fill="#FAB234"/>
<path opacity="0.5" d="M234.316 42.9452C234.315 43.6035 234.152 44.2501 233.842 44.82C233.533 45.39 233.088 45.8632 232.552 46.1924C231.582 46.6053 230.788 45.8358 230.788 44.4656C230.789 43.8073 230.952 43.1607 231.262 42.5908C231.571 42.0208 232.016 41.5476 232.552 41.2184C233.575 40.8055 234.351 41.575 234.316 42.9452Z" fill="white"/>
<path d="M236.344 57.1353C236.328 58.5536 235.959 59.942 235.274 61.1588C234.589 62.3756 233.613 63.3772 232.446 64.0614C230.365 64.9623 228.742 63.2918 228.813 60.3074C228.834 58.8904 229.205 57.5043 229.889 56.2884C230.574 55.0726 231.547 54.07 232.711 53.3813C234.757 52.5555 236.344 54.2072 236.344 57.1353Z" fill="#FAB234"/>
<path d="M236.344 72.1885C236.323 73.6056 235.951 74.9917 235.267 76.2075C234.583 77.4233 233.61 78.426 232.446 79.1146C230.365 79.9968 228.742 78.345 228.813 75.3606C228.834 73.9436 229.205 72.5575 229.889 71.3417C230.574 70.1259 231.547 69.1232 232.711 68.4346C234.757 67.5712 236.344 69.2604 236.344 72.1885Z" fill="#FAB234"/>
<path opacity="0.5" d="M248.39 90.4329C248.364 92.3623 247.911 94.2581 247.069 95.9667C246.226 97.6754 245.017 99.1489 243.54 100.268C240.877 101.92 238.707 100.174 238.707 96.3829C238.737 94.4536 239.19 92.5583 240.029 90.8477C240.868 89.137 242.07 87.6582 243.54 86.5288C246.221 84.8958 248.39 86.6414 248.39 90.4329Z" fill="url(#paint2_linear)"/>
<path opacity="0.6" d="M285.024 84.4641C285.002 85.5726 284.735 86.6601 284.245 87.6384C283.755 88.6167 283.055 89.4584 282.202 90.0951C280.667 91.0336 279.433 90.0951 279.433 87.8615C279.447 86.7575 279.705 85.6726 280.186 84.6945C280.667 83.7163 281.357 82.8722 282.202 82.2305C283.789 81.3108 285.024 82.3056 285.024 84.4641Z" fill="#5233D3"/>
<path opacity="0.5" d="M282.202 84.3326C281.751 84.6511 281.396 85.1006 281.179 85.6277L245.551 92.7039C245.551 92.4975 245.551 92.291 245.551 92.1033C245.551 90.7331 244.916 90.0199 244.052 90.2263V77.4441L242.799 78.2137V90.9396C241.87 91.9446 241.329 93.2842 241.282 94.6935C241.282 96.364 242.253 97.1336 243.417 96.4203C244.226 95.8689 244.846 95.0519 245.18 94.0929L280.844 87.0355C280.844 88.1241 281.461 88.6121 282.219 88.1429C282.634 87.8254 282.973 87.4086 283.209 86.9261C283.445 86.4436 283.571 85.9088 283.577 85.3649C283.613 84.464 283.013 83.8634 282.202 84.3326Z" fill="#C991ED"/>
<path opacity="0.5" d="M47.5686 56.8726L93.1442 85.046V178.726L47.5686 150.684V56.8726Z" fill="#C991ED"/>
<path opacity="0.6" d="M51.0256 65.4316L87.412 87.9179V93.53L51.0256 71.1564V65.4316Z" fill="#5233D3"/>
<path opacity="0.5" d="M68.8396 87.6174L87.412 99.1046V101.244L68.8396 89.8135V87.6174Z" fill="#FF52A9"/>
<path opacity="0.5" d="M72.42 94.656L87.412 103.928V106.087L72.42 96.8521V94.656Z" fill="#FF52A9"/>
<path opacity="0.5" d="M72.42 99.4424L87.412 108.715V110.873L72.42 101.638V99.4424Z" fill="#FF52A9"/>
<path opacity="0.5" d="M68.8396 110.986L87.412 122.473V124.613L68.8396 113.182V110.986Z" fill="#FF52A9"/>
<path opacity="0.5" d="M72.42 118.024L87.412 127.297V129.436L72.42 120.22V118.024Z" fill="#FF52A9"/>
<path opacity="0.5" d="M72.42 122.811L87.412 132.083V134.223L72.42 125.007V122.811Z" fill="#FF52A9"/>
<path opacity="0.5" d="M68.8396 134.317L87.412 145.785V147.944L68.8396 136.513V134.317Z" fill="#FF52A9"/>
<path opacity="0.5" d="M72.42 141.355L87.412 150.628V152.767L72.42 143.533V141.355Z" fill="#FF52A9"/>
<path opacity="0.5" d="M72.42 146.142L87.412 155.414V157.554L72.42 148.338V146.142Z" fill="#FF52A9"/>
<path d="M67.1111 86.51V104.904L52.5071 95.9136V77.4817L67.1111 86.51Z" fill="#FAB234"/>
<path d="M67.1111 109.39V127.785L52.5071 118.794V100.362L67.1111 109.39Z" fill="#FAB234"/>
<path d="M67.1111 132.421V150.797L52.5071 141.806V123.393L67.1111 132.421Z" fill="#FAB234"/>
<path d="M67.1111 155.301V158.867L52.5071 149.877V146.273L67.1111 155.301Z" fill="#FAB234"/>
<path opacity="0.5" d="M82.0502 194.249C82.0828 196.514 82.6135 198.74 83.5998 200.747C84.586 202.755 86.0003 204.489 87.7295 205.811C90.869 207.688 93.4264 205.698 93.4264 201.231C93.3904 198.964 92.8564 196.738 91.8671 194.731C90.8779 192.723 89.4609 190.989 87.7295 189.669C84.6605 187.698 82.0502 189.781 82.0502 194.249Z" fill="#FF52A9"/>
<path opacity="0.5" d="M146.692 233.74C146.707 235.02 147.008 236.278 147.569 237.41C148.13 238.543 148.936 239.517 149.92 240.254C151.683 241.323 153.094 240.254 153.094 237.701C153.078 236.438 152.782 235.196 152.231 234.078C151.679 232.959 150.887 231.995 149.92 231.263C148.156 230.099 146.692 231.244 146.692 233.74Z" fill="#FF52A9"/>
<path opacity="0.6" d="M149.92 233.308C149.806 233.208 149.673 233.138 149.529 233.104C149.385 233.069 149.236 233.071 149.094 233.11C148.951 233.148 148.819 233.222 148.708 233.325C148.597 233.428 148.511 233.557 148.456 233.703L90.8866 199.635C90.8283 198.488 90.5456 197.366 90.0566 196.342C89.5677 195.317 88.8832 194.412 88.0469 193.685V175.573L86.7947 174.803V193.085C85.5071 192.878 84.5547 193.986 84.5547 195.994C84.5751 197.259 84.8728 198.501 85.4239 199.622C85.9751 200.743 86.7646 201.712 87.7295 202.451C87.9948 202.67 88.3102 202.81 88.6433 202.856C88.9764 202.902 89.315 202.853 89.6242 202.713C89.9334 202.574 90.2019 202.349 90.4021 202.062C90.6024 201.775 90.727 201.436 90.7631 201.081L148.262 235.148C148.324 235.725 148.499 236.282 148.775 236.783C149.052 237.284 149.423 237.718 149.867 238.057C150.802 238.62 151.63 238.057 151.63 236.706C151.619 236.036 151.458 235.378 151.161 234.787C150.863 234.197 150.438 233.69 149.92 233.308Z" fill="#5233D3"/>
</g>
<defs>
<linearGradient id="paint0_linear" x1="111.487" y1="306.473" x2="111.487" y2="277.192" gradientUnits="userSpaceOnUse">
<stop offset="0.01" stop-color="#EF4190"/>
<stop offset="1" stop-color="#FF579C"/>
</linearGradient>
<linearGradient id="paint1_linear" x1="350.988" y1="252.397" x2="360.089" y2="252.397" gradientUnits="userSpaceOnUse">
<stop stop-color="#3A2BAA"/>
<stop offset="1" stop-color="#2F1784"/>
</linearGradient>
<linearGradient id="paint2_linear" x1="248.39" y1="93.3985" x2="238.707" y2="93.3985" gradientUnits="userSpaceOnUse">
<stop offset="0.01" stop-color="#D82B72"/>
<stop offset="1" stop-color="#EF3A8D"/>
</linearGradient>
<clipPath id="clip0">
<rect width="439" height="397" fill="white"/>
</clipPath>
</defs>
</svg>
