<svg viewBox="0 0 50 50" fill="none" xmlns="http://www.w3.org/2000/svg">
<path d="M29.7852 25C29.7852 27.6465 27.6465 29.7852 25 29.7852C22.3535 29.7852 20.2148 27.6465 20.2148 25C20.2148 22.3535 22.3535 20.2148 25 20.2148C27.6465 20.2148 29.7852 22.3535 29.7852 25Z" fill="#698875"/>
<path d="M36.1914 16.5332C35.957 15.9082 35.5957 15.3418 35.1172 14.8828C34.6582 14.4043 34.0918 14.043 33.4668 13.8086C32.959 13.6133 32.1973 13.3789 30.8008 13.3105C29.2871 13.2422 28.8281 13.2227 25 13.2227C21.1621 13.2227 20.7129 13.2324 19.1992 13.3105C17.8027 13.3789 17.041 13.6133 16.5332 13.8086C15.9082 14.043 15.3418 14.4043 14.8828 14.8828C14.4043 15.3418 14.043 15.9082 13.8086 16.5332C13.6133 17.041 13.3789 17.8027 13.3105 19.1992C13.2422 20.7129 13.2227 21.1621 13.2227 25C13.2227 28.8379 13.2422 29.2871 13.3105 30.8008C13.3789 32.1973 13.6035 32.959 13.8086 33.4668C14.043 34.0918 14.4043 34.6582 14.8828 35.1172C15.3418 35.5957 15.9082 35.957 16.5332 36.1914C17.041 36.3867 17.8027 36.6211 19.1992 36.6894C20.7129 36.7578 21.1621 36.7773 25 36.7773C28.8379 36.7773 29.2871 36.7676 30.8008 36.6894C32.1973 36.6211 32.959 36.3965 33.4668 36.1914C34.7168 35.7129 35.7129 34.7168 36.1914 33.4668C36.3867 32.959 36.6211 32.1973 36.6894 30.8008C36.7578 29.2871 36.7773 28.8281 36.7773 25C36.7773 21.1621 36.7676 20.7129 36.6894 19.1992C36.6211 17.8027 36.3867 17.041 36.1914 16.5332ZM25 32.373C20.9277 32.373 17.627 29.0723 17.627 25C17.627 20.9277 20.9277 17.627 25 17.627C29.0723 17.627 32.373 20.9277 32.373 25C32.373 29.0723 29.0723 32.373 25 32.373ZM32.666 19.0625C31.7187 19.0625 30.9473 18.291 30.9473 17.3437C30.9473 16.3965 31.7187 15.625 32.666 15.625C33.6133 15.625 34.3848 16.3965 34.3848 17.3437C34.3848 18.291 33.6133 19.0625 32.666 19.0625Z" fill="#698875"/>
<path d="M25 0C11.1914 0 0 11.1914 0 25C0 38.8086 11.1914 50 25 50C38.8086 50 50 38.8086 50 25C50 11.1914 38.8086 0 25 0ZM39.2676 30.918C39.1992 32.4414 38.9551 33.4863 38.6035 34.4043C37.8613 36.3281 36.3379 37.8613 34.4043 38.6035C33.4961 38.9551 32.4512 39.1992 30.918 39.2676C29.3848 39.3359 28.8965 39.3555 25 39.3555C21.1035 39.3555 20.6152 39.3359 19.082 39.2676C17.5586 39.1992 16.5137 38.9551 15.5957 38.6035C14.6387 38.2422 13.7695 37.6758 13.0566 36.9434C12.3242 36.2305 11.7578 35.3613 11.3965 34.4043C11.0449 33.4961 10.8008 32.4512 10.7324 30.918C10.6641 29.3848 10.6445 28.8965 10.6445 25C10.6445 21.1035 10.6641 20.6152 10.7324 19.082C10.8008 17.5586 11.0449 16.5137 11.3965 15.5957C11.7578 14.6387 12.3242 13.7695 13.0566 13.0566C13.7695 12.3242 14.6387 11.7578 15.5957 11.3965C16.5137 11.0449 17.5488 10.8008 19.082 10.7324C20.6152 10.6641 21.1035 10.6445 25 10.6445C28.8965 10.6445 29.3848 10.6641 30.918 10.7324C32.4414 10.8008 33.4863 11.0449 34.4043 11.3965C35.3613 11.7578 36.2305 12.3242 36.9434 13.0566C37.6758 13.7695 38.2422 14.6387 38.6035 15.5957C38.9551 16.5137 39.1992 17.5488 39.2676 19.082C39.3359 20.6152 39.3555 21.1035 39.3555 25C39.3555 28.8965 39.3359 29.3848 39.2676 30.918Z" fill="#698875"/>
</svg>
