<svg viewBox="0 0 50 50" fill="none" xmlns="http://www.w3.org/2000/svg">
<path d="M25 0C11.1914 0 0 11.1914 0 25C0 38.8086 11.1914 50 25 50C38.8086 50 50 38.8086 50 25C50 11.1914 38.8086 0 25 0ZM36.416 19.4922C36.4258 19.7363 36.4355 19.9902 36.4355 20.2344C36.4355 27.8125 30.6641 36.5625 20.1074 36.5625C16.8652 36.5625 13.8477 35.6152 11.3086 33.9844C11.7578 34.0332 12.2168 34.0625 12.6758 34.0625C15.3613 34.0625 17.8418 33.1445 19.8047 31.6016C17.2949 31.5527 15.1758 29.8926 14.4434 27.6172C14.7949 27.6855 15.1562 27.7246 15.5176 27.7246C16.0449 27.7246 16.5527 27.6562 17.0312 27.5195C14.4043 26.9922 12.4316 24.6777 12.4316 21.8945C12.4316 21.8652 12.4316 21.8457 12.4316 21.8164C13.2031 22.2461 14.0918 22.5098 15.0293 22.5293C13.4863 21.5039 12.4805 19.7461 12.4805 17.7539C12.4805 16.6992 12.7637 15.7129 13.2617 14.873C16.0938 18.3496 20.3223 20.625 25.0879 20.8691C24.9902 20.4492 24.9414 20.0098 24.9414 19.5605C24.9414 16.3965 27.5098 13.8184 30.6836 13.8184C32.334 13.8184 33.8281 14.5117 34.873 15.6348C36.1816 15.3809 37.4121 14.9023 38.5156 14.2383C38.0859 15.5762 37.1777 16.6992 35.9961 17.4121C37.1582 17.2754 38.2617 16.9629 39.2871 16.5039C38.5059 17.6758 37.5391 18.6816 36.416 19.4922Z" fill="#698875"/>
</svg>
