<svg width="101" height="77" viewBox="0 0 101 77" fill="none" xmlns="http://www.w3.org/2000/svg">
<g clip-path="url(#clip0)">
<path d="M92.3328 53.4144C92.3328 53.1069 92.3602 52.7947 92.3602 52.4963C92.356 50.0759 91.7841 47.6905 90.6907 45.5328C89.5974 43.3752 88.0134 41.5058 86.0667 40.0758C84.1199 38.6458 81.8651 37.6953 79.4844 37.3012C77.1038 36.9071 74.6641 37.0803 72.3625 37.8069C72.3625 37.7518 72.3625 37.6968 72.3625 37.6463C72.3737 33.1132 70.7763 28.7242 67.8561 25.2647C64.9359 21.8053 60.8837 19.5013 56.4248 18.7652C51.9658 18.0291 47.3912 18.909 43.5199 21.2473C39.6486 23.5856 36.7333 27.2296 35.2958 31.5272C32.8632 30.0659 30.0615 29.3405 27.2277 29.4385C24.3939 29.5364 21.6487 30.4535 19.3221 32.0794C16.9955 33.7053 15.1867 35.9707 14.1132 38.6033C13.0397 41.2359 12.7472 44.1235 13.2708 46.9189C9.60272 47.4738 6.2785 49.3969 3.96265 52.3038C1.64679 55.2107 0.509935 58.8873 0.779324 62.5986C1.04871 66.3099 2.7045 69.7825 5.4157 72.3223C8.12691 74.862 11.6938 76.2818 15.4033 76.2978H88.5758C91.3556 76.2982 94.045 75.3075 96.1639 73.5026C98.2827 71.6976 99.693 69.1959 100.143 66.4442C100.593 63.6924 100.053 60.8699 98.6197 58.4806C97.1865 56.0913 94.9534 54.2908 92.3191 53.4006L92.3328 53.4144Z" stroke="white" stroke-width="3" stroke-miterlimit="10"/>
<path d="M23.3109 30.0857L15.9021 23.4801V11.5955" stroke="white" stroke-width="3" stroke-miterlimit="10"/>
<path d="M55.0464 18.527V9.77759" stroke="white" stroke-width="3" stroke-miterlimit="10"/>
<path d="M82.6314 38.1375V33.3818L89.3766 30.2649V14.1846" stroke="white" stroke-width="3" stroke-miterlimit="10"/>
<path d="M15.9021 11.5954C18.3586 11.5954 20.3501 9.59778 20.3501 7.13354C20.3501 4.66929 18.3586 2.67163 15.9021 2.67163C13.4455 2.67163 11.4541 4.66929 11.4541 7.13354C11.4541 9.59778 13.4455 11.5954 15.9021 11.5954Z" stroke="white" stroke-width="3" stroke-miterlimit="10"/>
<path d="M55.0464 9.61241C57.503 9.61241 59.4944 7.61475 59.4944 5.1505C59.4944 2.68626 57.503 0.688599 55.0464 0.688599C52.5898 0.688599 50.5984 2.68626 50.5984 5.1505C50.5984 7.61475 52.5898 9.61241 55.0464 9.61241Z" stroke="white" stroke-width="3" stroke-miterlimit="10"/>
<path d="M89.3766 14.3314C91.8332 14.3314 93.8246 12.3337 93.8246 9.8695C93.8246 7.40526 91.8332 5.40759 89.3766 5.40759C86.92 5.40759 84.9286 7.40526 84.9286 9.8695C84.9286 12.3337 86.92 14.3314 89.3766 14.3314Z" stroke="white" stroke-width="3" stroke-miterlimit="10"/>
<path d="M63.5567 41.6418C62.9251 39.3018 58.2238 37 50 37C41.7762 37 37.0744 39.3018 36.4433 41.6418C36.3975 41.722 36.3636 41.8098 36.3636 41.9091V42.1818V48.4545V48.7273V49V55V55.2727V55.5455V62.0909C36.3636 62.1793 36.3871 62.2627 36.4275 62.3369C37.0716 65.0069 42.8349 67 50 67C57.1487 67 62.9027 65.0151 63.5682 62.3549C63.6118 62.2769 63.6364 62.1869 63.6364 62.0909V55.5455V55.2727V55V49V48.7273V48.4545V42.1818V41.9091C63.6364 41.8098 63.6026 41.722 63.5567 41.6418ZM62.5024 55.5373C62.4871 55.6033 62.4658 55.6687 62.4391 55.7353C62.4173 55.7893 62.3906 55.8433 62.3611 55.8973C62.3246 55.9644 62.2836 56.0315 62.2351 56.0985C62.1991 56.1493 62.1582 56.1995 62.1156 56.2496C62.0551 56.3211 61.9907 56.3925 61.9176 56.4635C61.8735 56.5065 61.8249 56.5491 61.7758 56.5922C61.6864 56.6702 61.5931 56.7476 61.4889 56.8245C61.4442 56.8578 61.3962 56.89 61.3487 56.9227C61.2255 57.0078 61.0967 57.0924 60.9555 57.1753C60.9184 57.1976 60.8786 57.2189 60.8398 57.2407C60.6773 57.3324 60.5076 57.4235 60.3244 57.5118C60.3009 57.5233 60.2764 57.5342 60.2524 57.5451C60.0478 57.6416 59.834 57.7365 59.6055 57.8282C59.5989 57.8309 59.5924 57.8331 59.5858 57.8358C58.3471 58.3305 56.7626 58.7467 54.9162 59.0195C54.9069 59.0205 54.8976 59.0216 54.8884 59.0233C54.5295 59.0762 54.1613 59.1231 53.7833 59.1645C53.7216 59.1711 53.6567 59.1755 53.5946 59.182C53.2646 59.2164 52.9307 59.248 52.5871 59.2731C52.43 59.2845 52.2653 59.29 52.1055 59.2998C51.8469 59.3151 51.5911 59.332 51.326 59.3413C50.8929 59.3549 50.4511 59.3636 50 59.3636C49.5489 59.3636 49.1071 59.3549 48.6735 59.3396C48.4084 59.3304 48.1526 59.3129 47.894 59.2982C47.7342 59.2889 47.5695 59.2829 47.4124 59.2715C47.0687 59.2464 46.7349 59.2147 46.4049 59.1804C46.3427 59.1738 46.2778 59.1695 46.2162 59.1629C45.8382 59.1215 45.47 59.074 45.1111 59.0216C45.1018 59.0205 45.0926 59.0195 45.0833 59.0178C43.2369 58.7451 41.6524 58.3289 40.4136 57.8342C40.4071 57.832 40.4006 57.8293 40.394 57.8265C40.1655 57.7349 39.9511 57.64 39.7471 57.5435C39.7236 57.532 39.6986 57.5211 39.6751 57.5102C39.4918 57.4218 39.3222 57.3313 39.1596 57.2391C39.1215 57.2173 39.0811 57.196 39.044 57.1736C38.9027 57.0907 38.774 57.0062 38.6507 56.9211C38.6038 56.8884 38.5553 56.8562 38.5106 56.8229C38.4064 56.746 38.3131 56.6685 38.2236 56.5905C38.1751 56.548 38.126 56.5055 38.0818 56.4618C38.0087 56.3909 37.9444 56.32 37.8838 56.248C37.8413 56.1978 37.8004 56.1476 37.7644 56.0969C37.7164 56.0298 37.6755 55.9627 37.6384 55.8956C37.6089 55.8416 37.5827 55.7876 37.5604 55.7336C37.5336 55.6676 37.5124 55.6016 37.4971 55.5356C37.4769 55.4489 37.4546 55.3605 37.4546 55.2727C37.4546 55.2111 37.4616 55.1495 37.4715 55.0884C37.4851 55.006 37.4775 54.9236 37.4546 54.8456V50.7962C37.4698 50.8104 37.4889 50.824 37.5047 50.8382C37.6236 50.9429 37.7447 51.0471 37.8811 51.1475C39.9358 52.7015 44.0447 53.9091 50 53.9091C55.9302 53.9091 60.0287 52.7113 62.0922 51.1665C62.2569 51.0465 62.4053 50.9227 62.5449 50.7967L62.5455 50.7962V54.8456C62.5226 54.9236 62.5149 55.006 62.5286 55.0884C62.5389 55.1495 62.5455 55.2111 62.5455 55.2727C62.5455 55.3605 62.5231 55.4489 62.5024 55.5373ZM62.5455 44.2507V48.3002C62.5226 48.3782 62.5149 48.4605 62.5286 48.5429C62.5389 48.604 62.5455 48.6656 62.5455 48.7273C62.5455 48.8151 62.5231 48.9035 62.5024 48.9918C62.4871 49.0578 62.4658 49.1233 62.4391 49.1898C62.4173 49.2438 62.3906 49.2978 62.3611 49.3518C62.3246 49.4189 62.2836 49.486 62.2351 49.5531C62.1991 49.6038 62.1582 49.654 62.1156 49.7042C62.0551 49.7756 61.9907 49.8471 61.9176 49.918C61.8735 49.9611 61.8249 50.0036 61.7758 50.0467C61.6864 50.1247 61.5931 50.2022 61.4889 50.2791C61.4442 50.3124 61.3962 50.3445 61.3487 50.3773C61.2255 50.4624 61.0967 50.5469 60.9555 50.6298C60.9184 50.6522 60.8786 50.6735 60.8398 50.6953C60.6773 50.7869 60.5076 50.878 60.3244 50.9664C60.3009 50.9778 60.2764 50.9887 60.2524 50.9996C60.0478 51.0962 59.834 51.1911 59.6055 51.2827C59.5989 51.2855 59.5924 51.2876 59.5858 51.2904C58.3471 51.7851 56.7626 52.2013 54.9162 52.474C54.9069 52.4751 54.8976 52.4762 54.8884 52.4778C54.5295 52.5307 54.1613 52.5776 53.7833 52.6191C53.7216 52.6256 53.6567 52.63 53.5946 52.6365C53.2646 52.6709 52.9307 52.7025 52.5871 52.7276C52.43 52.7391 52.2653 52.7445 52.1055 52.7544C51.8469 52.7696 51.5911 52.7865 51.326 52.7958C50.8929 52.8095 50.4511 52.8182 50 52.8182C49.5489 52.8182 49.1071 52.8095 48.6735 52.7942C48.4084 52.7849 48.1526 52.7675 47.894 52.7527C47.7342 52.7435 47.5695 52.7375 47.4124 52.726C47.0687 52.7009 46.7349 52.6693 46.4049 52.6349C46.3427 52.6284 46.2778 52.624 46.2162 52.6175C45.8382 52.576 45.47 52.5285 45.1111 52.4762C45.1018 52.4751 45.0926 52.474 45.0833 52.4724C43.2369 52.1996 41.6524 51.7835 40.4136 51.2887C40.4071 51.2865 40.4006 51.2838 40.394 51.2811C40.1655 51.1895 39.9511 51.0945 39.7471 50.998C39.7236 50.9865 39.6986 50.9756 39.6751 50.9647C39.4918 50.8764 39.3222 50.7858 39.1596 50.6936C39.1215 50.6718 39.0811 50.6505 39.044 50.6282C38.9027 50.5453 38.774 50.4607 38.6507 50.3756C38.6038 50.3429 38.5553 50.3107 38.5106 50.2775C38.4064 50.2005 38.3131 50.1231 38.2236 50.0451C38.1751 50.0025 38.126 49.96 38.0818 49.9164C38.0087 49.8455 37.9444 49.7745 37.8838 49.7025C37.8413 49.6524 37.8004 49.6022 37.7644 49.5515C37.7164 49.4844 37.6755 49.4173 37.6384 49.3502C37.6089 49.2962 37.5827 49.2422 37.5604 49.1882C37.5336 49.1222 37.5124 49.0562 37.4971 48.9902C37.4769 48.9035 37.4546 48.8151 37.4546 48.7273C37.4546 48.6656 37.4616 48.604 37.4715 48.5429C37.4851 48.4605 37.4775 48.3782 37.4546 48.3002V44.2507C37.52 44.3102 37.5947 44.3685 37.6656 44.4275C37.7049 44.4602 37.7415 44.4929 37.7829 44.5256C37.9466 44.6544 38.1233 44.7815 38.3147 44.9053C38.3546 44.9309 38.3993 44.956 38.4407 44.9816C38.6011 45.0815 38.7707 45.1791 38.9491 45.2751C39.0151 45.3105 39.0811 45.3455 39.1493 45.3804C39.3484 45.4818 39.5573 45.5805 39.7771 45.676C39.8131 45.6918 39.8458 45.7082 39.8824 45.7235C40.1382 45.832 40.4098 45.9356 40.6924 46.036C40.7704 46.0638 40.8522 46.09 40.9324 46.1173C41.1571 46.1931 41.3895 46.2656 41.63 46.336C41.7167 46.3611 41.8018 46.3873 41.8907 46.4113C42.2098 46.4996 42.5393 46.5836 42.8851 46.6611C42.9326 46.672 42.9838 46.6807 43.0318 46.6911C43.3367 46.7576 43.6531 46.8193 43.9782 46.8771C44.0884 46.8967 44.2002 46.9153 44.3126 46.9338C44.6218 46.9845 44.9404 47.0309 45.2671 47.0735C45.3511 47.0844 45.4313 47.0969 45.5164 47.1073C45.9222 47.1564 46.3422 47.1984 46.7736 47.2344C46.88 47.2431 46.9907 47.2496 47.0987 47.2573C47.444 47.2824 47.7969 47.3031 48.158 47.3195C48.2895 47.3255 48.4204 47.3315 48.5546 47.3364C49.0247 47.3522 49.5036 47.3636 50 47.3636C50.4964 47.3636 50.9753 47.3522 51.4455 47.3364C51.5791 47.3315 51.71 47.3255 51.842 47.3195C52.2031 47.3031 52.556 47.2824 52.9013 47.2573C53.0093 47.2491 53.1195 47.2431 53.2264 47.2344C53.6578 47.1989 54.0778 47.1564 54.4836 47.1073C54.5687 47.0969 54.6489 47.0844 54.7329 47.0735C55.0596 47.0309 55.3776 46.9845 55.6875 46.9338C55.7998 46.9153 55.9116 46.8967 56.0218 46.8771C56.3469 46.8193 56.6633 46.7576 56.9682 46.6911C57.0162 46.6807 57.0675 46.6715 57.1149 46.6611C57.4607 46.5836 57.7902 46.4991 58.1093 46.4113C58.1982 46.3867 58.2833 46.3611 58.37 46.336C58.6106 46.2656 58.8429 46.1931 59.0676 46.1173C59.1478 46.09 59.2296 46.0638 59.3076 46.036C59.5902 45.9356 59.8624 45.832 60.1176 45.7235C60.1542 45.7082 60.1869 45.6918 60.2229 45.676C60.4427 45.58 60.6516 45.4818 60.8507 45.3804C60.9189 45.3455 60.9855 45.3105 61.0509 45.2751C61.2293 45.1796 61.3989 45.082 61.5593 44.9816C61.6007 44.956 61.6455 44.9309 61.6853 44.9053C61.8767 44.7815 62.0535 44.6549 62.2171 44.5256C62.258 44.4929 62.2946 44.4602 62.3344 44.4275C62.4053 44.3685 62.48 44.3102 62.5455 44.2507ZM50 38.0909C57.3936 38.0909 62.5455 40.2465 62.5455 42.1818C62.5455 44.1171 57.3936 46.2727 50 46.2727C42.6064 46.2727 37.4546 44.1171 37.4546 42.1818C37.4546 40.2465 42.6064 38.0909 50 38.0909ZM62.5455 61.9289C62.5378 61.9529 62.5324 61.9775 62.528 62.0025C62.2187 63.8893 57.1106 65.9091 50 65.9091C42.8895 65.9091 37.7813 63.8893 37.472 62.0025C37.4676 61.978 37.4616 61.954 37.4546 61.9311V57.3416C37.4698 57.3558 37.4889 57.3695 37.5047 57.3836C37.6236 57.4884 37.7447 57.5925 37.8811 57.6929C39.9358 59.2469 44.0447 60.4545 50 60.4545C55.9302 60.4545 60.0287 59.2567 62.0922 57.712C62.2569 57.592 62.4053 57.4682 62.5449 57.3422L62.5455 57.3416V61.9289Z" fill="white"/>
</g>
<defs>
<clipPath id="clip0">
<rect width="101" height="77" fill="white"/>
</clipPath>
</defs>
</svg>
