<svg  viewBox="0 0 56 35" fill="none" xmlns="http://www.w3.org/2000/svg">
<g clip-path="url(#clip0)">
<path d="M55.6582 16.9841L38.1582 6.04665C37.7024 5.76179 36.9642 5.76179 36.5085 6.04665C36.0527 6.3315 36.0527 6.79293 36.5085 7.07771L52.017 16.7705H1.1667C0.521828 16.7705 0 17.0967 0 17.4997C0 17.9028 0.521828 18.2289 1.1667 18.2289H52.017L36.5085 27.9216C36.0527 28.2065 36.0527 28.6679 36.5085 28.9527C36.7363 29.0951 37.0349 29.1663 37.3334 29.1663C37.6319 29.1663 37.9304 29.0951 38.1583 28.9527L55.6583 18.0152C56.114 17.7304 56.114 17.269 55.6582 16.9841Z" fill="white"/>
</g>
<defs>
<clipPath id="clip0">
<rect width="56" height="35" fill="white"/>
</clipPath>
</defs>
</svg>
